G04 #@! TF.GenerationSoftware,KiCad,Pcbnew,(5.1.2)-2*
G04 #@! TF.CreationDate,2019-10-09T20:23:10+02:00*
G04 #@! TF.ProjectId,PIC18F47K42 MCU Card,50494331-3846-4343-974b-3432204d4355,rev?*
G04 #@! TF.SameCoordinates,Original*
G04 #@! TF.FileFunction,Soldermask,Top*
G04 #@! TF.FilePolarity,Negative*
%FSLAX46Y46*%
G04 Gerber Fmt 4.6, Leading zero omitted, Abs format (unit mm)*
G04 Created by KiCad (PCBNEW (5.1.2)-2) date 2019-10-09 20:23:10*
%MOMM*%
%LPD*%
G04 APERTURE LIST*
%ADD10C,0.100000*%
G04 APERTURE END LIST*
D10*
G36*
X180706000Y-122543000D02*
G01*
X178704000Y-122543000D01*
X178704000Y-120841000D01*
X180706000Y-120841000D01*
X180706000Y-122543000D01*
X180706000Y-122543000D01*
G37*
G36*
X173404627Y-120651037D02*
G01*
X173404630Y-120651038D01*
X173574465Y-120702556D01*
X173730990Y-120786221D01*
X173868185Y-120898815D01*
X173980779Y-121036010D01*
X174064444Y-121192535D01*
X174110070Y-121342947D01*
X174115963Y-121362373D01*
X174133359Y-121539000D01*
X174115963Y-121715627D01*
X174115962Y-121715630D01*
X174064444Y-121885465D01*
X173980779Y-122041990D01*
X173868185Y-122179185D01*
X173730990Y-122291779D01*
X173574465Y-122375444D01*
X173424053Y-122421070D01*
X173404627Y-122426963D01*
X173272258Y-122440000D01*
X173183742Y-122440000D01*
X173051373Y-122426963D01*
X173031947Y-122421070D01*
X172881535Y-122375444D01*
X172725010Y-122291779D01*
X172587815Y-122179185D01*
X172475221Y-122041990D01*
X172391556Y-121885465D01*
X172340038Y-121715630D01*
X172340037Y-121715627D01*
X172322641Y-121539000D01*
X172340037Y-121362373D01*
X172345930Y-121342947D01*
X172391556Y-121192535D01*
X172475221Y-121036010D01*
X172587815Y-120898815D01*
X172725010Y-120786221D01*
X172881535Y-120702556D01*
X173051370Y-120651038D01*
X173051373Y-120651037D01*
X173183742Y-120638000D01*
X173272258Y-120638000D01*
X173404627Y-120651037D01*
X173404627Y-120651037D01*
G37*
G36*
X148004627Y-120651037D02*
G01*
X148004630Y-120651038D01*
X148174465Y-120702556D01*
X148330990Y-120786221D01*
X148468185Y-120898815D01*
X148580779Y-121036010D01*
X148664444Y-121192535D01*
X148710070Y-121342947D01*
X148715963Y-121362373D01*
X148733359Y-121539000D01*
X148715963Y-121715627D01*
X148715962Y-121715630D01*
X148664444Y-121885465D01*
X148580779Y-122041990D01*
X148468185Y-122179185D01*
X148330990Y-122291779D01*
X148174465Y-122375444D01*
X148024053Y-122421070D01*
X148004627Y-122426963D01*
X147872258Y-122440000D01*
X147783742Y-122440000D01*
X147651373Y-122426963D01*
X147631947Y-122421070D01*
X147481535Y-122375444D01*
X147325010Y-122291779D01*
X147187815Y-122179185D01*
X147075221Y-122041990D01*
X146991556Y-121885465D01*
X146940038Y-121715630D01*
X146940037Y-121715627D01*
X146922641Y-121539000D01*
X146940037Y-121362373D01*
X146945930Y-121342947D01*
X146991556Y-121192535D01*
X147075221Y-121036010D01*
X147187815Y-120898815D01*
X147325010Y-120786221D01*
X147481535Y-120702556D01*
X147651370Y-120651038D01*
X147651373Y-120651037D01*
X147783742Y-120638000D01*
X147872258Y-120638000D01*
X148004627Y-120651037D01*
X148004627Y-120651037D01*
G37*
G36*
X158164627Y-120651037D02*
G01*
X158164630Y-120651038D01*
X158334465Y-120702556D01*
X158490990Y-120786221D01*
X158628185Y-120898815D01*
X158740779Y-121036010D01*
X158824444Y-121192535D01*
X158870070Y-121342947D01*
X158875963Y-121362373D01*
X158893359Y-121539000D01*
X158875963Y-121715627D01*
X158875962Y-121715630D01*
X158824444Y-121885465D01*
X158740779Y-122041990D01*
X158628185Y-122179185D01*
X158490990Y-122291779D01*
X158334465Y-122375444D01*
X158184053Y-122421070D01*
X158164627Y-122426963D01*
X158032258Y-122440000D01*
X157943742Y-122440000D01*
X157811373Y-122426963D01*
X157791947Y-122421070D01*
X157641535Y-122375444D01*
X157485010Y-122291779D01*
X157347815Y-122179185D01*
X157235221Y-122041990D01*
X157151556Y-121885465D01*
X157100038Y-121715630D01*
X157100037Y-121715627D01*
X157082641Y-121539000D01*
X157100037Y-121362373D01*
X157105930Y-121342947D01*
X157151556Y-121192535D01*
X157235221Y-121036010D01*
X157347815Y-120898815D01*
X157485010Y-120786221D01*
X157641535Y-120702556D01*
X157811370Y-120651038D01*
X157811373Y-120651037D01*
X157943742Y-120638000D01*
X158032258Y-120638000D01*
X158164627Y-120651037D01*
X158164627Y-120651037D01*
G37*
G36*
X160704627Y-120651037D02*
G01*
X160704630Y-120651038D01*
X160874465Y-120702556D01*
X161030990Y-120786221D01*
X161168185Y-120898815D01*
X161280779Y-121036010D01*
X161364444Y-121192535D01*
X161410070Y-121342947D01*
X161415963Y-121362373D01*
X161433359Y-121539000D01*
X161415963Y-121715627D01*
X161415962Y-121715630D01*
X161364444Y-121885465D01*
X161280779Y-122041990D01*
X161168185Y-122179185D01*
X161030990Y-122291779D01*
X160874465Y-122375444D01*
X160724053Y-122421070D01*
X160704627Y-122426963D01*
X160572258Y-122440000D01*
X160483742Y-122440000D01*
X160351373Y-122426963D01*
X160331947Y-122421070D01*
X160181535Y-122375444D01*
X160025010Y-122291779D01*
X159887815Y-122179185D01*
X159775221Y-122041990D01*
X159691556Y-121885465D01*
X159640038Y-121715630D01*
X159640037Y-121715627D01*
X159622641Y-121539000D01*
X159640037Y-121362373D01*
X159645930Y-121342947D01*
X159691556Y-121192535D01*
X159775221Y-121036010D01*
X159887815Y-120898815D01*
X160025010Y-120786221D01*
X160181535Y-120702556D01*
X160351370Y-120651038D01*
X160351373Y-120651037D01*
X160483742Y-120638000D01*
X160572258Y-120638000D01*
X160704627Y-120651037D01*
X160704627Y-120651037D01*
G37*
G36*
X170864627Y-120651037D02*
G01*
X170864630Y-120651038D01*
X171034465Y-120702556D01*
X171190990Y-120786221D01*
X171328185Y-120898815D01*
X171440779Y-121036010D01*
X171524444Y-121192535D01*
X171570070Y-121342947D01*
X171575963Y-121362373D01*
X171593359Y-121539000D01*
X171575963Y-121715627D01*
X171575962Y-121715630D01*
X171524444Y-121885465D01*
X171440779Y-122041990D01*
X171328185Y-122179185D01*
X171190990Y-122291779D01*
X171034465Y-122375444D01*
X170884053Y-122421070D01*
X170864627Y-122426963D01*
X170732258Y-122440000D01*
X170643742Y-122440000D01*
X170511373Y-122426963D01*
X170491947Y-122421070D01*
X170341535Y-122375444D01*
X170185010Y-122291779D01*
X170047815Y-122179185D01*
X169935221Y-122041990D01*
X169851556Y-121885465D01*
X169800038Y-121715630D01*
X169800037Y-121715627D01*
X169782641Y-121539000D01*
X169800037Y-121362373D01*
X169805930Y-121342947D01*
X169851556Y-121192535D01*
X169935221Y-121036010D01*
X170047815Y-120898815D01*
X170185010Y-120786221D01*
X170341535Y-120702556D01*
X170511370Y-120651038D01*
X170511373Y-120651037D01*
X170643742Y-120638000D01*
X170732258Y-120638000D01*
X170864627Y-120651037D01*
X170864627Y-120651037D01*
G37*
G36*
X143649000Y-122440000D02*
G01*
X141847000Y-122440000D01*
X141847000Y-120638000D01*
X143649000Y-120638000D01*
X143649000Y-122440000D01*
X143649000Y-122440000D01*
G37*
G36*
X145464627Y-120651037D02*
G01*
X145464630Y-120651038D01*
X145634465Y-120702556D01*
X145790990Y-120786221D01*
X145928185Y-120898815D01*
X146040779Y-121036010D01*
X146124444Y-121192535D01*
X146170070Y-121342947D01*
X146175963Y-121362373D01*
X146193359Y-121539000D01*
X146175963Y-121715627D01*
X146175962Y-121715630D01*
X146124444Y-121885465D01*
X146040779Y-122041990D01*
X145928185Y-122179185D01*
X145790990Y-122291779D01*
X145634465Y-122375444D01*
X145484053Y-122421070D01*
X145464627Y-122426963D01*
X145332258Y-122440000D01*
X145243742Y-122440000D01*
X145111373Y-122426963D01*
X145091947Y-122421070D01*
X144941535Y-122375444D01*
X144785010Y-122291779D01*
X144647815Y-122179185D01*
X144535221Y-122041990D01*
X144451556Y-121885465D01*
X144400038Y-121715630D01*
X144400037Y-121715627D01*
X144382641Y-121539000D01*
X144400037Y-121362373D01*
X144405930Y-121342947D01*
X144451556Y-121192535D01*
X144535221Y-121036010D01*
X144647815Y-120898815D01*
X144785010Y-120786221D01*
X144941535Y-120702556D01*
X145111370Y-120651038D01*
X145111373Y-120651037D01*
X145243742Y-120638000D01*
X145332258Y-120638000D01*
X145464627Y-120651037D01*
X145464627Y-120651037D01*
G37*
G36*
X163244627Y-120651037D02*
G01*
X163244630Y-120651038D01*
X163414465Y-120702556D01*
X163570990Y-120786221D01*
X163708185Y-120898815D01*
X163820779Y-121036010D01*
X163904444Y-121192535D01*
X163950070Y-121342947D01*
X163955963Y-121362373D01*
X163973359Y-121539000D01*
X163955963Y-121715627D01*
X163955962Y-121715630D01*
X163904444Y-121885465D01*
X163820779Y-122041990D01*
X163708185Y-122179185D01*
X163570990Y-122291779D01*
X163414465Y-122375444D01*
X163264053Y-122421070D01*
X163244627Y-122426963D01*
X163112258Y-122440000D01*
X163023742Y-122440000D01*
X162891373Y-122426963D01*
X162871947Y-122421070D01*
X162721535Y-122375444D01*
X162565010Y-122291779D01*
X162427815Y-122179185D01*
X162315221Y-122041990D01*
X162231556Y-121885465D01*
X162180038Y-121715630D01*
X162180037Y-121715627D01*
X162162641Y-121539000D01*
X162180037Y-121362373D01*
X162185930Y-121342947D01*
X162231556Y-121192535D01*
X162315221Y-121036010D01*
X162427815Y-120898815D01*
X162565010Y-120786221D01*
X162721535Y-120702556D01*
X162891370Y-120651038D01*
X162891373Y-120651037D01*
X163023742Y-120638000D01*
X163112258Y-120638000D01*
X163244627Y-120651037D01*
X163244627Y-120651037D01*
G37*
G36*
X168324627Y-120651037D02*
G01*
X168324630Y-120651038D01*
X168494465Y-120702556D01*
X168650990Y-120786221D01*
X168788185Y-120898815D01*
X168900779Y-121036010D01*
X168984444Y-121192535D01*
X169030070Y-121342947D01*
X169035963Y-121362373D01*
X169053359Y-121539000D01*
X169035963Y-121715627D01*
X169035962Y-121715630D01*
X168984444Y-121885465D01*
X168900779Y-122041990D01*
X168788185Y-122179185D01*
X168650990Y-122291779D01*
X168494465Y-122375444D01*
X168344053Y-122421070D01*
X168324627Y-122426963D01*
X168192258Y-122440000D01*
X168103742Y-122440000D01*
X167971373Y-122426963D01*
X167951947Y-122421070D01*
X167801535Y-122375444D01*
X167645010Y-122291779D01*
X167507815Y-122179185D01*
X167395221Y-122041990D01*
X167311556Y-121885465D01*
X167260038Y-121715630D01*
X167260037Y-121715627D01*
X167242641Y-121539000D01*
X167260037Y-121362373D01*
X167265930Y-121342947D01*
X167311556Y-121192535D01*
X167395221Y-121036010D01*
X167507815Y-120898815D01*
X167645010Y-120786221D01*
X167801535Y-120702556D01*
X167971370Y-120651038D01*
X167971373Y-120651037D01*
X168103742Y-120638000D01*
X168192258Y-120638000D01*
X168324627Y-120651037D01*
X168324627Y-120651037D01*
G37*
G36*
X165784627Y-120651037D02*
G01*
X165784630Y-120651038D01*
X165954465Y-120702556D01*
X166110990Y-120786221D01*
X166248185Y-120898815D01*
X166360779Y-121036010D01*
X166444444Y-121192535D01*
X166490070Y-121342947D01*
X166495963Y-121362373D01*
X166513359Y-121539000D01*
X166495963Y-121715627D01*
X166495962Y-121715630D01*
X166444444Y-121885465D01*
X166360779Y-122041990D01*
X166248185Y-122179185D01*
X166110990Y-122291779D01*
X165954465Y-122375444D01*
X165804053Y-122421070D01*
X165784627Y-122426963D01*
X165652258Y-122440000D01*
X165563742Y-122440000D01*
X165431373Y-122426963D01*
X165411947Y-122421070D01*
X165261535Y-122375444D01*
X165105010Y-122291779D01*
X164967815Y-122179185D01*
X164855221Y-122041990D01*
X164771556Y-121885465D01*
X164720038Y-121715630D01*
X164720037Y-121715627D01*
X164702641Y-121539000D01*
X164720037Y-121362373D01*
X164725930Y-121342947D01*
X164771556Y-121192535D01*
X164855221Y-121036010D01*
X164967815Y-120898815D01*
X165105010Y-120786221D01*
X165261535Y-120702556D01*
X165431370Y-120651038D01*
X165431373Y-120651037D01*
X165563742Y-120638000D01*
X165652258Y-120638000D01*
X165784627Y-120651037D01*
X165784627Y-120651037D01*
G37*
G36*
X153084627Y-120651037D02*
G01*
X153084630Y-120651038D01*
X153254465Y-120702556D01*
X153410990Y-120786221D01*
X153548185Y-120898815D01*
X153660779Y-121036010D01*
X153744444Y-121192535D01*
X153790070Y-121342947D01*
X153795963Y-121362373D01*
X153813359Y-121539000D01*
X153795963Y-121715627D01*
X153795962Y-121715630D01*
X153744444Y-121885465D01*
X153660779Y-122041990D01*
X153548185Y-122179185D01*
X153410990Y-122291779D01*
X153254465Y-122375444D01*
X153104053Y-122421070D01*
X153084627Y-122426963D01*
X152952258Y-122440000D01*
X152863742Y-122440000D01*
X152731373Y-122426963D01*
X152711947Y-122421070D01*
X152561535Y-122375444D01*
X152405010Y-122291779D01*
X152267815Y-122179185D01*
X152155221Y-122041990D01*
X152071556Y-121885465D01*
X152020038Y-121715630D01*
X152020037Y-121715627D01*
X152002641Y-121539000D01*
X152020037Y-121362373D01*
X152025930Y-121342947D01*
X152071556Y-121192535D01*
X152155221Y-121036010D01*
X152267815Y-120898815D01*
X152405010Y-120786221D01*
X152561535Y-120702556D01*
X152731370Y-120651038D01*
X152731373Y-120651037D01*
X152863742Y-120638000D01*
X152952258Y-120638000D01*
X153084627Y-120651037D01*
X153084627Y-120651037D01*
G37*
G36*
X155624627Y-120651037D02*
G01*
X155624630Y-120651038D01*
X155794465Y-120702556D01*
X155950990Y-120786221D01*
X156088185Y-120898815D01*
X156200779Y-121036010D01*
X156284444Y-121192535D01*
X156330070Y-121342947D01*
X156335963Y-121362373D01*
X156353359Y-121539000D01*
X156335963Y-121715627D01*
X156335962Y-121715630D01*
X156284444Y-121885465D01*
X156200779Y-122041990D01*
X156088185Y-122179185D01*
X155950990Y-122291779D01*
X155794465Y-122375444D01*
X155644053Y-122421070D01*
X155624627Y-122426963D01*
X155492258Y-122440000D01*
X155403742Y-122440000D01*
X155271373Y-122426963D01*
X155251947Y-122421070D01*
X155101535Y-122375444D01*
X154945010Y-122291779D01*
X154807815Y-122179185D01*
X154695221Y-122041990D01*
X154611556Y-121885465D01*
X154560038Y-121715630D01*
X154560037Y-121715627D01*
X154542641Y-121539000D01*
X154560037Y-121362373D01*
X154565930Y-121342947D01*
X154611556Y-121192535D01*
X154695221Y-121036010D01*
X154807815Y-120898815D01*
X154945010Y-120786221D01*
X155101535Y-120702556D01*
X155271370Y-120651038D01*
X155271373Y-120651037D01*
X155403742Y-120638000D01*
X155492258Y-120638000D01*
X155624627Y-120651037D01*
X155624627Y-120651037D01*
G37*
G36*
X150544627Y-120651037D02*
G01*
X150544630Y-120651038D01*
X150714465Y-120702556D01*
X150870990Y-120786221D01*
X151008185Y-120898815D01*
X151120779Y-121036010D01*
X151204444Y-121192535D01*
X151250070Y-121342947D01*
X151255963Y-121362373D01*
X151273359Y-121539000D01*
X151255963Y-121715627D01*
X151255962Y-121715630D01*
X151204444Y-121885465D01*
X151120779Y-122041990D01*
X151008185Y-122179185D01*
X150870990Y-122291779D01*
X150714465Y-122375444D01*
X150564053Y-122421070D01*
X150544627Y-122426963D01*
X150412258Y-122440000D01*
X150323742Y-122440000D01*
X150191373Y-122426963D01*
X150171947Y-122421070D01*
X150021535Y-122375444D01*
X149865010Y-122291779D01*
X149727815Y-122179185D01*
X149615221Y-122041990D01*
X149531556Y-121885465D01*
X149480038Y-121715630D01*
X149480037Y-121715627D01*
X149462641Y-121539000D01*
X149480037Y-121362373D01*
X149485930Y-121342947D01*
X149531556Y-121192535D01*
X149615221Y-121036010D01*
X149727815Y-120898815D01*
X149865010Y-120786221D01*
X150021535Y-120702556D01*
X150191370Y-120651038D01*
X150191373Y-120651037D01*
X150323742Y-120638000D01*
X150412258Y-120638000D01*
X150544627Y-120651037D01*
X150544627Y-120651037D01*
G37*
G36*
X137526000Y-121908000D02*
G01*
X135524000Y-121908000D01*
X135524000Y-120206000D01*
X137526000Y-120206000D01*
X137526000Y-121908000D01*
X137526000Y-121908000D01*
G37*
G36*
X148004627Y-118111037D02*
G01*
X148004630Y-118111038D01*
X148174465Y-118162556D01*
X148330990Y-118246221D01*
X148468185Y-118358815D01*
X148580779Y-118496010D01*
X148664444Y-118652535D01*
X148710070Y-118802947D01*
X148715963Y-118822373D01*
X148733359Y-118999000D01*
X148715963Y-119175627D01*
X148715962Y-119175630D01*
X148664444Y-119345465D01*
X148580779Y-119501990D01*
X148468185Y-119639185D01*
X148330990Y-119751779D01*
X148174465Y-119835444D01*
X148024053Y-119881070D01*
X148004627Y-119886963D01*
X147872258Y-119900000D01*
X147783742Y-119900000D01*
X147651373Y-119886963D01*
X147631947Y-119881070D01*
X147481535Y-119835444D01*
X147325010Y-119751779D01*
X147187815Y-119639185D01*
X147075221Y-119501990D01*
X146991556Y-119345465D01*
X146940038Y-119175630D01*
X146940037Y-119175627D01*
X146922641Y-118999000D01*
X146940037Y-118822373D01*
X146945930Y-118802947D01*
X146991556Y-118652535D01*
X147075221Y-118496010D01*
X147187815Y-118358815D01*
X147325010Y-118246221D01*
X147481535Y-118162556D01*
X147651370Y-118111038D01*
X147651373Y-118111037D01*
X147783742Y-118098000D01*
X147872258Y-118098000D01*
X148004627Y-118111037D01*
X148004627Y-118111037D01*
G37*
G36*
X153084627Y-118111037D02*
G01*
X153084630Y-118111038D01*
X153254465Y-118162556D01*
X153410990Y-118246221D01*
X153548185Y-118358815D01*
X153660779Y-118496010D01*
X153744444Y-118652535D01*
X153790070Y-118802947D01*
X153795963Y-118822373D01*
X153813359Y-118999000D01*
X153795963Y-119175627D01*
X153795962Y-119175630D01*
X153744444Y-119345465D01*
X153660779Y-119501990D01*
X153548185Y-119639185D01*
X153410990Y-119751779D01*
X153254465Y-119835444D01*
X153104053Y-119881070D01*
X153084627Y-119886963D01*
X152952258Y-119900000D01*
X152863742Y-119900000D01*
X152731373Y-119886963D01*
X152711947Y-119881070D01*
X152561535Y-119835444D01*
X152405010Y-119751779D01*
X152267815Y-119639185D01*
X152155221Y-119501990D01*
X152071556Y-119345465D01*
X152020038Y-119175630D01*
X152020037Y-119175627D01*
X152002641Y-118999000D01*
X152020037Y-118822373D01*
X152025930Y-118802947D01*
X152071556Y-118652535D01*
X152155221Y-118496010D01*
X152267815Y-118358815D01*
X152405010Y-118246221D01*
X152561535Y-118162556D01*
X152731370Y-118111038D01*
X152731373Y-118111037D01*
X152863742Y-118098000D01*
X152952258Y-118098000D01*
X153084627Y-118111037D01*
X153084627Y-118111037D01*
G37*
G36*
X170864627Y-118111037D02*
G01*
X170864630Y-118111038D01*
X171034465Y-118162556D01*
X171190990Y-118246221D01*
X171328185Y-118358815D01*
X171440779Y-118496010D01*
X171524444Y-118652535D01*
X171570070Y-118802947D01*
X171575963Y-118822373D01*
X171593359Y-118999000D01*
X171575963Y-119175627D01*
X171575962Y-119175630D01*
X171524444Y-119345465D01*
X171440779Y-119501990D01*
X171328185Y-119639185D01*
X171190990Y-119751779D01*
X171034465Y-119835444D01*
X170884053Y-119881070D01*
X170864627Y-119886963D01*
X170732258Y-119900000D01*
X170643742Y-119900000D01*
X170511373Y-119886963D01*
X170491947Y-119881070D01*
X170341535Y-119835444D01*
X170185010Y-119751779D01*
X170047815Y-119639185D01*
X169935221Y-119501990D01*
X169851556Y-119345465D01*
X169800038Y-119175630D01*
X169800037Y-119175627D01*
X169782641Y-118999000D01*
X169800037Y-118822373D01*
X169805930Y-118802947D01*
X169851556Y-118652535D01*
X169935221Y-118496010D01*
X170047815Y-118358815D01*
X170185010Y-118246221D01*
X170341535Y-118162556D01*
X170511370Y-118111038D01*
X170511373Y-118111037D01*
X170643742Y-118098000D01*
X170732258Y-118098000D01*
X170864627Y-118111037D01*
X170864627Y-118111037D01*
G37*
G36*
X163244627Y-118111037D02*
G01*
X163244630Y-118111038D01*
X163414465Y-118162556D01*
X163570990Y-118246221D01*
X163708185Y-118358815D01*
X163820779Y-118496010D01*
X163904444Y-118652535D01*
X163950070Y-118802947D01*
X163955963Y-118822373D01*
X163973359Y-118999000D01*
X163955963Y-119175627D01*
X163955962Y-119175630D01*
X163904444Y-119345465D01*
X163820779Y-119501990D01*
X163708185Y-119639185D01*
X163570990Y-119751779D01*
X163414465Y-119835444D01*
X163264053Y-119881070D01*
X163244627Y-119886963D01*
X163112258Y-119900000D01*
X163023742Y-119900000D01*
X162891373Y-119886963D01*
X162871947Y-119881070D01*
X162721535Y-119835444D01*
X162565010Y-119751779D01*
X162427815Y-119639185D01*
X162315221Y-119501990D01*
X162231556Y-119345465D01*
X162180038Y-119175630D01*
X162180037Y-119175627D01*
X162162641Y-118999000D01*
X162180037Y-118822373D01*
X162185930Y-118802947D01*
X162231556Y-118652535D01*
X162315221Y-118496010D01*
X162427815Y-118358815D01*
X162565010Y-118246221D01*
X162721535Y-118162556D01*
X162891370Y-118111038D01*
X162891373Y-118111037D01*
X163023742Y-118098000D01*
X163112258Y-118098000D01*
X163244627Y-118111037D01*
X163244627Y-118111037D01*
G37*
G36*
X158164627Y-118111037D02*
G01*
X158164630Y-118111038D01*
X158334465Y-118162556D01*
X158490990Y-118246221D01*
X158628185Y-118358815D01*
X158740779Y-118496010D01*
X158824444Y-118652535D01*
X158870070Y-118802947D01*
X158875963Y-118822373D01*
X158893359Y-118999000D01*
X158875963Y-119175627D01*
X158875962Y-119175630D01*
X158824444Y-119345465D01*
X158740779Y-119501990D01*
X158628185Y-119639185D01*
X158490990Y-119751779D01*
X158334465Y-119835444D01*
X158184053Y-119881070D01*
X158164627Y-119886963D01*
X158032258Y-119900000D01*
X157943742Y-119900000D01*
X157811373Y-119886963D01*
X157791947Y-119881070D01*
X157641535Y-119835444D01*
X157485010Y-119751779D01*
X157347815Y-119639185D01*
X157235221Y-119501990D01*
X157151556Y-119345465D01*
X157100038Y-119175630D01*
X157100037Y-119175627D01*
X157082641Y-118999000D01*
X157100037Y-118822373D01*
X157105930Y-118802947D01*
X157151556Y-118652535D01*
X157235221Y-118496010D01*
X157347815Y-118358815D01*
X157485010Y-118246221D01*
X157641535Y-118162556D01*
X157811370Y-118111038D01*
X157811373Y-118111037D01*
X157943742Y-118098000D01*
X158032258Y-118098000D01*
X158164627Y-118111037D01*
X158164627Y-118111037D01*
G37*
G36*
X173404627Y-118111037D02*
G01*
X173404630Y-118111038D01*
X173574465Y-118162556D01*
X173730990Y-118246221D01*
X173868185Y-118358815D01*
X173980779Y-118496010D01*
X174064444Y-118652535D01*
X174110070Y-118802947D01*
X174115963Y-118822373D01*
X174133359Y-118999000D01*
X174115963Y-119175627D01*
X174115962Y-119175630D01*
X174064444Y-119345465D01*
X173980779Y-119501990D01*
X173868185Y-119639185D01*
X173730990Y-119751779D01*
X173574465Y-119835444D01*
X173424053Y-119881070D01*
X173404627Y-119886963D01*
X173272258Y-119900000D01*
X173183742Y-119900000D01*
X173051373Y-119886963D01*
X173031947Y-119881070D01*
X172881535Y-119835444D01*
X172725010Y-119751779D01*
X172587815Y-119639185D01*
X172475221Y-119501990D01*
X172391556Y-119345465D01*
X172340038Y-119175630D01*
X172340037Y-119175627D01*
X172322641Y-118999000D01*
X172340037Y-118822373D01*
X172345930Y-118802947D01*
X172391556Y-118652535D01*
X172475221Y-118496010D01*
X172587815Y-118358815D01*
X172725010Y-118246221D01*
X172881535Y-118162556D01*
X173051370Y-118111038D01*
X173051373Y-118111037D01*
X173183742Y-118098000D01*
X173272258Y-118098000D01*
X173404627Y-118111037D01*
X173404627Y-118111037D01*
G37*
G36*
X165784627Y-118111037D02*
G01*
X165784630Y-118111038D01*
X165954465Y-118162556D01*
X166110990Y-118246221D01*
X166248185Y-118358815D01*
X166360779Y-118496010D01*
X166444444Y-118652535D01*
X166490070Y-118802947D01*
X166495963Y-118822373D01*
X166513359Y-118999000D01*
X166495963Y-119175627D01*
X166495962Y-119175630D01*
X166444444Y-119345465D01*
X166360779Y-119501990D01*
X166248185Y-119639185D01*
X166110990Y-119751779D01*
X165954465Y-119835444D01*
X165804053Y-119881070D01*
X165784627Y-119886963D01*
X165652258Y-119900000D01*
X165563742Y-119900000D01*
X165431373Y-119886963D01*
X165411947Y-119881070D01*
X165261535Y-119835444D01*
X165105010Y-119751779D01*
X164967815Y-119639185D01*
X164855221Y-119501990D01*
X164771556Y-119345465D01*
X164720038Y-119175630D01*
X164720037Y-119175627D01*
X164702641Y-118999000D01*
X164720037Y-118822373D01*
X164725930Y-118802947D01*
X164771556Y-118652535D01*
X164855221Y-118496010D01*
X164967815Y-118358815D01*
X165105010Y-118246221D01*
X165261535Y-118162556D01*
X165431370Y-118111038D01*
X165431373Y-118111037D01*
X165563742Y-118098000D01*
X165652258Y-118098000D01*
X165784627Y-118111037D01*
X165784627Y-118111037D01*
G37*
G36*
X145464627Y-118111037D02*
G01*
X145464630Y-118111038D01*
X145634465Y-118162556D01*
X145790990Y-118246221D01*
X145928185Y-118358815D01*
X146040779Y-118496010D01*
X146124444Y-118652535D01*
X146170070Y-118802947D01*
X146175963Y-118822373D01*
X146193359Y-118999000D01*
X146175963Y-119175627D01*
X146175962Y-119175630D01*
X146124444Y-119345465D01*
X146040779Y-119501990D01*
X145928185Y-119639185D01*
X145790990Y-119751779D01*
X145634465Y-119835444D01*
X145484053Y-119881070D01*
X145464627Y-119886963D01*
X145332258Y-119900000D01*
X145243742Y-119900000D01*
X145111373Y-119886963D01*
X145091947Y-119881070D01*
X144941535Y-119835444D01*
X144785010Y-119751779D01*
X144647815Y-119639185D01*
X144535221Y-119501990D01*
X144451556Y-119345465D01*
X144400038Y-119175630D01*
X144400037Y-119175627D01*
X144382641Y-118999000D01*
X144400037Y-118822373D01*
X144405930Y-118802947D01*
X144451556Y-118652535D01*
X144535221Y-118496010D01*
X144647815Y-118358815D01*
X144785010Y-118246221D01*
X144941535Y-118162556D01*
X145111370Y-118111038D01*
X145111373Y-118111037D01*
X145243742Y-118098000D01*
X145332258Y-118098000D01*
X145464627Y-118111037D01*
X145464627Y-118111037D01*
G37*
G36*
X142924627Y-118111037D02*
G01*
X142924630Y-118111038D01*
X143094465Y-118162556D01*
X143250990Y-118246221D01*
X143388185Y-118358815D01*
X143500779Y-118496010D01*
X143584444Y-118652535D01*
X143630070Y-118802947D01*
X143635963Y-118822373D01*
X143653359Y-118999000D01*
X143635963Y-119175627D01*
X143635962Y-119175630D01*
X143584444Y-119345465D01*
X143500779Y-119501990D01*
X143388185Y-119639185D01*
X143250990Y-119751779D01*
X143094465Y-119835444D01*
X142944053Y-119881070D01*
X142924627Y-119886963D01*
X142792258Y-119900000D01*
X142703742Y-119900000D01*
X142571373Y-119886963D01*
X142551947Y-119881070D01*
X142401535Y-119835444D01*
X142245010Y-119751779D01*
X142107815Y-119639185D01*
X141995221Y-119501990D01*
X141911556Y-119345465D01*
X141860038Y-119175630D01*
X141860037Y-119175627D01*
X141842641Y-118999000D01*
X141860037Y-118822373D01*
X141865930Y-118802947D01*
X141911556Y-118652535D01*
X141995221Y-118496010D01*
X142107815Y-118358815D01*
X142245010Y-118246221D01*
X142401535Y-118162556D01*
X142571370Y-118111038D01*
X142571373Y-118111037D01*
X142703742Y-118098000D01*
X142792258Y-118098000D01*
X142924627Y-118111037D01*
X142924627Y-118111037D01*
G37*
G36*
X168324627Y-118111037D02*
G01*
X168324630Y-118111038D01*
X168494465Y-118162556D01*
X168650990Y-118246221D01*
X168788185Y-118358815D01*
X168900779Y-118496010D01*
X168984444Y-118652535D01*
X169030070Y-118802947D01*
X169035963Y-118822373D01*
X169053359Y-118999000D01*
X169035963Y-119175627D01*
X169035962Y-119175630D01*
X168984444Y-119345465D01*
X168900779Y-119501990D01*
X168788185Y-119639185D01*
X168650990Y-119751779D01*
X168494465Y-119835444D01*
X168344053Y-119881070D01*
X168324627Y-119886963D01*
X168192258Y-119900000D01*
X168103742Y-119900000D01*
X167971373Y-119886963D01*
X167951947Y-119881070D01*
X167801535Y-119835444D01*
X167645010Y-119751779D01*
X167507815Y-119639185D01*
X167395221Y-119501990D01*
X167311556Y-119345465D01*
X167260038Y-119175630D01*
X167260037Y-119175627D01*
X167242641Y-118999000D01*
X167260037Y-118822373D01*
X167265930Y-118802947D01*
X167311556Y-118652535D01*
X167395221Y-118496010D01*
X167507815Y-118358815D01*
X167645010Y-118246221D01*
X167801535Y-118162556D01*
X167971370Y-118111038D01*
X167971373Y-118111037D01*
X168103742Y-118098000D01*
X168192258Y-118098000D01*
X168324627Y-118111037D01*
X168324627Y-118111037D01*
G37*
G36*
X150544627Y-118111037D02*
G01*
X150544630Y-118111038D01*
X150714465Y-118162556D01*
X150870990Y-118246221D01*
X151008185Y-118358815D01*
X151120779Y-118496010D01*
X151204444Y-118652535D01*
X151250070Y-118802947D01*
X151255963Y-118822373D01*
X151273359Y-118999000D01*
X151255963Y-119175627D01*
X151255962Y-119175630D01*
X151204444Y-119345465D01*
X151120779Y-119501990D01*
X151008185Y-119639185D01*
X150870990Y-119751779D01*
X150714465Y-119835444D01*
X150564053Y-119881070D01*
X150544627Y-119886963D01*
X150412258Y-119900000D01*
X150323742Y-119900000D01*
X150191373Y-119886963D01*
X150171947Y-119881070D01*
X150021535Y-119835444D01*
X149865010Y-119751779D01*
X149727815Y-119639185D01*
X149615221Y-119501990D01*
X149531556Y-119345465D01*
X149480038Y-119175630D01*
X149480037Y-119175627D01*
X149462641Y-118999000D01*
X149480037Y-118822373D01*
X149485930Y-118802947D01*
X149531556Y-118652535D01*
X149615221Y-118496010D01*
X149727815Y-118358815D01*
X149865010Y-118246221D01*
X150021535Y-118162556D01*
X150191370Y-118111038D01*
X150191373Y-118111037D01*
X150323742Y-118098000D01*
X150412258Y-118098000D01*
X150544627Y-118111037D01*
X150544627Y-118111037D01*
G37*
G36*
X160704627Y-118111037D02*
G01*
X160704630Y-118111038D01*
X160874465Y-118162556D01*
X161030990Y-118246221D01*
X161168185Y-118358815D01*
X161280779Y-118496010D01*
X161364444Y-118652535D01*
X161410070Y-118802947D01*
X161415963Y-118822373D01*
X161433359Y-118999000D01*
X161415963Y-119175627D01*
X161415962Y-119175630D01*
X161364444Y-119345465D01*
X161280779Y-119501990D01*
X161168185Y-119639185D01*
X161030990Y-119751779D01*
X160874465Y-119835444D01*
X160724053Y-119881070D01*
X160704627Y-119886963D01*
X160572258Y-119900000D01*
X160483742Y-119900000D01*
X160351373Y-119886963D01*
X160331947Y-119881070D01*
X160181535Y-119835444D01*
X160025010Y-119751779D01*
X159887815Y-119639185D01*
X159775221Y-119501990D01*
X159691556Y-119345465D01*
X159640038Y-119175630D01*
X159640037Y-119175627D01*
X159622641Y-118999000D01*
X159640037Y-118822373D01*
X159645930Y-118802947D01*
X159691556Y-118652535D01*
X159775221Y-118496010D01*
X159887815Y-118358815D01*
X160025010Y-118246221D01*
X160181535Y-118162556D01*
X160351370Y-118111038D01*
X160351373Y-118111037D01*
X160483742Y-118098000D01*
X160572258Y-118098000D01*
X160704627Y-118111037D01*
X160704627Y-118111037D01*
G37*
G36*
X155624627Y-118111037D02*
G01*
X155624630Y-118111038D01*
X155794465Y-118162556D01*
X155950990Y-118246221D01*
X156088185Y-118358815D01*
X156200779Y-118496010D01*
X156284444Y-118652535D01*
X156330070Y-118802947D01*
X156335963Y-118822373D01*
X156353359Y-118999000D01*
X156335963Y-119175627D01*
X156335962Y-119175630D01*
X156284444Y-119345465D01*
X156200779Y-119501990D01*
X156088185Y-119639185D01*
X155950990Y-119751779D01*
X155794465Y-119835444D01*
X155644053Y-119881070D01*
X155624627Y-119886963D01*
X155492258Y-119900000D01*
X155403742Y-119900000D01*
X155271373Y-119886963D01*
X155251947Y-119881070D01*
X155101535Y-119835444D01*
X154945010Y-119751779D01*
X154807815Y-119639185D01*
X154695221Y-119501990D01*
X154611556Y-119345465D01*
X154560038Y-119175630D01*
X154560037Y-119175627D01*
X154542641Y-118999000D01*
X154560037Y-118822373D01*
X154565930Y-118802947D01*
X154611556Y-118652535D01*
X154695221Y-118496010D01*
X154807815Y-118358815D01*
X154945010Y-118246221D01*
X155101535Y-118162556D01*
X155271370Y-118111038D01*
X155271373Y-118111037D01*
X155403742Y-118098000D01*
X155492258Y-118098000D01*
X155624627Y-118111037D01*
X155624627Y-118111037D01*
G37*
G36*
X180706000Y-119443000D02*
G01*
X178704000Y-119443000D01*
X178704000Y-117741000D01*
X180706000Y-117741000D01*
X180706000Y-119443000D01*
X180706000Y-119443000D01*
G37*
G36*
X137526000Y-118808000D02*
G01*
X135524000Y-118808000D01*
X135524000Y-117106000D01*
X137526000Y-117106000D01*
X137526000Y-118808000D01*
X137526000Y-118808000D01*
G37*
G36*
X135304627Y-113031037D02*
G01*
X135304630Y-113031038D01*
X135474465Y-113082556D01*
X135630990Y-113166221D01*
X135768185Y-113278815D01*
X135880779Y-113416010D01*
X135964444Y-113572535D01*
X136010070Y-113722947D01*
X136015963Y-113742373D01*
X136033359Y-113919000D01*
X136015963Y-114095627D01*
X136015962Y-114095630D01*
X135964444Y-114265465D01*
X135880779Y-114421990D01*
X135768185Y-114559185D01*
X135630990Y-114671779D01*
X135474465Y-114755444D01*
X135324053Y-114801070D01*
X135304627Y-114806963D01*
X135172258Y-114820000D01*
X135083742Y-114820000D01*
X134951373Y-114806963D01*
X134931947Y-114801070D01*
X134781535Y-114755444D01*
X134625010Y-114671779D01*
X134487815Y-114559185D01*
X134375221Y-114421990D01*
X134291556Y-114265465D01*
X134240038Y-114095630D01*
X134240037Y-114095627D01*
X134222641Y-113919000D01*
X134240037Y-113742373D01*
X134245930Y-113722947D01*
X134291556Y-113572535D01*
X134375221Y-113416010D01*
X134487815Y-113278815D01*
X134625010Y-113166221D01*
X134781535Y-113082556D01*
X134951370Y-113031038D01*
X134951373Y-113031037D01*
X135083742Y-113018000D01*
X135172258Y-113018000D01*
X135304627Y-113031037D01*
X135304627Y-113031037D01*
G37*
G36*
X181749000Y-114820000D02*
G01*
X179947000Y-114820000D01*
X179947000Y-113018000D01*
X181749000Y-113018000D01*
X181749000Y-114820000D01*
X181749000Y-114820000D01*
G37*
G36*
X178484627Y-113031037D02*
G01*
X178484630Y-113031038D01*
X178654465Y-113082556D01*
X178810990Y-113166221D01*
X178948185Y-113278815D01*
X179060779Y-113416010D01*
X179144444Y-113572535D01*
X179190070Y-113722947D01*
X179195963Y-113742373D01*
X179213359Y-113919000D01*
X179195963Y-114095627D01*
X179195962Y-114095630D01*
X179144444Y-114265465D01*
X179060779Y-114421990D01*
X178948185Y-114559185D01*
X178810990Y-114671779D01*
X178654465Y-114755444D01*
X178504053Y-114801070D01*
X178484627Y-114806963D01*
X178352258Y-114820000D01*
X178263742Y-114820000D01*
X178131373Y-114806963D01*
X178111947Y-114801070D01*
X177961535Y-114755444D01*
X177805010Y-114671779D01*
X177667815Y-114559185D01*
X177555221Y-114421990D01*
X177471556Y-114265465D01*
X177420038Y-114095630D01*
X177420037Y-114095627D01*
X177402641Y-113919000D01*
X177420037Y-113742373D01*
X177425930Y-113722947D01*
X177471556Y-113572535D01*
X177555221Y-113416010D01*
X177667815Y-113278815D01*
X177805010Y-113166221D01*
X177961535Y-113082556D01*
X178131370Y-113031038D01*
X178131373Y-113031037D01*
X178263742Y-113018000D01*
X178352258Y-113018000D01*
X178484627Y-113031037D01*
X178484627Y-113031037D01*
G37*
G36*
X137844627Y-113031037D02*
G01*
X137844630Y-113031038D01*
X138014465Y-113082556D01*
X138170990Y-113166221D01*
X138308185Y-113278815D01*
X138420779Y-113416010D01*
X138504444Y-113572535D01*
X138550070Y-113722947D01*
X138555963Y-113742373D01*
X138573359Y-113919000D01*
X138555963Y-114095627D01*
X138555962Y-114095630D01*
X138504444Y-114265465D01*
X138420779Y-114421990D01*
X138308185Y-114559185D01*
X138170990Y-114671779D01*
X138014465Y-114755444D01*
X137864053Y-114801070D01*
X137844627Y-114806963D01*
X137712258Y-114820000D01*
X137623742Y-114820000D01*
X137491373Y-114806963D01*
X137471947Y-114801070D01*
X137321535Y-114755444D01*
X137165010Y-114671779D01*
X137027815Y-114559185D01*
X136915221Y-114421990D01*
X136831556Y-114265465D01*
X136780038Y-114095630D01*
X136780037Y-114095627D01*
X136762641Y-113919000D01*
X136780037Y-113742373D01*
X136785930Y-113722947D01*
X136831556Y-113572535D01*
X136915221Y-113416010D01*
X137027815Y-113278815D01*
X137165010Y-113166221D01*
X137321535Y-113082556D01*
X137491370Y-113031038D01*
X137491373Y-113031037D01*
X137623742Y-113018000D01*
X137712258Y-113018000D01*
X137844627Y-113031037D01*
X137844627Y-113031037D01*
G37*
G36*
X137844627Y-110491037D02*
G01*
X137844630Y-110491038D01*
X138014465Y-110542556D01*
X138170990Y-110626221D01*
X138308185Y-110738815D01*
X138420779Y-110876010D01*
X138504444Y-111032535D01*
X138550070Y-111182947D01*
X138555963Y-111202373D01*
X138573359Y-111379000D01*
X138555963Y-111555627D01*
X138555962Y-111555630D01*
X138504444Y-111725465D01*
X138420779Y-111881990D01*
X138308185Y-112019185D01*
X138170990Y-112131779D01*
X138014465Y-112215444D01*
X137864053Y-112261070D01*
X137844627Y-112266963D01*
X137712258Y-112280000D01*
X137623742Y-112280000D01*
X137491373Y-112266963D01*
X137471947Y-112261070D01*
X137321535Y-112215444D01*
X137165010Y-112131779D01*
X137027815Y-112019185D01*
X136915221Y-111881990D01*
X136831556Y-111725465D01*
X136780038Y-111555630D01*
X136780037Y-111555627D01*
X136762641Y-111379000D01*
X136780037Y-111202373D01*
X136785930Y-111182947D01*
X136831556Y-111032535D01*
X136915221Y-110876010D01*
X137027815Y-110738815D01*
X137165010Y-110626221D01*
X137321535Y-110542556D01*
X137491370Y-110491038D01*
X137491373Y-110491037D01*
X137623742Y-110478000D01*
X137712258Y-110478000D01*
X137844627Y-110491037D01*
X137844627Y-110491037D01*
G37*
G36*
X178484627Y-110491037D02*
G01*
X178484630Y-110491038D01*
X178654465Y-110542556D01*
X178810990Y-110626221D01*
X178948185Y-110738815D01*
X179060779Y-110876010D01*
X179144444Y-111032535D01*
X179190070Y-111182947D01*
X179195963Y-111202373D01*
X179213359Y-111379000D01*
X179195963Y-111555627D01*
X179195962Y-111555630D01*
X179144444Y-111725465D01*
X179060779Y-111881990D01*
X178948185Y-112019185D01*
X178810990Y-112131779D01*
X178654465Y-112215444D01*
X178504053Y-112261070D01*
X178484627Y-112266963D01*
X178352258Y-112280000D01*
X178263742Y-112280000D01*
X178131373Y-112266963D01*
X178111947Y-112261070D01*
X177961535Y-112215444D01*
X177805010Y-112131779D01*
X177667815Y-112019185D01*
X177555221Y-111881990D01*
X177471556Y-111725465D01*
X177420038Y-111555630D01*
X177420037Y-111555627D01*
X177402641Y-111379000D01*
X177420037Y-111202373D01*
X177425930Y-111182947D01*
X177471556Y-111032535D01*
X177555221Y-110876010D01*
X177667815Y-110738815D01*
X177805010Y-110626221D01*
X177961535Y-110542556D01*
X178131370Y-110491038D01*
X178131373Y-110491037D01*
X178263742Y-110478000D01*
X178352258Y-110478000D01*
X178484627Y-110491037D01*
X178484627Y-110491037D01*
G37*
G36*
X135304627Y-110491037D02*
G01*
X135304630Y-110491038D01*
X135474465Y-110542556D01*
X135630990Y-110626221D01*
X135768185Y-110738815D01*
X135880779Y-110876010D01*
X135964444Y-111032535D01*
X136010070Y-111182947D01*
X136015963Y-111202373D01*
X136033359Y-111379000D01*
X136015963Y-111555627D01*
X136015962Y-111555630D01*
X135964444Y-111725465D01*
X135880779Y-111881990D01*
X135768185Y-112019185D01*
X135630990Y-112131779D01*
X135474465Y-112215444D01*
X135324053Y-112261070D01*
X135304627Y-112266963D01*
X135172258Y-112280000D01*
X135083742Y-112280000D01*
X134951373Y-112266963D01*
X134931947Y-112261070D01*
X134781535Y-112215444D01*
X134625010Y-112131779D01*
X134487815Y-112019185D01*
X134375221Y-111881990D01*
X134291556Y-111725465D01*
X134240038Y-111555630D01*
X134240037Y-111555627D01*
X134222641Y-111379000D01*
X134240037Y-111202373D01*
X134245930Y-111182947D01*
X134291556Y-111032535D01*
X134375221Y-110876010D01*
X134487815Y-110738815D01*
X134625010Y-110626221D01*
X134781535Y-110542556D01*
X134951370Y-110491038D01*
X134951373Y-110491037D01*
X135083742Y-110478000D01*
X135172258Y-110478000D01*
X135304627Y-110491037D01*
X135304627Y-110491037D01*
G37*
G36*
X181024627Y-110491037D02*
G01*
X181024630Y-110491038D01*
X181194465Y-110542556D01*
X181350990Y-110626221D01*
X181488185Y-110738815D01*
X181600779Y-110876010D01*
X181684444Y-111032535D01*
X181730070Y-111182947D01*
X181735963Y-111202373D01*
X181753359Y-111379000D01*
X181735963Y-111555627D01*
X181735962Y-111555630D01*
X181684444Y-111725465D01*
X181600779Y-111881990D01*
X181488185Y-112019185D01*
X181350990Y-112131779D01*
X181194465Y-112215444D01*
X181044053Y-112261070D01*
X181024627Y-112266963D01*
X180892258Y-112280000D01*
X180803742Y-112280000D01*
X180671373Y-112266963D01*
X180651947Y-112261070D01*
X180501535Y-112215444D01*
X180345010Y-112131779D01*
X180207815Y-112019185D01*
X180095221Y-111881990D01*
X180011556Y-111725465D01*
X179960038Y-111555630D01*
X179960037Y-111555627D01*
X179942641Y-111379000D01*
X179960037Y-111202373D01*
X179965930Y-111182947D01*
X180011556Y-111032535D01*
X180095221Y-110876010D01*
X180207815Y-110738815D01*
X180345010Y-110626221D01*
X180501535Y-110542556D01*
X180671370Y-110491038D01*
X180671373Y-110491037D01*
X180803742Y-110478000D01*
X180892258Y-110478000D01*
X181024627Y-110491037D01*
X181024627Y-110491037D01*
G37*
G36*
X148818203Y-108574416D02*
G01*
X148866302Y-108589006D01*
X148910635Y-108612703D01*
X148950463Y-108645389D01*
X148958556Y-108653482D01*
X148958562Y-108653487D01*
X149339339Y-109034264D01*
X149339344Y-109034270D01*
X149347437Y-109042363D01*
X149380123Y-109082191D01*
X149403820Y-109126524D01*
X149418410Y-109174623D01*
X149423338Y-109224653D01*
X149418410Y-109274683D01*
X149403820Y-109322782D01*
X149380123Y-109367115D01*
X149347437Y-109406943D01*
X149339344Y-109415036D01*
X149339339Y-109415042D01*
X148658042Y-110096339D01*
X148658036Y-110096344D01*
X148649943Y-110104437D01*
X148610115Y-110137123D01*
X148565782Y-110160820D01*
X148517683Y-110175410D01*
X148467653Y-110180338D01*
X148417623Y-110175410D01*
X148369524Y-110160820D01*
X148325191Y-110137123D01*
X148285363Y-110104437D01*
X148277270Y-110096344D01*
X148277264Y-110096339D01*
X147896487Y-109715562D01*
X147896482Y-109715556D01*
X147888389Y-109707463D01*
X147855703Y-109667635D01*
X147832006Y-109623302D01*
X147817416Y-109575203D01*
X147812488Y-109525173D01*
X147817416Y-109475143D01*
X147832006Y-109427044D01*
X147855703Y-109382711D01*
X147888389Y-109342883D01*
X147896482Y-109334790D01*
X147896487Y-109334784D01*
X148577784Y-108653487D01*
X148577790Y-108653482D01*
X148585883Y-108645389D01*
X148625711Y-108612703D01*
X148670044Y-108589006D01*
X148718143Y-108574416D01*
X148768173Y-108569488D01*
X148818203Y-108574416D01*
X148818203Y-108574416D01*
G37*
G36*
X153300466Y-108885060D02*
G01*
X152132042Y-110053484D01*
X151635370Y-109556812D01*
X152803794Y-108388388D01*
X153300466Y-108885060D01*
X153300466Y-108885060D01*
G37*
G36*
X155704630Y-109556812D02*
G01*
X155207958Y-110053484D01*
X154039534Y-108885060D01*
X154536206Y-108388388D01*
X155704630Y-109556812D01*
X155704630Y-109556812D01*
G37*
G36*
X178484627Y-107951037D02*
G01*
X178484630Y-107951038D01*
X178654465Y-108002556D01*
X178810990Y-108086221D01*
X178948185Y-108198815D01*
X179060779Y-108336010D01*
X179144444Y-108492535D01*
X179180896Y-108612703D01*
X179195963Y-108662373D01*
X179213359Y-108839000D01*
X179195963Y-109015627D01*
X179195962Y-109015630D01*
X179144444Y-109185465D01*
X179060779Y-109341990D01*
X178948185Y-109479185D01*
X178810990Y-109591779D01*
X178654465Y-109675444D01*
X178522211Y-109715562D01*
X178484627Y-109726963D01*
X178352258Y-109740000D01*
X178263742Y-109740000D01*
X178131373Y-109726963D01*
X178093789Y-109715562D01*
X177961535Y-109675444D01*
X177805010Y-109591779D01*
X177667815Y-109479185D01*
X177555221Y-109341990D01*
X177471556Y-109185465D01*
X177420038Y-109015630D01*
X177420037Y-109015627D01*
X177402641Y-108839000D01*
X177420037Y-108662373D01*
X177435104Y-108612703D01*
X177471556Y-108492535D01*
X177555221Y-108336010D01*
X177667815Y-108198815D01*
X177805010Y-108086221D01*
X177961535Y-108002556D01*
X178131370Y-107951038D01*
X178131373Y-107951037D01*
X178263742Y-107938000D01*
X178352258Y-107938000D01*
X178484627Y-107951037D01*
X178484627Y-107951037D01*
G37*
G36*
X135304627Y-107951037D02*
G01*
X135304630Y-107951038D01*
X135474465Y-108002556D01*
X135630990Y-108086221D01*
X135768185Y-108198815D01*
X135880779Y-108336010D01*
X135964444Y-108492535D01*
X136000896Y-108612703D01*
X136015963Y-108662373D01*
X136033359Y-108839000D01*
X136015963Y-109015627D01*
X136015962Y-109015630D01*
X135964444Y-109185465D01*
X135880779Y-109341990D01*
X135768185Y-109479185D01*
X135630990Y-109591779D01*
X135474465Y-109675444D01*
X135342211Y-109715562D01*
X135304627Y-109726963D01*
X135172258Y-109740000D01*
X135083742Y-109740000D01*
X134951373Y-109726963D01*
X134913789Y-109715562D01*
X134781535Y-109675444D01*
X134625010Y-109591779D01*
X134487815Y-109479185D01*
X134375221Y-109341990D01*
X134291556Y-109185465D01*
X134240038Y-109015630D01*
X134240037Y-109015627D01*
X134222641Y-108839000D01*
X134240037Y-108662373D01*
X134255104Y-108612703D01*
X134291556Y-108492535D01*
X134375221Y-108336010D01*
X134487815Y-108198815D01*
X134625010Y-108086221D01*
X134781535Y-108002556D01*
X134951370Y-107951038D01*
X134951373Y-107951037D01*
X135083742Y-107938000D01*
X135172258Y-107938000D01*
X135304627Y-107951037D01*
X135304627Y-107951037D01*
G37*
G36*
X137844627Y-107951037D02*
G01*
X137844630Y-107951038D01*
X138014465Y-108002556D01*
X138170990Y-108086221D01*
X138308185Y-108198815D01*
X138420779Y-108336010D01*
X138504444Y-108492535D01*
X138540896Y-108612703D01*
X138555963Y-108662373D01*
X138573359Y-108839000D01*
X138555963Y-109015627D01*
X138555962Y-109015630D01*
X138504444Y-109185465D01*
X138420779Y-109341990D01*
X138308185Y-109479185D01*
X138170990Y-109591779D01*
X138014465Y-109675444D01*
X137882211Y-109715562D01*
X137844627Y-109726963D01*
X137712258Y-109740000D01*
X137623742Y-109740000D01*
X137491373Y-109726963D01*
X137453789Y-109715562D01*
X137321535Y-109675444D01*
X137165010Y-109591779D01*
X137027815Y-109479185D01*
X136915221Y-109341990D01*
X136831556Y-109185465D01*
X136780038Y-109015630D01*
X136780037Y-109015627D01*
X136762641Y-108839000D01*
X136780037Y-108662373D01*
X136795104Y-108612703D01*
X136831556Y-108492535D01*
X136915221Y-108336010D01*
X137027815Y-108198815D01*
X137165010Y-108086221D01*
X137321535Y-108002556D01*
X137491370Y-107951038D01*
X137491373Y-107951037D01*
X137623742Y-107938000D01*
X137712258Y-107938000D01*
X137844627Y-107951037D01*
X137844627Y-107951037D01*
G37*
G36*
X181024627Y-107951037D02*
G01*
X181024630Y-107951038D01*
X181194465Y-108002556D01*
X181350990Y-108086221D01*
X181488185Y-108198815D01*
X181600779Y-108336010D01*
X181684444Y-108492535D01*
X181720896Y-108612703D01*
X181735963Y-108662373D01*
X181753359Y-108839000D01*
X181735963Y-109015627D01*
X181735962Y-109015630D01*
X181684444Y-109185465D01*
X181600779Y-109341990D01*
X181488185Y-109479185D01*
X181350990Y-109591779D01*
X181194465Y-109675444D01*
X181062211Y-109715562D01*
X181024627Y-109726963D01*
X180892258Y-109740000D01*
X180803742Y-109740000D01*
X180671373Y-109726963D01*
X180633789Y-109715562D01*
X180501535Y-109675444D01*
X180345010Y-109591779D01*
X180207815Y-109479185D01*
X180095221Y-109341990D01*
X180011556Y-109185465D01*
X179960038Y-109015630D01*
X179960037Y-109015627D01*
X179942641Y-108839000D01*
X179960037Y-108662373D01*
X179975104Y-108612703D01*
X180011556Y-108492535D01*
X180095221Y-108336010D01*
X180207815Y-108198815D01*
X180345010Y-108086221D01*
X180501535Y-108002556D01*
X180671370Y-107951038D01*
X180671373Y-107951037D01*
X180803742Y-107938000D01*
X180892258Y-107938000D01*
X181024627Y-107951037D01*
X181024627Y-107951037D01*
G37*
G36*
X156270315Y-108991126D02*
G01*
X155773643Y-109487798D01*
X154605219Y-108319374D01*
X155101891Y-107822702D01*
X156270315Y-108991126D01*
X156270315Y-108991126D01*
G37*
G36*
X152734781Y-108319374D02*
G01*
X151566357Y-109487798D01*
X151069685Y-108991126D01*
X152238109Y-107822702D01*
X152734781Y-108319374D01*
X152734781Y-108319374D01*
G37*
G36*
X152169096Y-107753689D02*
G01*
X151000672Y-108922113D01*
X150504000Y-108425441D01*
X151672424Y-107257017D01*
X152169096Y-107753689D01*
X152169096Y-107753689D01*
G37*
G36*
X156836000Y-108425441D02*
G01*
X156339328Y-108922113D01*
X155170904Y-107753689D01*
X155667576Y-107257017D01*
X156836000Y-108425441D01*
X156836000Y-108425441D01*
G37*
G36*
X147492377Y-107248590D02*
G01*
X147540476Y-107263180D01*
X147584809Y-107286877D01*
X147624637Y-107319563D01*
X147632730Y-107327656D01*
X147632736Y-107327661D01*
X148013513Y-107708438D01*
X148013518Y-107708444D01*
X148021611Y-107716537D01*
X148054297Y-107756365D01*
X148077994Y-107800698D01*
X148092584Y-107848797D01*
X148097512Y-107898827D01*
X148092584Y-107948857D01*
X148077994Y-107996956D01*
X148054297Y-108041289D01*
X148021611Y-108081117D01*
X148013518Y-108089210D01*
X148013513Y-108089216D01*
X147332216Y-108770513D01*
X147332210Y-108770518D01*
X147324117Y-108778611D01*
X147284289Y-108811297D01*
X147239956Y-108834994D01*
X147191857Y-108849584D01*
X147141827Y-108854512D01*
X147091797Y-108849584D01*
X147043698Y-108834994D01*
X146999365Y-108811297D01*
X146959537Y-108778611D01*
X146951444Y-108770518D01*
X146951438Y-108770513D01*
X146570661Y-108389736D01*
X146570656Y-108389730D01*
X146562563Y-108381637D01*
X146529877Y-108341809D01*
X146506180Y-108297476D01*
X146491590Y-108249377D01*
X146486662Y-108199347D01*
X146491590Y-108149317D01*
X146506180Y-108101218D01*
X146529877Y-108056885D01*
X146562563Y-108017057D01*
X146570656Y-108008964D01*
X146570661Y-108008958D01*
X147251958Y-107327661D01*
X147251964Y-107327656D01*
X147260057Y-107319563D01*
X147299885Y-107286877D01*
X147344218Y-107263180D01*
X147392317Y-107248590D01*
X147442347Y-107243662D01*
X147492377Y-107248590D01*
X147492377Y-107248590D01*
G37*
G36*
X151603410Y-107188004D02*
G01*
X150434986Y-108356428D01*
X149938314Y-107859756D01*
X151106738Y-106691332D01*
X151603410Y-107188004D01*
X151603410Y-107188004D01*
G37*
G36*
X157401686Y-107859756D02*
G01*
X156905014Y-108356428D01*
X155736590Y-107188004D01*
X156233262Y-106691332D01*
X157401686Y-107859756D01*
X157401686Y-107859756D01*
G37*
G36*
X157967371Y-107294070D02*
G01*
X157470699Y-107790742D01*
X156302275Y-106622318D01*
X156798947Y-106125646D01*
X157967371Y-107294070D01*
X157967371Y-107294070D01*
G37*
G36*
X151037725Y-106622318D02*
G01*
X149869301Y-107790742D01*
X149372629Y-107294070D01*
X150541053Y-106125646D01*
X151037725Y-106622318D01*
X151037725Y-106622318D01*
G37*
G36*
X158533057Y-106728385D02*
G01*
X158036385Y-107225057D01*
X156867961Y-106056633D01*
X157364633Y-105559961D01*
X158533057Y-106728385D01*
X158533057Y-106728385D01*
G37*
G36*
X150472039Y-106056633D02*
G01*
X149303615Y-107225057D01*
X148806943Y-106728385D01*
X149975367Y-105559961D01*
X150472039Y-106056633D01*
X150472039Y-106056633D01*
G37*
G36*
X178484627Y-105411037D02*
G01*
X178484630Y-105411038D01*
X178654465Y-105462556D01*
X178810990Y-105546221D01*
X178948185Y-105658815D01*
X179060779Y-105796010D01*
X179144444Y-105952535D01*
X179176021Y-106056633D01*
X179195963Y-106122373D01*
X179213359Y-106299000D01*
X179195963Y-106475627D01*
X179195962Y-106475630D01*
X179144444Y-106645465D01*
X179060779Y-106801990D01*
X178948185Y-106939185D01*
X178810990Y-107051779D01*
X178654465Y-107135444D01*
X178504053Y-107181070D01*
X178484627Y-107186963D01*
X178352258Y-107200000D01*
X178263742Y-107200000D01*
X178131373Y-107186963D01*
X178111947Y-107181070D01*
X177961535Y-107135444D01*
X177805010Y-107051779D01*
X177667815Y-106939185D01*
X177555221Y-106801990D01*
X177471556Y-106645465D01*
X177420038Y-106475630D01*
X177420037Y-106475627D01*
X177402641Y-106299000D01*
X177420037Y-106122373D01*
X177439979Y-106056633D01*
X177471556Y-105952535D01*
X177555221Y-105796010D01*
X177667815Y-105658815D01*
X177805010Y-105546221D01*
X177961535Y-105462556D01*
X178131370Y-105411038D01*
X178131373Y-105411037D01*
X178263742Y-105398000D01*
X178352258Y-105398000D01*
X178484627Y-105411037D01*
X178484627Y-105411037D01*
G37*
G36*
X181024627Y-105411037D02*
G01*
X181024630Y-105411038D01*
X181194465Y-105462556D01*
X181350990Y-105546221D01*
X181488185Y-105658815D01*
X181600779Y-105796010D01*
X181684444Y-105952535D01*
X181716021Y-106056633D01*
X181735963Y-106122373D01*
X181753359Y-106299000D01*
X181735963Y-106475627D01*
X181735962Y-106475630D01*
X181684444Y-106645465D01*
X181600779Y-106801990D01*
X181488185Y-106939185D01*
X181350990Y-107051779D01*
X181194465Y-107135444D01*
X181044053Y-107181070D01*
X181024627Y-107186963D01*
X180892258Y-107200000D01*
X180803742Y-107200000D01*
X180671373Y-107186963D01*
X180651947Y-107181070D01*
X180501535Y-107135444D01*
X180345010Y-107051779D01*
X180207815Y-106939185D01*
X180095221Y-106801990D01*
X180011556Y-106645465D01*
X179960038Y-106475630D01*
X179960037Y-106475627D01*
X179942641Y-106299000D01*
X179960037Y-106122373D01*
X179979979Y-106056633D01*
X180011556Y-105952535D01*
X180095221Y-105796010D01*
X180207815Y-105658815D01*
X180345010Y-105546221D01*
X180501535Y-105462556D01*
X180671370Y-105411038D01*
X180671373Y-105411037D01*
X180803742Y-105398000D01*
X180892258Y-105398000D01*
X181024627Y-105411037D01*
X181024627Y-105411037D01*
G37*
G36*
X135304627Y-105411037D02*
G01*
X135304630Y-105411038D01*
X135474465Y-105462556D01*
X135630990Y-105546221D01*
X135768185Y-105658815D01*
X135880779Y-105796010D01*
X135964444Y-105952535D01*
X135996021Y-106056633D01*
X136015963Y-106122373D01*
X136033359Y-106299000D01*
X136015963Y-106475627D01*
X136015962Y-106475630D01*
X135964444Y-106645465D01*
X135880779Y-106801990D01*
X135768185Y-106939185D01*
X135630990Y-107051779D01*
X135474465Y-107135444D01*
X135324053Y-107181070D01*
X135304627Y-107186963D01*
X135172258Y-107200000D01*
X135083742Y-107200000D01*
X134951373Y-107186963D01*
X134931947Y-107181070D01*
X134781535Y-107135444D01*
X134625010Y-107051779D01*
X134487815Y-106939185D01*
X134375221Y-106801990D01*
X134291556Y-106645465D01*
X134240038Y-106475630D01*
X134240037Y-106475627D01*
X134222641Y-106299000D01*
X134240037Y-106122373D01*
X134259979Y-106056633D01*
X134291556Y-105952535D01*
X134375221Y-105796010D01*
X134487815Y-105658815D01*
X134625010Y-105546221D01*
X134781535Y-105462556D01*
X134951370Y-105411038D01*
X134951373Y-105411037D01*
X135083742Y-105398000D01*
X135172258Y-105398000D01*
X135304627Y-105411037D01*
X135304627Y-105411037D01*
G37*
G36*
X137844627Y-105411037D02*
G01*
X137844630Y-105411038D01*
X138014465Y-105462556D01*
X138170990Y-105546221D01*
X138308185Y-105658815D01*
X138420779Y-105796010D01*
X138504444Y-105952535D01*
X138536021Y-106056633D01*
X138555963Y-106122373D01*
X138573359Y-106299000D01*
X138555963Y-106475627D01*
X138555962Y-106475630D01*
X138504444Y-106645465D01*
X138420779Y-106801990D01*
X138308185Y-106939185D01*
X138170990Y-107051779D01*
X138014465Y-107135444D01*
X137864053Y-107181070D01*
X137844627Y-107186963D01*
X137712258Y-107200000D01*
X137623742Y-107200000D01*
X137491373Y-107186963D01*
X137471947Y-107181070D01*
X137321535Y-107135444D01*
X137165010Y-107051779D01*
X137027815Y-106939185D01*
X136915221Y-106801990D01*
X136831556Y-106645465D01*
X136780038Y-106475630D01*
X136780037Y-106475627D01*
X136762641Y-106299000D01*
X136780037Y-106122373D01*
X136799979Y-106056633D01*
X136831556Y-105952535D01*
X136915221Y-105796010D01*
X137027815Y-105658815D01*
X137165010Y-105546221D01*
X137321535Y-105462556D01*
X137491370Y-105411038D01*
X137491373Y-105411037D01*
X137623742Y-105398000D01*
X137712258Y-105398000D01*
X137844627Y-105411037D01*
X137844627Y-105411037D01*
G37*
G36*
X159098742Y-106162699D02*
G01*
X158602070Y-106659371D01*
X157433646Y-105490947D01*
X157930318Y-104994275D01*
X159098742Y-106162699D01*
X159098742Y-106162699D01*
G37*
G36*
X149906354Y-105490947D02*
G01*
X148737930Y-106659371D01*
X148241258Y-106162699D01*
X149409682Y-104994275D01*
X149906354Y-105490947D01*
X149906354Y-105490947D01*
G37*
G36*
X159664428Y-105597014D02*
G01*
X159167756Y-106093686D01*
X157999332Y-104925262D01*
X158496004Y-104428590D01*
X159664428Y-105597014D01*
X159664428Y-105597014D01*
G37*
G36*
X149340668Y-104925262D02*
G01*
X148172244Y-106093686D01*
X147675572Y-105597014D01*
X148843996Y-104428590D01*
X149340668Y-104925262D01*
X149340668Y-104925262D01*
G37*
G36*
X160230113Y-105031328D02*
G01*
X159733441Y-105528000D01*
X158565017Y-104359576D01*
X159061689Y-103862904D01*
X160230113Y-105031328D01*
X160230113Y-105031328D01*
G37*
G36*
X148774983Y-104359576D02*
G01*
X147606559Y-105528000D01*
X147109887Y-105031328D01*
X148278311Y-103862904D01*
X148774983Y-104359576D01*
X148774983Y-104359576D01*
G37*
G36*
X148209298Y-103793891D02*
G01*
X147040874Y-104962315D01*
X146544202Y-104465643D01*
X147712626Y-103297219D01*
X148209298Y-103793891D01*
X148209298Y-103793891D01*
G37*
G36*
X160795798Y-104465643D02*
G01*
X160299126Y-104962315D01*
X159130702Y-103793891D01*
X159627374Y-103297219D01*
X160795798Y-104465643D01*
X160795798Y-104465643D01*
G37*
G36*
X181024627Y-102871037D02*
G01*
X181024630Y-102871038D01*
X181194465Y-102922556D01*
X181350990Y-103006221D01*
X181488185Y-103118815D01*
X181600779Y-103256010D01*
X181684444Y-103412535D01*
X181730070Y-103562947D01*
X181735963Y-103582373D01*
X181753359Y-103759000D01*
X181735963Y-103935627D01*
X181735962Y-103935630D01*
X181684444Y-104105465D01*
X181600779Y-104261990D01*
X181488185Y-104399185D01*
X181350990Y-104511779D01*
X181194465Y-104595444D01*
X181044053Y-104641070D01*
X181024627Y-104646963D01*
X180892258Y-104660000D01*
X180803742Y-104660000D01*
X180671373Y-104646963D01*
X180651947Y-104641070D01*
X180501535Y-104595444D01*
X180345010Y-104511779D01*
X180207815Y-104399185D01*
X180095221Y-104261990D01*
X180011556Y-104105465D01*
X179960038Y-103935630D01*
X179960037Y-103935627D01*
X179942641Y-103759000D01*
X179960037Y-103582373D01*
X179965930Y-103562947D01*
X180011556Y-103412535D01*
X180095221Y-103256010D01*
X180207815Y-103118815D01*
X180345010Y-103006221D01*
X180501535Y-102922556D01*
X180671370Y-102871038D01*
X180671373Y-102871037D01*
X180803742Y-102858000D01*
X180892258Y-102858000D01*
X181024627Y-102871037D01*
X181024627Y-102871037D01*
G37*
G36*
X178484627Y-102871037D02*
G01*
X178484630Y-102871038D01*
X178654465Y-102922556D01*
X178810990Y-103006221D01*
X178948185Y-103118815D01*
X179060779Y-103256010D01*
X179144444Y-103412535D01*
X179190070Y-103562947D01*
X179195963Y-103582373D01*
X179213359Y-103759000D01*
X179195963Y-103935627D01*
X179195962Y-103935630D01*
X179144444Y-104105465D01*
X179060779Y-104261990D01*
X178948185Y-104399185D01*
X178810990Y-104511779D01*
X178654465Y-104595444D01*
X178504053Y-104641070D01*
X178484627Y-104646963D01*
X178352258Y-104660000D01*
X178263742Y-104660000D01*
X178131373Y-104646963D01*
X178111947Y-104641070D01*
X177961535Y-104595444D01*
X177805010Y-104511779D01*
X177667815Y-104399185D01*
X177555221Y-104261990D01*
X177471556Y-104105465D01*
X177420038Y-103935630D01*
X177420037Y-103935627D01*
X177402641Y-103759000D01*
X177420037Y-103582373D01*
X177425930Y-103562947D01*
X177471556Y-103412535D01*
X177555221Y-103256010D01*
X177667815Y-103118815D01*
X177805010Y-103006221D01*
X177961535Y-102922556D01*
X178131370Y-102871038D01*
X178131373Y-102871037D01*
X178263742Y-102858000D01*
X178352258Y-102858000D01*
X178484627Y-102871037D01*
X178484627Y-102871037D01*
G37*
G36*
X137844627Y-102871037D02*
G01*
X137844630Y-102871038D01*
X138014465Y-102922556D01*
X138170990Y-103006221D01*
X138308185Y-103118815D01*
X138420779Y-103256010D01*
X138504444Y-103412535D01*
X138550070Y-103562947D01*
X138555963Y-103582373D01*
X138573359Y-103759000D01*
X138555963Y-103935627D01*
X138555962Y-103935630D01*
X138504444Y-104105465D01*
X138420779Y-104261990D01*
X138308185Y-104399185D01*
X138170990Y-104511779D01*
X138014465Y-104595444D01*
X137864053Y-104641070D01*
X137844627Y-104646963D01*
X137712258Y-104660000D01*
X137623742Y-104660000D01*
X137491373Y-104646963D01*
X137471947Y-104641070D01*
X137321535Y-104595444D01*
X137165010Y-104511779D01*
X137027815Y-104399185D01*
X136915221Y-104261990D01*
X136831556Y-104105465D01*
X136780038Y-103935630D01*
X136780037Y-103935627D01*
X136762641Y-103759000D01*
X136780037Y-103582373D01*
X136785930Y-103562947D01*
X136831556Y-103412535D01*
X136915221Y-103256010D01*
X137027815Y-103118815D01*
X137165010Y-103006221D01*
X137321535Y-102922556D01*
X137491370Y-102871038D01*
X137491373Y-102871037D01*
X137623742Y-102858000D01*
X137712258Y-102858000D01*
X137844627Y-102871037D01*
X137844627Y-102871037D01*
G37*
G36*
X135304627Y-102871037D02*
G01*
X135304630Y-102871038D01*
X135474465Y-102922556D01*
X135630990Y-103006221D01*
X135768185Y-103118815D01*
X135880779Y-103256010D01*
X135964444Y-103412535D01*
X136010070Y-103562947D01*
X136015963Y-103582373D01*
X136033359Y-103759000D01*
X136015963Y-103935627D01*
X136015962Y-103935630D01*
X135964444Y-104105465D01*
X135880779Y-104261990D01*
X135768185Y-104399185D01*
X135630990Y-104511779D01*
X135474465Y-104595444D01*
X135324053Y-104641070D01*
X135304627Y-104646963D01*
X135172258Y-104660000D01*
X135083742Y-104660000D01*
X134951373Y-104646963D01*
X134931947Y-104641070D01*
X134781535Y-104595444D01*
X134625010Y-104511779D01*
X134487815Y-104399185D01*
X134375221Y-104261990D01*
X134291556Y-104105465D01*
X134240038Y-103935630D01*
X134240037Y-103935627D01*
X134222641Y-103759000D01*
X134240037Y-103582373D01*
X134245930Y-103562947D01*
X134291556Y-103412535D01*
X134375221Y-103256010D01*
X134487815Y-103118815D01*
X134625010Y-103006221D01*
X134781535Y-102922556D01*
X134951370Y-102871038D01*
X134951373Y-102871037D01*
X135083742Y-102858000D01*
X135172258Y-102858000D01*
X135304627Y-102871037D01*
X135304627Y-102871037D01*
G37*
G36*
X161361484Y-103899958D02*
G01*
X160864812Y-104396630D01*
X159696388Y-103228206D01*
X160193060Y-102731534D01*
X161361484Y-103899958D01*
X161361484Y-103899958D01*
G37*
G36*
X147643612Y-103228206D02*
G01*
X146475188Y-104396630D01*
X145978516Y-103899958D01*
X147146940Y-102731534D01*
X147643612Y-103228206D01*
X147643612Y-103228206D01*
G37*
G36*
X178484627Y-100331037D02*
G01*
X178484630Y-100331038D01*
X178654465Y-100382556D01*
X178810990Y-100466221D01*
X178948185Y-100578815D01*
X179060779Y-100716010D01*
X179144444Y-100872535D01*
X179190070Y-101022947D01*
X179195963Y-101042373D01*
X179213359Y-101219000D01*
X179195963Y-101395627D01*
X179195962Y-101395630D01*
X179144444Y-101565465D01*
X179060779Y-101721990D01*
X178948185Y-101859185D01*
X178810990Y-101971779D01*
X178654465Y-102055444D01*
X178504053Y-102101070D01*
X178484627Y-102106963D01*
X178352258Y-102120000D01*
X178263742Y-102120000D01*
X178131373Y-102106963D01*
X178111947Y-102101070D01*
X177961535Y-102055444D01*
X177805010Y-101971779D01*
X177667815Y-101859185D01*
X177555221Y-101721990D01*
X177471556Y-101565465D01*
X177420038Y-101395630D01*
X177420037Y-101395627D01*
X177402641Y-101219000D01*
X177420037Y-101042373D01*
X177425930Y-101022947D01*
X177471556Y-100872535D01*
X177555221Y-100716010D01*
X177667815Y-100578815D01*
X177805010Y-100466221D01*
X177961535Y-100382556D01*
X178131370Y-100331038D01*
X178131373Y-100331037D01*
X178263742Y-100318000D01*
X178352258Y-100318000D01*
X178484627Y-100331037D01*
X178484627Y-100331037D01*
G37*
G36*
X135304627Y-100331037D02*
G01*
X135304630Y-100331038D01*
X135474465Y-100382556D01*
X135630990Y-100466221D01*
X135768185Y-100578815D01*
X135880779Y-100716010D01*
X135964444Y-100872535D01*
X136010070Y-101022947D01*
X136015963Y-101042373D01*
X136033359Y-101219000D01*
X136015963Y-101395627D01*
X136015962Y-101395630D01*
X135964444Y-101565465D01*
X135880779Y-101721990D01*
X135768185Y-101859185D01*
X135630990Y-101971779D01*
X135474465Y-102055444D01*
X135324053Y-102101070D01*
X135304627Y-102106963D01*
X135172258Y-102120000D01*
X135083742Y-102120000D01*
X134951373Y-102106963D01*
X134931947Y-102101070D01*
X134781535Y-102055444D01*
X134625010Y-101971779D01*
X134487815Y-101859185D01*
X134375221Y-101721990D01*
X134291556Y-101565465D01*
X134240038Y-101395630D01*
X134240037Y-101395627D01*
X134222641Y-101219000D01*
X134240037Y-101042373D01*
X134245930Y-101022947D01*
X134291556Y-100872535D01*
X134375221Y-100716010D01*
X134487815Y-100578815D01*
X134625010Y-100466221D01*
X134781535Y-100382556D01*
X134951370Y-100331038D01*
X134951373Y-100331037D01*
X135083742Y-100318000D01*
X135172258Y-100318000D01*
X135304627Y-100331037D01*
X135304627Y-100331037D01*
G37*
G36*
X137844627Y-100331037D02*
G01*
X137844630Y-100331038D01*
X138014465Y-100382556D01*
X138170990Y-100466221D01*
X138308185Y-100578815D01*
X138420779Y-100716010D01*
X138504444Y-100872535D01*
X138550070Y-101022947D01*
X138555963Y-101042373D01*
X138573359Y-101219000D01*
X138555963Y-101395627D01*
X138555962Y-101395630D01*
X138504444Y-101565465D01*
X138420779Y-101721990D01*
X138308185Y-101859185D01*
X138170990Y-101971779D01*
X138014465Y-102055444D01*
X137864053Y-102101070D01*
X137844627Y-102106963D01*
X137712258Y-102120000D01*
X137623742Y-102120000D01*
X137491373Y-102106963D01*
X137471947Y-102101070D01*
X137321535Y-102055444D01*
X137165010Y-101971779D01*
X137027815Y-101859185D01*
X136915221Y-101721990D01*
X136831556Y-101565465D01*
X136780038Y-101395630D01*
X136780037Y-101395627D01*
X136762641Y-101219000D01*
X136780037Y-101042373D01*
X136785930Y-101022947D01*
X136831556Y-100872535D01*
X136915221Y-100716010D01*
X137027815Y-100578815D01*
X137165010Y-100466221D01*
X137321535Y-100382556D01*
X137491370Y-100331038D01*
X137491373Y-100331037D01*
X137623742Y-100318000D01*
X137712258Y-100318000D01*
X137844627Y-100331037D01*
X137844627Y-100331037D01*
G37*
G36*
X181024627Y-100331037D02*
G01*
X181024630Y-100331038D01*
X181194465Y-100382556D01*
X181350990Y-100466221D01*
X181488185Y-100578815D01*
X181600779Y-100716010D01*
X181684444Y-100872535D01*
X181730070Y-101022947D01*
X181735963Y-101042373D01*
X181753359Y-101219000D01*
X181735963Y-101395627D01*
X181735962Y-101395630D01*
X181684444Y-101565465D01*
X181600779Y-101721990D01*
X181488185Y-101859185D01*
X181350990Y-101971779D01*
X181194465Y-102055444D01*
X181044053Y-102101070D01*
X181024627Y-102106963D01*
X180892258Y-102120000D01*
X180803742Y-102120000D01*
X180671373Y-102106963D01*
X180651947Y-102101070D01*
X180501535Y-102055444D01*
X180345010Y-101971779D01*
X180207815Y-101859185D01*
X180095221Y-101721990D01*
X180011556Y-101565465D01*
X179960038Y-101395630D01*
X179960037Y-101395627D01*
X179942641Y-101219000D01*
X179960037Y-101042373D01*
X179965930Y-101022947D01*
X180011556Y-100872535D01*
X180095221Y-100716010D01*
X180207815Y-100578815D01*
X180345010Y-100466221D01*
X180501535Y-100382556D01*
X180671370Y-100331038D01*
X180671373Y-100331037D01*
X180803742Y-100318000D01*
X180892258Y-100318000D01*
X181024627Y-100331037D01*
X181024627Y-100331037D01*
G37*
G36*
X161361484Y-100824042D02*
G01*
X160193060Y-101992466D01*
X159696388Y-101495794D01*
X160864812Y-100327370D01*
X161361484Y-100824042D01*
X161361484Y-100824042D01*
G37*
G36*
X147643612Y-101495794D02*
G01*
X147146940Y-101992466D01*
X145978516Y-100824042D01*
X146475188Y-100327370D01*
X147643612Y-101495794D01*
X147643612Y-101495794D01*
G37*
G36*
X160795798Y-100258357D02*
G01*
X159627374Y-101426781D01*
X159130702Y-100930109D01*
X160299126Y-99761685D01*
X160795798Y-100258357D01*
X160795798Y-100258357D01*
G37*
G36*
X148209298Y-100930109D02*
G01*
X147712626Y-101426781D01*
X146544202Y-100258357D01*
X147040874Y-99761685D01*
X148209298Y-100930109D01*
X148209298Y-100930109D01*
G37*
G36*
X160230113Y-99692672D02*
G01*
X159061689Y-100861096D01*
X158565017Y-100364424D01*
X159733441Y-99196000D01*
X160230113Y-99692672D01*
X160230113Y-99692672D01*
G37*
G36*
X148774983Y-100364424D02*
G01*
X148278311Y-100861096D01*
X147109887Y-99692672D01*
X147606559Y-99196000D01*
X148774983Y-100364424D01*
X148774983Y-100364424D01*
G37*
G36*
X149340668Y-99798738D02*
G01*
X148843996Y-100295410D01*
X147675572Y-99126986D01*
X148172244Y-98630314D01*
X149340668Y-99798738D01*
X149340668Y-99798738D01*
G37*
G36*
X159664428Y-99126986D02*
G01*
X158496004Y-100295410D01*
X157999332Y-99798738D01*
X159167756Y-98630314D01*
X159664428Y-99126986D01*
X159664428Y-99126986D01*
G37*
G36*
X149906354Y-99233053D02*
G01*
X149409682Y-99729725D01*
X148241258Y-98561301D01*
X148737930Y-98064629D01*
X149906354Y-99233053D01*
X149906354Y-99233053D01*
G37*
G36*
X159098742Y-98561301D02*
G01*
X157930318Y-99729725D01*
X157433646Y-99233053D01*
X158602070Y-98064629D01*
X159098742Y-98561301D01*
X159098742Y-98561301D01*
G37*
G36*
X178484627Y-97791037D02*
G01*
X178484630Y-97791038D01*
X178654465Y-97842556D01*
X178810990Y-97926221D01*
X178948185Y-98038815D01*
X179060779Y-98176010D01*
X179144444Y-98332535D01*
X179190070Y-98482947D01*
X179195963Y-98502373D01*
X179213359Y-98679000D01*
X179195963Y-98855627D01*
X179195962Y-98855630D01*
X179144444Y-99025465D01*
X179060779Y-99181990D01*
X178948185Y-99319185D01*
X178810990Y-99431779D01*
X178654465Y-99515444D01*
X178504053Y-99561070D01*
X178484627Y-99566963D01*
X178352258Y-99580000D01*
X178263742Y-99580000D01*
X178131373Y-99566963D01*
X178111947Y-99561070D01*
X177961535Y-99515444D01*
X177805010Y-99431779D01*
X177667815Y-99319185D01*
X177555221Y-99181990D01*
X177471556Y-99025465D01*
X177420038Y-98855630D01*
X177420037Y-98855627D01*
X177402641Y-98679000D01*
X177420037Y-98502373D01*
X177425930Y-98482947D01*
X177471556Y-98332535D01*
X177555221Y-98176010D01*
X177667815Y-98038815D01*
X177805010Y-97926221D01*
X177961535Y-97842556D01*
X178131370Y-97791038D01*
X178131373Y-97791037D01*
X178263742Y-97778000D01*
X178352258Y-97778000D01*
X178484627Y-97791037D01*
X178484627Y-97791037D01*
G37*
G36*
X135304627Y-97791037D02*
G01*
X135304630Y-97791038D01*
X135474465Y-97842556D01*
X135630990Y-97926221D01*
X135768185Y-98038815D01*
X135880779Y-98176010D01*
X135964444Y-98332535D01*
X136010070Y-98482947D01*
X136015963Y-98502373D01*
X136033359Y-98679000D01*
X136015963Y-98855627D01*
X136015962Y-98855630D01*
X135964444Y-99025465D01*
X135880779Y-99181990D01*
X135768185Y-99319185D01*
X135630990Y-99431779D01*
X135474465Y-99515444D01*
X135324053Y-99561070D01*
X135304627Y-99566963D01*
X135172258Y-99580000D01*
X135083742Y-99580000D01*
X134951373Y-99566963D01*
X134931947Y-99561070D01*
X134781535Y-99515444D01*
X134625010Y-99431779D01*
X134487815Y-99319185D01*
X134375221Y-99181990D01*
X134291556Y-99025465D01*
X134240038Y-98855630D01*
X134240037Y-98855627D01*
X134222641Y-98679000D01*
X134240037Y-98502373D01*
X134245930Y-98482947D01*
X134291556Y-98332535D01*
X134375221Y-98176010D01*
X134487815Y-98038815D01*
X134625010Y-97926221D01*
X134781535Y-97842556D01*
X134951370Y-97791038D01*
X134951373Y-97791037D01*
X135083742Y-97778000D01*
X135172258Y-97778000D01*
X135304627Y-97791037D01*
X135304627Y-97791037D01*
G37*
G36*
X137844627Y-97791037D02*
G01*
X137844630Y-97791038D01*
X138014465Y-97842556D01*
X138170990Y-97926221D01*
X138308185Y-98038815D01*
X138420779Y-98176010D01*
X138504444Y-98332535D01*
X138550070Y-98482947D01*
X138555963Y-98502373D01*
X138573359Y-98679000D01*
X138555963Y-98855627D01*
X138555962Y-98855630D01*
X138504444Y-99025465D01*
X138420779Y-99181990D01*
X138308185Y-99319185D01*
X138170990Y-99431779D01*
X138014465Y-99515444D01*
X137864053Y-99561070D01*
X137844627Y-99566963D01*
X137712258Y-99580000D01*
X137623742Y-99580000D01*
X137491373Y-99566963D01*
X137471947Y-99561070D01*
X137321535Y-99515444D01*
X137165010Y-99431779D01*
X137027815Y-99319185D01*
X136915221Y-99181990D01*
X136831556Y-99025465D01*
X136780038Y-98855630D01*
X136780037Y-98855627D01*
X136762641Y-98679000D01*
X136780037Y-98502373D01*
X136785930Y-98482947D01*
X136831556Y-98332535D01*
X136915221Y-98176010D01*
X137027815Y-98038815D01*
X137165010Y-97926221D01*
X137321535Y-97842556D01*
X137491370Y-97791038D01*
X137491373Y-97791037D01*
X137623742Y-97778000D01*
X137712258Y-97778000D01*
X137844627Y-97791037D01*
X137844627Y-97791037D01*
G37*
G36*
X181024627Y-97791037D02*
G01*
X181024630Y-97791038D01*
X181194465Y-97842556D01*
X181350990Y-97926221D01*
X181488185Y-98038815D01*
X181600779Y-98176010D01*
X181684444Y-98332535D01*
X181730070Y-98482947D01*
X181735963Y-98502373D01*
X181753359Y-98679000D01*
X181735963Y-98855627D01*
X181735962Y-98855630D01*
X181684444Y-99025465D01*
X181600779Y-99181990D01*
X181488185Y-99319185D01*
X181350990Y-99431779D01*
X181194465Y-99515444D01*
X181044053Y-99561070D01*
X181024627Y-99566963D01*
X180892258Y-99580000D01*
X180803742Y-99580000D01*
X180671373Y-99566963D01*
X180651947Y-99561070D01*
X180501535Y-99515444D01*
X180345010Y-99431779D01*
X180207815Y-99319185D01*
X180095221Y-99181990D01*
X180011556Y-99025465D01*
X179960038Y-98855630D01*
X179960037Y-98855627D01*
X179942641Y-98679000D01*
X179960037Y-98502373D01*
X179965930Y-98482947D01*
X180011556Y-98332535D01*
X180095221Y-98176010D01*
X180207815Y-98038815D01*
X180345010Y-97926221D01*
X180501535Y-97842556D01*
X180671370Y-97791038D01*
X180671373Y-97791037D01*
X180803742Y-97778000D01*
X180892258Y-97778000D01*
X181024627Y-97791037D01*
X181024627Y-97791037D01*
G37*
G36*
X150472039Y-98667367D02*
G01*
X149975367Y-99164039D01*
X148806943Y-97995615D01*
X149303615Y-97498943D01*
X150472039Y-98667367D01*
X150472039Y-98667367D01*
G37*
G36*
X158533057Y-97995615D02*
G01*
X157364633Y-99164039D01*
X156867961Y-98667367D01*
X158036385Y-97498943D01*
X158533057Y-97995615D01*
X158533057Y-97995615D01*
G37*
G36*
X151037725Y-98101682D02*
G01*
X150541053Y-98598354D01*
X149372629Y-97429930D01*
X149869301Y-96933258D01*
X151037725Y-98101682D01*
X151037725Y-98101682D01*
G37*
G36*
X157967371Y-97429930D02*
G01*
X156798947Y-98598354D01*
X156302275Y-98101682D01*
X157470699Y-96933258D01*
X157967371Y-97429930D01*
X157967371Y-97429930D01*
G37*
G36*
X170193979Y-97079641D02*
G01*
X168707641Y-98565979D01*
X164746429Y-94604767D01*
X166232767Y-93118429D01*
X170193979Y-97079641D01*
X170193979Y-97079641D01*
G37*
G36*
X157401686Y-96864244D02*
G01*
X156233262Y-98032668D01*
X155736590Y-97535996D01*
X156905014Y-96367572D01*
X157401686Y-96864244D01*
X157401686Y-96864244D01*
G37*
G36*
X151603410Y-97535996D02*
G01*
X151106738Y-98032668D01*
X149938314Y-96864244D01*
X150434986Y-96367572D01*
X151603410Y-97535996D01*
X151603410Y-97535996D01*
G37*
G36*
X160248203Y-95874416D02*
G01*
X160296302Y-95889006D01*
X160340635Y-95912703D01*
X160380463Y-95945389D01*
X160388556Y-95953482D01*
X160388562Y-95953487D01*
X160769339Y-96334264D01*
X160769344Y-96334270D01*
X160777437Y-96342363D01*
X160810123Y-96382191D01*
X160833820Y-96426524D01*
X160848410Y-96474623D01*
X160853338Y-96524653D01*
X160848410Y-96574683D01*
X160833820Y-96622782D01*
X160810123Y-96667115D01*
X160777437Y-96706943D01*
X160769344Y-96715036D01*
X160769339Y-96715042D01*
X160088042Y-97396339D01*
X160088036Y-97396344D01*
X160079943Y-97404437D01*
X160040115Y-97437123D01*
X159995782Y-97460820D01*
X159947683Y-97475410D01*
X159897653Y-97480338D01*
X159847623Y-97475410D01*
X159799524Y-97460820D01*
X159755191Y-97437123D01*
X159715363Y-97404437D01*
X159707270Y-97396344D01*
X159707264Y-97396339D01*
X159326487Y-97015562D01*
X159326482Y-97015556D01*
X159318389Y-97007463D01*
X159285703Y-96967635D01*
X159262006Y-96923302D01*
X159247416Y-96875203D01*
X159242488Y-96825173D01*
X159247416Y-96775143D01*
X159262006Y-96727044D01*
X159285703Y-96682711D01*
X159318389Y-96642883D01*
X159326482Y-96634790D01*
X159326487Y-96634784D01*
X160007784Y-95953487D01*
X160007790Y-95953482D01*
X160015883Y-95945389D01*
X160055711Y-95912703D01*
X160100044Y-95889006D01*
X160148143Y-95874416D01*
X160198173Y-95869488D01*
X160248203Y-95874416D01*
X160248203Y-95874416D01*
G37*
G36*
X156836000Y-96298559D02*
G01*
X155667576Y-97466983D01*
X155170904Y-96970311D01*
X156339328Y-95801887D01*
X156836000Y-96298559D01*
X156836000Y-96298559D01*
G37*
G36*
X152169096Y-96970311D02*
G01*
X151672424Y-97466983D01*
X150504000Y-96298559D01*
X151000672Y-95801887D01*
X152169096Y-96970311D01*
X152169096Y-96970311D01*
G37*
G36*
X135304627Y-95251037D02*
G01*
X135304630Y-95251038D01*
X135474465Y-95302556D01*
X135630990Y-95386221D01*
X135768185Y-95498815D01*
X135880779Y-95636010D01*
X135964444Y-95792535D01*
X136000896Y-95912703D01*
X136015963Y-95962373D01*
X136033359Y-96139000D01*
X136015963Y-96315627D01*
X136015962Y-96315630D01*
X135964444Y-96485465D01*
X135880779Y-96641990D01*
X135768185Y-96779185D01*
X135630990Y-96891779D01*
X135474465Y-96975444D01*
X135342211Y-97015562D01*
X135304627Y-97026963D01*
X135172258Y-97040000D01*
X135083742Y-97040000D01*
X134951373Y-97026963D01*
X134913789Y-97015562D01*
X134781535Y-96975444D01*
X134625010Y-96891779D01*
X134487815Y-96779185D01*
X134375221Y-96641990D01*
X134291556Y-96485465D01*
X134240038Y-96315630D01*
X134240037Y-96315627D01*
X134222641Y-96139000D01*
X134240037Y-95962373D01*
X134255104Y-95912703D01*
X134291556Y-95792535D01*
X134375221Y-95636010D01*
X134487815Y-95498815D01*
X134625010Y-95386221D01*
X134781535Y-95302556D01*
X134951370Y-95251038D01*
X134951373Y-95251037D01*
X135083742Y-95238000D01*
X135172258Y-95238000D01*
X135304627Y-95251037D01*
X135304627Y-95251037D01*
G37*
G36*
X137844627Y-95251037D02*
G01*
X137844630Y-95251038D01*
X138014465Y-95302556D01*
X138170990Y-95386221D01*
X138308185Y-95498815D01*
X138420779Y-95636010D01*
X138504444Y-95792535D01*
X138540896Y-95912703D01*
X138555963Y-95962373D01*
X138573359Y-96139000D01*
X138555963Y-96315627D01*
X138555962Y-96315630D01*
X138504444Y-96485465D01*
X138420779Y-96641990D01*
X138308185Y-96779185D01*
X138170990Y-96891779D01*
X138014465Y-96975444D01*
X137882211Y-97015562D01*
X137844627Y-97026963D01*
X137712258Y-97040000D01*
X137623742Y-97040000D01*
X137491373Y-97026963D01*
X137453789Y-97015562D01*
X137321535Y-96975444D01*
X137165010Y-96891779D01*
X137027815Y-96779185D01*
X136915221Y-96641990D01*
X136831556Y-96485465D01*
X136780038Y-96315630D01*
X136780037Y-96315627D01*
X136762641Y-96139000D01*
X136780037Y-95962373D01*
X136795104Y-95912703D01*
X136831556Y-95792535D01*
X136915221Y-95636010D01*
X137027815Y-95498815D01*
X137165010Y-95386221D01*
X137321535Y-95302556D01*
X137491370Y-95251038D01*
X137491373Y-95251037D01*
X137623742Y-95238000D01*
X137712258Y-95238000D01*
X137844627Y-95251037D01*
X137844627Y-95251037D01*
G37*
G36*
X181024627Y-95251037D02*
G01*
X181024630Y-95251038D01*
X181194465Y-95302556D01*
X181350990Y-95386221D01*
X181488185Y-95498815D01*
X181600779Y-95636010D01*
X181684444Y-95792535D01*
X181720896Y-95912703D01*
X181735963Y-95962373D01*
X181753359Y-96139000D01*
X181735963Y-96315627D01*
X181735962Y-96315630D01*
X181684444Y-96485465D01*
X181600779Y-96641990D01*
X181488185Y-96779185D01*
X181350990Y-96891779D01*
X181194465Y-96975444D01*
X181062211Y-97015562D01*
X181024627Y-97026963D01*
X180892258Y-97040000D01*
X180803742Y-97040000D01*
X180671373Y-97026963D01*
X180633789Y-97015562D01*
X180501535Y-96975444D01*
X180345010Y-96891779D01*
X180207815Y-96779185D01*
X180095221Y-96641990D01*
X180011556Y-96485465D01*
X179960038Y-96315630D01*
X179960037Y-96315627D01*
X179942641Y-96139000D01*
X179960037Y-95962373D01*
X179975104Y-95912703D01*
X180011556Y-95792535D01*
X180095221Y-95636010D01*
X180207815Y-95498815D01*
X180345010Y-95386221D01*
X180501535Y-95302556D01*
X180671370Y-95251038D01*
X180671373Y-95251037D01*
X180803742Y-95238000D01*
X180892258Y-95238000D01*
X181024627Y-95251037D01*
X181024627Y-95251037D01*
G37*
G36*
X178484627Y-95251037D02*
G01*
X178484630Y-95251038D01*
X178654465Y-95302556D01*
X178810990Y-95386221D01*
X178948185Y-95498815D01*
X179060779Y-95636010D01*
X179144444Y-95792535D01*
X179180896Y-95912703D01*
X179195963Y-95962373D01*
X179213359Y-96139000D01*
X179195963Y-96315627D01*
X179195962Y-96315630D01*
X179144444Y-96485465D01*
X179060779Y-96641990D01*
X178948185Y-96779185D01*
X178810990Y-96891779D01*
X178654465Y-96975444D01*
X178522211Y-97015562D01*
X178484627Y-97026963D01*
X178352258Y-97040000D01*
X178263742Y-97040000D01*
X178131373Y-97026963D01*
X178093789Y-97015562D01*
X177961535Y-96975444D01*
X177805010Y-96891779D01*
X177667815Y-96779185D01*
X177555221Y-96641990D01*
X177471556Y-96485465D01*
X177420038Y-96315630D01*
X177420037Y-96315627D01*
X177402641Y-96139000D01*
X177420037Y-95962373D01*
X177435104Y-95912703D01*
X177471556Y-95792535D01*
X177555221Y-95636010D01*
X177667815Y-95498815D01*
X177805010Y-95386221D01*
X177961535Y-95302556D01*
X178131370Y-95251038D01*
X178131373Y-95251037D01*
X178263742Y-95238000D01*
X178352258Y-95238000D01*
X178484627Y-95251037D01*
X178484627Y-95251037D01*
G37*
G36*
X156270315Y-95732874D02*
G01*
X155101891Y-96901298D01*
X154605219Y-96404626D01*
X155773643Y-95236202D01*
X156270315Y-95732874D01*
X156270315Y-95732874D01*
G37*
G36*
X152734781Y-96404626D02*
G01*
X152238109Y-96901298D01*
X151069685Y-95732874D01*
X151566357Y-95236202D01*
X152734781Y-96404626D01*
X152734781Y-96404626D01*
G37*
G36*
X155704630Y-95167188D02*
G01*
X154536206Y-96335612D01*
X154039534Y-95838940D01*
X155207958Y-94670516D01*
X155704630Y-95167188D01*
X155704630Y-95167188D01*
G37*
G36*
X153300466Y-95838940D02*
G01*
X152803794Y-96335612D01*
X151635370Y-95167188D01*
X152132042Y-94670516D01*
X153300466Y-95838940D01*
X153300466Y-95838940D01*
G37*
G36*
X158922377Y-94548590D02*
G01*
X158970476Y-94563180D01*
X159014809Y-94586877D01*
X159054637Y-94619563D01*
X159062730Y-94627656D01*
X159062736Y-94627661D01*
X159443513Y-95008438D01*
X159443518Y-95008444D01*
X159451611Y-95016537D01*
X159484297Y-95056365D01*
X159507994Y-95100698D01*
X159522584Y-95148797D01*
X159527512Y-95198827D01*
X159522584Y-95248857D01*
X159507994Y-95296956D01*
X159484297Y-95341289D01*
X159451611Y-95381117D01*
X159443518Y-95389210D01*
X159443513Y-95389216D01*
X158762216Y-96070513D01*
X158762210Y-96070518D01*
X158754117Y-96078611D01*
X158714289Y-96111297D01*
X158669956Y-96134994D01*
X158621857Y-96149584D01*
X158571827Y-96154512D01*
X158521797Y-96149584D01*
X158473698Y-96134994D01*
X158429365Y-96111297D01*
X158389537Y-96078611D01*
X158381444Y-96070518D01*
X158381438Y-96070513D01*
X158000661Y-95689736D01*
X158000656Y-95689730D01*
X157992563Y-95681637D01*
X157959877Y-95641809D01*
X157936180Y-95597476D01*
X157921590Y-95549377D01*
X157916662Y-95499347D01*
X157921590Y-95449317D01*
X157936180Y-95401218D01*
X157959877Y-95356885D01*
X157992563Y-95317057D01*
X158000656Y-95308964D01*
X158000661Y-95308958D01*
X158681958Y-94627661D01*
X158681964Y-94627656D01*
X158690057Y-94619563D01*
X158729885Y-94586877D01*
X158774218Y-94563180D01*
X158822317Y-94548590D01*
X158872347Y-94543662D01*
X158922377Y-94548590D01*
X158922377Y-94548590D01*
G37*
G36*
X181024627Y-92711037D02*
G01*
X181024630Y-92711038D01*
X181194465Y-92762556D01*
X181350990Y-92846221D01*
X181488185Y-92958815D01*
X181600779Y-93096010D01*
X181684444Y-93252535D01*
X181730070Y-93402947D01*
X181735963Y-93422373D01*
X181753359Y-93599000D01*
X181735963Y-93775627D01*
X181735962Y-93775630D01*
X181684444Y-93945465D01*
X181600779Y-94101990D01*
X181488185Y-94239185D01*
X181350990Y-94351779D01*
X181194465Y-94435444D01*
X181044053Y-94481070D01*
X181024627Y-94486963D01*
X180892258Y-94500000D01*
X180803742Y-94500000D01*
X180671373Y-94486963D01*
X180651947Y-94481070D01*
X180501535Y-94435444D01*
X180345010Y-94351779D01*
X180207815Y-94239185D01*
X180095221Y-94101990D01*
X180011556Y-93945465D01*
X179960038Y-93775630D01*
X179960037Y-93775627D01*
X179942641Y-93599000D01*
X179960037Y-93422373D01*
X179965930Y-93402947D01*
X180011556Y-93252535D01*
X180095221Y-93096010D01*
X180207815Y-92958815D01*
X180345010Y-92846221D01*
X180501535Y-92762556D01*
X180671370Y-92711038D01*
X180671373Y-92711037D01*
X180803742Y-92698000D01*
X180892258Y-92698000D01*
X181024627Y-92711037D01*
X181024627Y-92711037D01*
G37*
G36*
X178484627Y-92711037D02*
G01*
X178484630Y-92711038D01*
X178654465Y-92762556D01*
X178810990Y-92846221D01*
X178948185Y-92958815D01*
X179060779Y-93096010D01*
X179144444Y-93252535D01*
X179190070Y-93402947D01*
X179195963Y-93422373D01*
X179213359Y-93599000D01*
X179195963Y-93775627D01*
X179195962Y-93775630D01*
X179144444Y-93945465D01*
X179060779Y-94101990D01*
X178948185Y-94239185D01*
X178810990Y-94351779D01*
X178654465Y-94435444D01*
X178504053Y-94481070D01*
X178484627Y-94486963D01*
X178352258Y-94500000D01*
X178263742Y-94500000D01*
X178131373Y-94486963D01*
X178111947Y-94481070D01*
X177961535Y-94435444D01*
X177805010Y-94351779D01*
X177667815Y-94239185D01*
X177555221Y-94101990D01*
X177471556Y-93945465D01*
X177420038Y-93775630D01*
X177420037Y-93775627D01*
X177402641Y-93599000D01*
X177420037Y-93422373D01*
X177425930Y-93402947D01*
X177471556Y-93252535D01*
X177555221Y-93096010D01*
X177667815Y-92958815D01*
X177805010Y-92846221D01*
X177961535Y-92762556D01*
X178131370Y-92711038D01*
X178131373Y-92711037D01*
X178263742Y-92698000D01*
X178352258Y-92698000D01*
X178484627Y-92711037D01*
X178484627Y-92711037D01*
G37*
G36*
X135304627Y-92711037D02*
G01*
X135304630Y-92711038D01*
X135474465Y-92762556D01*
X135630990Y-92846221D01*
X135768185Y-92958815D01*
X135880779Y-93096010D01*
X135964444Y-93252535D01*
X136010070Y-93402947D01*
X136015963Y-93422373D01*
X136033359Y-93599000D01*
X136015963Y-93775627D01*
X136015962Y-93775630D01*
X135964444Y-93945465D01*
X135880779Y-94101990D01*
X135768185Y-94239185D01*
X135630990Y-94351779D01*
X135474465Y-94435444D01*
X135324053Y-94481070D01*
X135304627Y-94486963D01*
X135172258Y-94500000D01*
X135083742Y-94500000D01*
X134951373Y-94486963D01*
X134931947Y-94481070D01*
X134781535Y-94435444D01*
X134625010Y-94351779D01*
X134487815Y-94239185D01*
X134375221Y-94101990D01*
X134291556Y-93945465D01*
X134240038Y-93775630D01*
X134240037Y-93775627D01*
X134222641Y-93599000D01*
X134240037Y-93422373D01*
X134245930Y-93402947D01*
X134291556Y-93252535D01*
X134375221Y-93096010D01*
X134487815Y-92958815D01*
X134625010Y-92846221D01*
X134781535Y-92762556D01*
X134951370Y-92711038D01*
X134951373Y-92711037D01*
X135083742Y-92698000D01*
X135172258Y-92698000D01*
X135304627Y-92711037D01*
X135304627Y-92711037D01*
G37*
G36*
X137844627Y-92711037D02*
G01*
X137844630Y-92711038D01*
X138014465Y-92762556D01*
X138170990Y-92846221D01*
X138308185Y-92958815D01*
X138420779Y-93096010D01*
X138504444Y-93252535D01*
X138550070Y-93402947D01*
X138555963Y-93422373D01*
X138573359Y-93599000D01*
X138555963Y-93775627D01*
X138555962Y-93775630D01*
X138504444Y-93945465D01*
X138420779Y-94101990D01*
X138308185Y-94239185D01*
X138170990Y-94351779D01*
X138014465Y-94435444D01*
X137864053Y-94481070D01*
X137844627Y-94486963D01*
X137712258Y-94500000D01*
X137623742Y-94500000D01*
X137491373Y-94486963D01*
X137471947Y-94481070D01*
X137321535Y-94435444D01*
X137165010Y-94351779D01*
X137027815Y-94239185D01*
X136915221Y-94101990D01*
X136831556Y-93945465D01*
X136780038Y-93775630D01*
X136780037Y-93775627D01*
X136762641Y-93599000D01*
X136780037Y-93422373D01*
X136785930Y-93402947D01*
X136831556Y-93252535D01*
X136915221Y-93096010D01*
X137027815Y-92958815D01*
X137165010Y-92846221D01*
X137321535Y-92762556D01*
X137491370Y-92711038D01*
X137491373Y-92711037D01*
X137623742Y-92698000D01*
X137712258Y-92698000D01*
X137844627Y-92711037D01*
X137844627Y-92711037D01*
G37*
G36*
X164183571Y-91069233D02*
G01*
X162697233Y-92555571D01*
X158736021Y-88594359D01*
X160222359Y-87108021D01*
X164183571Y-91069233D01*
X164183571Y-91069233D01*
G37*
G36*
X137844627Y-90171037D02*
G01*
X137844630Y-90171038D01*
X138014465Y-90222556D01*
X138170990Y-90306221D01*
X138308185Y-90418815D01*
X138420779Y-90556010D01*
X138504444Y-90712535D01*
X138550070Y-90862947D01*
X138555963Y-90882373D01*
X138573359Y-91059000D01*
X138555963Y-91235627D01*
X138555962Y-91235630D01*
X138504444Y-91405465D01*
X138420779Y-91561990D01*
X138308185Y-91699185D01*
X138170990Y-91811779D01*
X138014465Y-91895444D01*
X137864053Y-91941070D01*
X137844627Y-91946963D01*
X137712258Y-91960000D01*
X137623742Y-91960000D01*
X137491373Y-91946963D01*
X137471947Y-91941070D01*
X137321535Y-91895444D01*
X137165010Y-91811779D01*
X137027815Y-91699185D01*
X136915221Y-91561990D01*
X136831556Y-91405465D01*
X136780038Y-91235630D01*
X136780037Y-91235627D01*
X136762641Y-91059000D01*
X136780037Y-90882373D01*
X136785930Y-90862947D01*
X136831556Y-90712535D01*
X136915221Y-90556010D01*
X137027815Y-90418815D01*
X137165010Y-90306221D01*
X137321535Y-90222556D01*
X137491370Y-90171038D01*
X137491373Y-90171037D01*
X137623742Y-90158000D01*
X137712258Y-90158000D01*
X137844627Y-90171037D01*
X137844627Y-90171037D01*
G37*
G36*
X178484627Y-90171037D02*
G01*
X178484630Y-90171038D01*
X178654465Y-90222556D01*
X178810990Y-90306221D01*
X178948185Y-90418815D01*
X179060779Y-90556010D01*
X179144444Y-90712535D01*
X179190070Y-90862947D01*
X179195963Y-90882373D01*
X179213359Y-91059000D01*
X179195963Y-91235627D01*
X179195962Y-91235630D01*
X179144444Y-91405465D01*
X179060779Y-91561990D01*
X178948185Y-91699185D01*
X178810990Y-91811779D01*
X178654465Y-91895444D01*
X178504053Y-91941070D01*
X178484627Y-91946963D01*
X178352258Y-91960000D01*
X178263742Y-91960000D01*
X178131373Y-91946963D01*
X178111947Y-91941070D01*
X177961535Y-91895444D01*
X177805010Y-91811779D01*
X177667815Y-91699185D01*
X177555221Y-91561990D01*
X177471556Y-91405465D01*
X177420038Y-91235630D01*
X177420037Y-91235627D01*
X177402641Y-91059000D01*
X177420037Y-90882373D01*
X177425930Y-90862947D01*
X177471556Y-90712535D01*
X177555221Y-90556010D01*
X177667815Y-90418815D01*
X177805010Y-90306221D01*
X177961535Y-90222556D01*
X178131370Y-90171038D01*
X178131373Y-90171037D01*
X178263742Y-90158000D01*
X178352258Y-90158000D01*
X178484627Y-90171037D01*
X178484627Y-90171037D01*
G37*
G36*
X135304627Y-90171037D02*
G01*
X135304630Y-90171038D01*
X135474465Y-90222556D01*
X135630990Y-90306221D01*
X135768185Y-90418815D01*
X135880779Y-90556010D01*
X135964444Y-90712535D01*
X136010070Y-90862947D01*
X136015963Y-90882373D01*
X136033359Y-91059000D01*
X136015963Y-91235627D01*
X136015962Y-91235630D01*
X135964444Y-91405465D01*
X135880779Y-91561990D01*
X135768185Y-91699185D01*
X135630990Y-91811779D01*
X135474465Y-91895444D01*
X135324053Y-91941070D01*
X135304627Y-91946963D01*
X135172258Y-91960000D01*
X135083742Y-91960000D01*
X134951373Y-91946963D01*
X134931947Y-91941070D01*
X134781535Y-91895444D01*
X134625010Y-91811779D01*
X134487815Y-91699185D01*
X134375221Y-91561990D01*
X134291556Y-91405465D01*
X134240038Y-91235630D01*
X134240037Y-91235627D01*
X134222641Y-91059000D01*
X134240037Y-90882373D01*
X134245930Y-90862947D01*
X134291556Y-90712535D01*
X134375221Y-90556010D01*
X134487815Y-90418815D01*
X134625010Y-90306221D01*
X134781535Y-90222556D01*
X134951370Y-90171038D01*
X134951373Y-90171037D01*
X135083742Y-90158000D01*
X135172258Y-90158000D01*
X135304627Y-90171037D01*
X135304627Y-90171037D01*
G37*
G36*
X181024627Y-90171037D02*
G01*
X181024630Y-90171038D01*
X181194465Y-90222556D01*
X181350990Y-90306221D01*
X181488185Y-90418815D01*
X181600779Y-90556010D01*
X181684444Y-90712535D01*
X181730070Y-90862947D01*
X181735963Y-90882373D01*
X181753359Y-91059000D01*
X181735963Y-91235627D01*
X181735962Y-91235630D01*
X181684444Y-91405465D01*
X181600779Y-91561990D01*
X181488185Y-91699185D01*
X181350990Y-91811779D01*
X181194465Y-91895444D01*
X181044053Y-91941070D01*
X181024627Y-91946963D01*
X180892258Y-91960000D01*
X180803742Y-91960000D01*
X180671373Y-91946963D01*
X180651947Y-91941070D01*
X180501535Y-91895444D01*
X180345010Y-91811779D01*
X180207815Y-91699185D01*
X180095221Y-91561990D01*
X180011556Y-91405465D01*
X179960038Y-91235630D01*
X179960037Y-91235627D01*
X179942641Y-91059000D01*
X179960037Y-90882373D01*
X179965930Y-90862947D01*
X180011556Y-90712535D01*
X180095221Y-90556010D01*
X180207815Y-90418815D01*
X180345010Y-90306221D01*
X180501535Y-90222556D01*
X180671370Y-90171038D01*
X180671373Y-90171037D01*
X180803742Y-90158000D01*
X180892258Y-90158000D01*
X181024627Y-90171037D01*
X181024627Y-90171037D01*
G37*
G36*
X168781857Y-89524416D02*
G01*
X168829956Y-89539006D01*
X168874289Y-89562703D01*
X168914117Y-89595389D01*
X168922210Y-89603482D01*
X168922216Y-89603487D01*
X169603513Y-90284784D01*
X169603518Y-90284790D01*
X169611611Y-90292883D01*
X169644297Y-90332711D01*
X169667994Y-90377044D01*
X169682584Y-90425143D01*
X169687512Y-90475173D01*
X169682584Y-90525203D01*
X169667994Y-90573302D01*
X169644297Y-90617635D01*
X169611611Y-90657463D01*
X169603518Y-90665556D01*
X169603513Y-90665562D01*
X169222736Y-91046339D01*
X169222730Y-91046344D01*
X169214637Y-91054437D01*
X169174809Y-91087123D01*
X169130476Y-91110820D01*
X169082377Y-91125410D01*
X169032347Y-91130338D01*
X168982317Y-91125410D01*
X168934218Y-91110820D01*
X168889885Y-91087123D01*
X168850057Y-91054437D01*
X168841964Y-91046344D01*
X168841958Y-91046339D01*
X168160661Y-90365042D01*
X168160656Y-90365036D01*
X168152563Y-90356943D01*
X168119877Y-90317115D01*
X168096180Y-90272782D01*
X168081590Y-90224683D01*
X168076662Y-90174653D01*
X168081590Y-90124623D01*
X168096180Y-90076524D01*
X168119877Y-90032191D01*
X168152563Y-89992363D01*
X168160656Y-89984270D01*
X168160661Y-89984264D01*
X168541438Y-89603487D01*
X168541444Y-89603482D01*
X168549537Y-89595389D01*
X168589365Y-89562703D01*
X168633698Y-89539006D01*
X168681797Y-89524416D01*
X168731827Y-89519488D01*
X168781857Y-89524416D01*
X168781857Y-89524416D01*
G37*
G36*
X170107683Y-88198590D02*
G01*
X170155782Y-88213180D01*
X170200115Y-88236877D01*
X170239943Y-88269563D01*
X170248036Y-88277656D01*
X170248042Y-88277661D01*
X170929339Y-88958958D01*
X170929344Y-88958964D01*
X170937437Y-88967057D01*
X170970123Y-89006885D01*
X170993820Y-89051218D01*
X171008410Y-89099317D01*
X171013338Y-89149347D01*
X171008410Y-89199377D01*
X170993820Y-89247476D01*
X170970123Y-89291809D01*
X170937437Y-89331637D01*
X170929344Y-89339730D01*
X170929339Y-89339736D01*
X170548562Y-89720513D01*
X170548556Y-89720518D01*
X170540463Y-89728611D01*
X170500635Y-89761297D01*
X170456302Y-89784994D01*
X170408203Y-89799584D01*
X170358173Y-89804512D01*
X170308143Y-89799584D01*
X170260044Y-89784994D01*
X170215711Y-89761297D01*
X170175883Y-89728611D01*
X170167790Y-89720518D01*
X170167784Y-89720513D01*
X169486487Y-89039216D01*
X169486482Y-89039210D01*
X169478389Y-89031117D01*
X169445703Y-88991289D01*
X169422006Y-88946956D01*
X169407416Y-88898857D01*
X169402488Y-88848827D01*
X169407416Y-88798797D01*
X169422006Y-88750698D01*
X169445703Y-88706365D01*
X169478389Y-88666537D01*
X169486482Y-88658444D01*
X169486487Y-88658438D01*
X169867264Y-88277661D01*
X169867270Y-88277656D01*
X169875363Y-88269563D01*
X169915191Y-88236877D01*
X169959524Y-88213180D01*
X170007623Y-88198590D01*
X170057653Y-88193662D01*
X170107683Y-88198590D01*
X170107683Y-88198590D01*
G37*
G36*
X137844627Y-87631037D02*
G01*
X137844630Y-87631038D01*
X138014465Y-87682556D01*
X138170990Y-87766221D01*
X138308185Y-87878815D01*
X138420779Y-88016010D01*
X138504444Y-88172535D01*
X138536333Y-88277661D01*
X138555963Y-88342373D01*
X138573359Y-88519000D01*
X138555963Y-88695627D01*
X138555962Y-88695630D01*
X138504444Y-88865465D01*
X138420779Y-89021990D01*
X138308185Y-89159185D01*
X138170990Y-89271779D01*
X138014465Y-89355444D01*
X137864053Y-89401070D01*
X137844627Y-89406963D01*
X137712258Y-89420000D01*
X137623742Y-89420000D01*
X137491373Y-89406963D01*
X137471947Y-89401070D01*
X137321535Y-89355444D01*
X137165010Y-89271779D01*
X137027815Y-89159185D01*
X136915221Y-89021990D01*
X136831556Y-88865465D01*
X136780038Y-88695630D01*
X136780037Y-88695627D01*
X136762641Y-88519000D01*
X136780037Y-88342373D01*
X136799667Y-88277661D01*
X136831556Y-88172535D01*
X136915221Y-88016010D01*
X137027815Y-87878815D01*
X137165010Y-87766221D01*
X137321535Y-87682556D01*
X137491370Y-87631038D01*
X137491373Y-87631037D01*
X137623742Y-87618000D01*
X137712258Y-87618000D01*
X137844627Y-87631037D01*
X137844627Y-87631037D01*
G37*
G36*
X178484627Y-87631037D02*
G01*
X178484630Y-87631038D01*
X178654465Y-87682556D01*
X178810990Y-87766221D01*
X178948185Y-87878815D01*
X179060779Y-88016010D01*
X179144444Y-88172535D01*
X179176333Y-88277661D01*
X179195963Y-88342373D01*
X179213359Y-88519000D01*
X179195963Y-88695627D01*
X179195962Y-88695630D01*
X179144444Y-88865465D01*
X179060779Y-89021990D01*
X178948185Y-89159185D01*
X178810990Y-89271779D01*
X178654465Y-89355444D01*
X178504053Y-89401070D01*
X178484627Y-89406963D01*
X178352258Y-89420000D01*
X178263742Y-89420000D01*
X178131373Y-89406963D01*
X178111947Y-89401070D01*
X177961535Y-89355444D01*
X177805010Y-89271779D01*
X177667815Y-89159185D01*
X177555221Y-89021990D01*
X177471556Y-88865465D01*
X177420038Y-88695630D01*
X177420037Y-88695627D01*
X177402641Y-88519000D01*
X177420037Y-88342373D01*
X177439667Y-88277661D01*
X177471556Y-88172535D01*
X177555221Y-88016010D01*
X177667815Y-87878815D01*
X177805010Y-87766221D01*
X177961535Y-87682556D01*
X178131370Y-87631038D01*
X178131373Y-87631037D01*
X178263742Y-87618000D01*
X178352258Y-87618000D01*
X178484627Y-87631037D01*
X178484627Y-87631037D01*
G37*
G36*
X181024627Y-87631037D02*
G01*
X181024630Y-87631038D01*
X181194465Y-87682556D01*
X181350990Y-87766221D01*
X181488185Y-87878815D01*
X181600779Y-88016010D01*
X181684444Y-88172535D01*
X181716333Y-88277661D01*
X181735963Y-88342373D01*
X181753359Y-88519000D01*
X181735963Y-88695627D01*
X181735962Y-88695630D01*
X181684444Y-88865465D01*
X181600779Y-89021990D01*
X181488185Y-89159185D01*
X181350990Y-89271779D01*
X181194465Y-89355444D01*
X181044053Y-89401070D01*
X181024627Y-89406963D01*
X180892258Y-89420000D01*
X180803742Y-89420000D01*
X180671373Y-89406963D01*
X180651947Y-89401070D01*
X180501535Y-89355444D01*
X180345010Y-89271779D01*
X180207815Y-89159185D01*
X180095221Y-89021990D01*
X180011556Y-88865465D01*
X179960038Y-88695630D01*
X179960037Y-88695627D01*
X179942641Y-88519000D01*
X179960037Y-88342373D01*
X179979667Y-88277661D01*
X180011556Y-88172535D01*
X180095221Y-88016010D01*
X180207815Y-87878815D01*
X180345010Y-87766221D01*
X180501535Y-87682556D01*
X180671370Y-87631038D01*
X180671373Y-87631037D01*
X180803742Y-87618000D01*
X180892258Y-87618000D01*
X181024627Y-87631037D01*
X181024627Y-87631037D01*
G37*
G36*
X135304627Y-87631037D02*
G01*
X135304630Y-87631038D01*
X135474465Y-87682556D01*
X135630990Y-87766221D01*
X135768185Y-87878815D01*
X135880779Y-88016010D01*
X135964444Y-88172535D01*
X135996333Y-88277661D01*
X136015963Y-88342373D01*
X136033359Y-88519000D01*
X136015963Y-88695627D01*
X136015962Y-88695630D01*
X135964444Y-88865465D01*
X135880779Y-89021990D01*
X135768185Y-89159185D01*
X135630990Y-89271779D01*
X135474465Y-89355444D01*
X135324053Y-89401070D01*
X135304627Y-89406963D01*
X135172258Y-89420000D01*
X135083742Y-89420000D01*
X134951373Y-89406963D01*
X134931947Y-89401070D01*
X134781535Y-89355444D01*
X134625010Y-89271779D01*
X134487815Y-89159185D01*
X134375221Y-89021990D01*
X134291556Y-88865465D01*
X134240038Y-88695630D01*
X134240037Y-88695627D01*
X134222641Y-88519000D01*
X134240037Y-88342373D01*
X134259667Y-88277661D01*
X134291556Y-88172535D01*
X134375221Y-88016010D01*
X134487815Y-87878815D01*
X134625010Y-87766221D01*
X134781535Y-87682556D01*
X134951370Y-87631038D01*
X134951373Y-87631037D01*
X135083742Y-87618000D01*
X135172258Y-87618000D01*
X135304627Y-87631037D01*
X135304627Y-87631037D01*
G37*
G36*
X165606857Y-86349416D02*
G01*
X165654956Y-86364006D01*
X165699289Y-86387703D01*
X165739117Y-86420389D01*
X165747210Y-86428482D01*
X165747216Y-86428487D01*
X166428513Y-87109784D01*
X166428518Y-87109790D01*
X166436611Y-87117883D01*
X166469297Y-87157711D01*
X166492994Y-87202044D01*
X166507584Y-87250143D01*
X166512512Y-87300173D01*
X166507584Y-87350203D01*
X166492994Y-87398302D01*
X166469297Y-87442635D01*
X166436611Y-87482463D01*
X166428518Y-87490556D01*
X166428513Y-87490562D01*
X166047736Y-87871339D01*
X166047730Y-87871344D01*
X166039637Y-87879437D01*
X165999809Y-87912123D01*
X165955476Y-87935820D01*
X165907377Y-87950410D01*
X165857347Y-87955338D01*
X165807317Y-87950410D01*
X165759218Y-87935820D01*
X165714885Y-87912123D01*
X165675057Y-87879437D01*
X165666964Y-87871344D01*
X165666958Y-87871339D01*
X164985661Y-87190042D01*
X164985656Y-87190036D01*
X164977563Y-87181943D01*
X164944877Y-87142115D01*
X164921180Y-87097782D01*
X164906590Y-87049683D01*
X164901662Y-86999653D01*
X164906590Y-86949623D01*
X164921180Y-86901524D01*
X164944877Y-86857191D01*
X164977563Y-86817363D01*
X164985656Y-86809270D01*
X164985661Y-86809264D01*
X165366438Y-86428487D01*
X165366444Y-86428482D01*
X165374537Y-86420389D01*
X165414365Y-86387703D01*
X165458698Y-86364006D01*
X165506797Y-86349416D01*
X165556827Y-86344488D01*
X165606857Y-86349416D01*
X165606857Y-86349416D01*
G37*
G36*
X181024627Y-85091037D02*
G01*
X181024630Y-85091038D01*
X181194465Y-85142556D01*
X181350990Y-85226221D01*
X181488185Y-85338815D01*
X181600779Y-85476010D01*
X181684444Y-85632535D01*
X181712903Y-85726355D01*
X181735963Y-85802373D01*
X181753359Y-85979000D01*
X181735963Y-86155627D01*
X181735962Y-86155630D01*
X181684444Y-86325465D01*
X181600779Y-86481990D01*
X181488185Y-86619185D01*
X181350990Y-86731779D01*
X181194465Y-86815444D01*
X181056841Y-86857191D01*
X181024627Y-86866963D01*
X180892258Y-86880000D01*
X180803742Y-86880000D01*
X180671373Y-86866963D01*
X180639159Y-86857191D01*
X180501535Y-86815444D01*
X180345010Y-86731779D01*
X180207815Y-86619185D01*
X180095221Y-86481990D01*
X180011556Y-86325465D01*
X179960038Y-86155630D01*
X179960037Y-86155627D01*
X179942641Y-85979000D01*
X179960037Y-85802373D01*
X179983097Y-85726355D01*
X180011556Y-85632535D01*
X180095221Y-85476010D01*
X180207815Y-85338815D01*
X180345010Y-85226221D01*
X180501535Y-85142556D01*
X180671370Y-85091038D01*
X180671373Y-85091037D01*
X180803742Y-85078000D01*
X180892258Y-85078000D01*
X181024627Y-85091037D01*
X181024627Y-85091037D01*
G37*
G36*
X137844627Y-85091037D02*
G01*
X137844630Y-85091038D01*
X138014465Y-85142556D01*
X138170990Y-85226221D01*
X138308185Y-85338815D01*
X138420779Y-85476010D01*
X138504444Y-85632535D01*
X138532903Y-85726355D01*
X138555963Y-85802373D01*
X138573359Y-85979000D01*
X138555963Y-86155627D01*
X138555962Y-86155630D01*
X138504444Y-86325465D01*
X138420779Y-86481990D01*
X138308185Y-86619185D01*
X138170990Y-86731779D01*
X138014465Y-86815444D01*
X137876841Y-86857191D01*
X137844627Y-86866963D01*
X137712258Y-86880000D01*
X137623742Y-86880000D01*
X137491373Y-86866963D01*
X137459159Y-86857191D01*
X137321535Y-86815444D01*
X137165010Y-86731779D01*
X137027815Y-86619185D01*
X136915221Y-86481990D01*
X136831556Y-86325465D01*
X136780038Y-86155630D01*
X136780037Y-86155627D01*
X136762641Y-85979000D01*
X136780037Y-85802373D01*
X136803097Y-85726355D01*
X136831556Y-85632535D01*
X136915221Y-85476010D01*
X137027815Y-85338815D01*
X137165010Y-85226221D01*
X137321535Y-85142556D01*
X137491370Y-85091038D01*
X137491373Y-85091037D01*
X137623742Y-85078000D01*
X137712258Y-85078000D01*
X137844627Y-85091037D01*
X137844627Y-85091037D01*
G37*
G36*
X135304627Y-85091037D02*
G01*
X135304630Y-85091038D01*
X135474465Y-85142556D01*
X135630990Y-85226221D01*
X135768185Y-85338815D01*
X135880779Y-85476010D01*
X135964444Y-85632535D01*
X135992903Y-85726355D01*
X136015963Y-85802373D01*
X136033359Y-85979000D01*
X136015963Y-86155627D01*
X136015962Y-86155630D01*
X135964444Y-86325465D01*
X135880779Y-86481990D01*
X135768185Y-86619185D01*
X135630990Y-86731779D01*
X135474465Y-86815444D01*
X135336841Y-86857191D01*
X135304627Y-86866963D01*
X135172258Y-86880000D01*
X135083742Y-86880000D01*
X134951373Y-86866963D01*
X134919159Y-86857191D01*
X134781535Y-86815444D01*
X134625010Y-86731779D01*
X134487815Y-86619185D01*
X134375221Y-86481990D01*
X134291556Y-86325465D01*
X134240038Y-86155630D01*
X134240037Y-86155627D01*
X134222641Y-85979000D01*
X134240037Y-85802373D01*
X134263097Y-85726355D01*
X134291556Y-85632535D01*
X134375221Y-85476010D01*
X134487815Y-85338815D01*
X134625010Y-85226221D01*
X134781535Y-85142556D01*
X134951370Y-85091038D01*
X134951373Y-85091037D01*
X135083742Y-85078000D01*
X135172258Y-85078000D01*
X135304627Y-85091037D01*
X135304627Y-85091037D01*
G37*
G36*
X178484627Y-85091037D02*
G01*
X178484630Y-85091038D01*
X178654465Y-85142556D01*
X178810990Y-85226221D01*
X178948185Y-85338815D01*
X179060779Y-85476010D01*
X179144444Y-85632535D01*
X179172903Y-85726355D01*
X179195963Y-85802373D01*
X179213359Y-85979000D01*
X179195963Y-86155627D01*
X179195962Y-86155630D01*
X179144444Y-86325465D01*
X179060779Y-86481990D01*
X178948185Y-86619185D01*
X178810990Y-86731779D01*
X178654465Y-86815444D01*
X178516841Y-86857191D01*
X178484627Y-86866963D01*
X178352258Y-86880000D01*
X178263742Y-86880000D01*
X178131373Y-86866963D01*
X178099159Y-86857191D01*
X177961535Y-86815444D01*
X177805010Y-86731779D01*
X177667815Y-86619185D01*
X177555221Y-86481990D01*
X177471556Y-86325465D01*
X177420038Y-86155630D01*
X177420037Y-86155627D01*
X177402641Y-85979000D01*
X177420037Y-85802373D01*
X177443097Y-85726355D01*
X177471556Y-85632535D01*
X177555221Y-85476010D01*
X177667815Y-85338815D01*
X177805010Y-85226221D01*
X177961535Y-85142556D01*
X178131370Y-85091038D01*
X178131373Y-85091037D01*
X178263742Y-85078000D01*
X178352258Y-85078000D01*
X178484627Y-85091037D01*
X178484627Y-85091037D01*
G37*
G36*
X166932683Y-85023590D02*
G01*
X166980782Y-85038180D01*
X167025115Y-85061877D01*
X167064943Y-85094563D01*
X167073036Y-85102656D01*
X167073042Y-85102661D01*
X167754339Y-85783958D01*
X167754344Y-85783964D01*
X167762437Y-85792057D01*
X167795123Y-85831885D01*
X167818820Y-85876218D01*
X167833410Y-85924317D01*
X167838338Y-85974347D01*
X167833410Y-86024377D01*
X167818820Y-86072476D01*
X167795123Y-86116809D01*
X167762437Y-86156637D01*
X167754344Y-86164730D01*
X167754339Y-86164736D01*
X167373562Y-86545513D01*
X167373556Y-86545518D01*
X167365463Y-86553611D01*
X167325635Y-86586297D01*
X167281302Y-86609994D01*
X167233203Y-86624584D01*
X167183173Y-86629512D01*
X167133143Y-86624584D01*
X167085044Y-86609994D01*
X167040711Y-86586297D01*
X167000883Y-86553611D01*
X166992790Y-86545518D01*
X166992784Y-86545513D01*
X166311487Y-85864216D01*
X166311482Y-85864210D01*
X166303389Y-85856117D01*
X166270703Y-85816289D01*
X166247006Y-85771956D01*
X166232416Y-85723857D01*
X166227488Y-85673827D01*
X166232416Y-85623797D01*
X166247006Y-85575698D01*
X166270703Y-85531365D01*
X166303389Y-85491537D01*
X166311482Y-85483444D01*
X166311487Y-85483438D01*
X166692264Y-85102661D01*
X166692270Y-85102656D01*
X166700363Y-85094563D01*
X166740191Y-85061877D01*
X166784524Y-85038180D01*
X166832623Y-85023590D01*
X166882653Y-85018662D01*
X166932683Y-85023590D01*
X166932683Y-85023590D01*
G37*
G36*
X137844627Y-82551037D02*
G01*
X137844630Y-82551038D01*
X138014465Y-82602556D01*
X138170990Y-82686221D01*
X138308185Y-82798815D01*
X138420779Y-82936010D01*
X138504444Y-83092535D01*
X138550070Y-83242947D01*
X138555963Y-83262373D01*
X138573359Y-83439000D01*
X138555963Y-83615627D01*
X138555962Y-83615630D01*
X138504444Y-83785465D01*
X138420779Y-83941990D01*
X138308185Y-84079185D01*
X138170990Y-84191779D01*
X138014465Y-84275444D01*
X137864053Y-84321070D01*
X137844627Y-84326963D01*
X137712258Y-84340000D01*
X137623742Y-84340000D01*
X137491373Y-84326963D01*
X137471947Y-84321070D01*
X137321535Y-84275444D01*
X137165010Y-84191779D01*
X137027815Y-84079185D01*
X136915221Y-83941990D01*
X136831556Y-83785465D01*
X136780038Y-83615630D01*
X136780037Y-83615627D01*
X136762641Y-83439000D01*
X136780037Y-83262373D01*
X136785930Y-83242947D01*
X136831556Y-83092535D01*
X136915221Y-82936010D01*
X137027815Y-82798815D01*
X137165010Y-82686221D01*
X137321535Y-82602556D01*
X137491370Y-82551038D01*
X137491373Y-82551037D01*
X137623742Y-82538000D01*
X137712258Y-82538000D01*
X137844627Y-82551037D01*
X137844627Y-82551037D01*
G37*
G36*
X181024627Y-82551037D02*
G01*
X181024630Y-82551038D01*
X181194465Y-82602556D01*
X181350990Y-82686221D01*
X181488185Y-82798815D01*
X181600779Y-82936010D01*
X181684444Y-83092535D01*
X181730070Y-83242947D01*
X181735963Y-83262373D01*
X181753359Y-83439000D01*
X181735963Y-83615627D01*
X181735962Y-83615630D01*
X181684444Y-83785465D01*
X181600779Y-83941990D01*
X181488185Y-84079185D01*
X181350990Y-84191779D01*
X181194465Y-84275444D01*
X181044053Y-84321070D01*
X181024627Y-84326963D01*
X180892258Y-84340000D01*
X180803742Y-84340000D01*
X180671373Y-84326963D01*
X180651947Y-84321070D01*
X180501535Y-84275444D01*
X180345010Y-84191779D01*
X180207815Y-84079185D01*
X180095221Y-83941990D01*
X180011556Y-83785465D01*
X179960038Y-83615630D01*
X179960037Y-83615627D01*
X179942641Y-83439000D01*
X179960037Y-83262373D01*
X179965930Y-83242947D01*
X180011556Y-83092535D01*
X180095221Y-82936010D01*
X180207815Y-82798815D01*
X180345010Y-82686221D01*
X180501535Y-82602556D01*
X180671370Y-82551038D01*
X180671373Y-82551037D01*
X180803742Y-82538000D01*
X180892258Y-82538000D01*
X181024627Y-82551037D01*
X181024627Y-82551037D01*
G37*
G36*
X178484627Y-82551037D02*
G01*
X178484630Y-82551038D01*
X178654465Y-82602556D01*
X178810990Y-82686221D01*
X178948185Y-82798815D01*
X179060779Y-82936010D01*
X179144444Y-83092535D01*
X179190070Y-83242947D01*
X179195963Y-83262373D01*
X179213359Y-83439000D01*
X179195963Y-83615627D01*
X179195962Y-83615630D01*
X179144444Y-83785465D01*
X179060779Y-83941990D01*
X178948185Y-84079185D01*
X178810990Y-84191779D01*
X178654465Y-84275444D01*
X178504053Y-84321070D01*
X178484627Y-84326963D01*
X178352258Y-84340000D01*
X178263742Y-84340000D01*
X178131373Y-84326963D01*
X178111947Y-84321070D01*
X177961535Y-84275444D01*
X177805010Y-84191779D01*
X177667815Y-84079185D01*
X177555221Y-83941990D01*
X177471556Y-83785465D01*
X177420038Y-83615630D01*
X177420037Y-83615627D01*
X177402641Y-83439000D01*
X177420037Y-83262373D01*
X177425930Y-83242947D01*
X177471556Y-83092535D01*
X177555221Y-82936010D01*
X177667815Y-82798815D01*
X177805010Y-82686221D01*
X177961535Y-82602556D01*
X178131370Y-82551038D01*
X178131373Y-82551037D01*
X178263742Y-82538000D01*
X178352258Y-82538000D01*
X178484627Y-82551037D01*
X178484627Y-82551037D01*
G37*
G36*
X136029000Y-84340000D02*
G01*
X134227000Y-84340000D01*
X134227000Y-82538000D01*
X136029000Y-82538000D01*
X136029000Y-84340000D01*
X136029000Y-84340000D01*
G37*
G36*
X180706000Y-79998000D02*
G01*
X178704000Y-79998000D01*
X178704000Y-78296000D01*
X180706000Y-78296000D01*
X180706000Y-79998000D01*
X180706000Y-79998000D01*
G37*
G36*
X137526000Y-79998000D02*
G01*
X135524000Y-79998000D01*
X135524000Y-78296000D01*
X137526000Y-78296000D01*
X137526000Y-79998000D01*
X137526000Y-79998000D01*
G37*
G36*
X165784627Y-77471037D02*
G01*
X165784630Y-77471038D01*
X165954465Y-77522556D01*
X166110990Y-77606221D01*
X166248185Y-77718815D01*
X166360779Y-77856010D01*
X166444444Y-78012535D01*
X166490070Y-78162947D01*
X166495963Y-78182373D01*
X166513359Y-78359000D01*
X166495963Y-78535627D01*
X166495962Y-78535630D01*
X166444444Y-78705465D01*
X166360779Y-78861990D01*
X166248185Y-78999185D01*
X166110990Y-79111779D01*
X165954465Y-79195444D01*
X165804053Y-79241070D01*
X165784627Y-79246963D01*
X165652258Y-79260000D01*
X165563742Y-79260000D01*
X165431373Y-79246963D01*
X165411947Y-79241070D01*
X165261535Y-79195444D01*
X165105010Y-79111779D01*
X164967815Y-78999185D01*
X164855221Y-78861990D01*
X164771556Y-78705465D01*
X164720038Y-78535630D01*
X164720037Y-78535627D01*
X164702641Y-78359000D01*
X164720037Y-78182373D01*
X164725930Y-78162947D01*
X164771556Y-78012535D01*
X164855221Y-77856010D01*
X164967815Y-77718815D01*
X165105010Y-77606221D01*
X165261535Y-77522556D01*
X165431370Y-77471038D01*
X165431373Y-77471037D01*
X165563742Y-77458000D01*
X165652258Y-77458000D01*
X165784627Y-77471037D01*
X165784627Y-77471037D01*
G37*
G36*
X153084627Y-77471037D02*
G01*
X153084630Y-77471038D01*
X153254465Y-77522556D01*
X153410990Y-77606221D01*
X153548185Y-77718815D01*
X153660779Y-77856010D01*
X153744444Y-78012535D01*
X153790070Y-78162947D01*
X153795963Y-78182373D01*
X153813359Y-78359000D01*
X153795963Y-78535627D01*
X153795962Y-78535630D01*
X153744444Y-78705465D01*
X153660779Y-78861990D01*
X153548185Y-78999185D01*
X153410990Y-79111779D01*
X153254465Y-79195444D01*
X153104053Y-79241070D01*
X153084627Y-79246963D01*
X152952258Y-79260000D01*
X152863742Y-79260000D01*
X152731373Y-79246963D01*
X152711947Y-79241070D01*
X152561535Y-79195444D01*
X152405010Y-79111779D01*
X152267815Y-78999185D01*
X152155221Y-78861990D01*
X152071556Y-78705465D01*
X152020038Y-78535630D01*
X152020037Y-78535627D01*
X152002641Y-78359000D01*
X152020037Y-78182373D01*
X152025930Y-78162947D01*
X152071556Y-78012535D01*
X152155221Y-77856010D01*
X152267815Y-77718815D01*
X152405010Y-77606221D01*
X152561535Y-77522556D01*
X152731370Y-77471038D01*
X152731373Y-77471037D01*
X152863742Y-77458000D01*
X152952258Y-77458000D01*
X153084627Y-77471037D01*
X153084627Y-77471037D01*
G37*
G36*
X150544627Y-77471037D02*
G01*
X150544630Y-77471038D01*
X150714465Y-77522556D01*
X150870990Y-77606221D01*
X151008185Y-77718815D01*
X151120779Y-77856010D01*
X151204444Y-78012535D01*
X151250070Y-78162947D01*
X151255963Y-78182373D01*
X151273359Y-78359000D01*
X151255963Y-78535627D01*
X151255962Y-78535630D01*
X151204444Y-78705465D01*
X151120779Y-78861990D01*
X151008185Y-78999185D01*
X150870990Y-79111779D01*
X150714465Y-79195444D01*
X150564053Y-79241070D01*
X150544627Y-79246963D01*
X150412258Y-79260000D01*
X150323742Y-79260000D01*
X150191373Y-79246963D01*
X150171947Y-79241070D01*
X150021535Y-79195444D01*
X149865010Y-79111779D01*
X149727815Y-78999185D01*
X149615221Y-78861990D01*
X149531556Y-78705465D01*
X149480038Y-78535630D01*
X149480037Y-78535627D01*
X149462641Y-78359000D01*
X149480037Y-78182373D01*
X149485930Y-78162947D01*
X149531556Y-78012535D01*
X149615221Y-77856010D01*
X149727815Y-77718815D01*
X149865010Y-77606221D01*
X150021535Y-77522556D01*
X150191370Y-77471038D01*
X150191373Y-77471037D01*
X150323742Y-77458000D01*
X150412258Y-77458000D01*
X150544627Y-77471037D01*
X150544627Y-77471037D01*
G37*
G36*
X155624627Y-77471037D02*
G01*
X155624630Y-77471038D01*
X155794465Y-77522556D01*
X155950990Y-77606221D01*
X156088185Y-77718815D01*
X156200779Y-77856010D01*
X156284444Y-78012535D01*
X156330070Y-78162947D01*
X156335963Y-78182373D01*
X156353359Y-78359000D01*
X156335963Y-78535627D01*
X156335962Y-78535630D01*
X156284444Y-78705465D01*
X156200779Y-78861990D01*
X156088185Y-78999185D01*
X155950990Y-79111779D01*
X155794465Y-79195444D01*
X155644053Y-79241070D01*
X155624627Y-79246963D01*
X155492258Y-79260000D01*
X155403742Y-79260000D01*
X155271373Y-79246963D01*
X155251947Y-79241070D01*
X155101535Y-79195444D01*
X154945010Y-79111779D01*
X154807815Y-78999185D01*
X154695221Y-78861990D01*
X154611556Y-78705465D01*
X154560038Y-78535630D01*
X154560037Y-78535627D01*
X154542641Y-78359000D01*
X154560037Y-78182373D01*
X154565930Y-78162947D01*
X154611556Y-78012535D01*
X154695221Y-77856010D01*
X154807815Y-77718815D01*
X154945010Y-77606221D01*
X155101535Y-77522556D01*
X155271370Y-77471038D01*
X155271373Y-77471037D01*
X155403742Y-77458000D01*
X155492258Y-77458000D01*
X155624627Y-77471037D01*
X155624627Y-77471037D01*
G37*
G36*
X163244627Y-77471037D02*
G01*
X163244630Y-77471038D01*
X163414465Y-77522556D01*
X163570990Y-77606221D01*
X163708185Y-77718815D01*
X163820779Y-77856010D01*
X163904444Y-78012535D01*
X163950070Y-78162947D01*
X163955963Y-78182373D01*
X163973359Y-78359000D01*
X163955963Y-78535627D01*
X163955962Y-78535630D01*
X163904444Y-78705465D01*
X163820779Y-78861990D01*
X163708185Y-78999185D01*
X163570990Y-79111779D01*
X163414465Y-79195444D01*
X163264053Y-79241070D01*
X163244627Y-79246963D01*
X163112258Y-79260000D01*
X163023742Y-79260000D01*
X162891373Y-79246963D01*
X162871947Y-79241070D01*
X162721535Y-79195444D01*
X162565010Y-79111779D01*
X162427815Y-78999185D01*
X162315221Y-78861990D01*
X162231556Y-78705465D01*
X162180038Y-78535630D01*
X162180037Y-78535627D01*
X162162641Y-78359000D01*
X162180037Y-78182373D01*
X162185930Y-78162947D01*
X162231556Y-78012535D01*
X162315221Y-77856010D01*
X162427815Y-77718815D01*
X162565010Y-77606221D01*
X162721535Y-77522556D01*
X162891370Y-77471038D01*
X162891373Y-77471037D01*
X163023742Y-77458000D01*
X163112258Y-77458000D01*
X163244627Y-77471037D01*
X163244627Y-77471037D01*
G37*
G36*
X168324627Y-77471037D02*
G01*
X168324630Y-77471038D01*
X168494465Y-77522556D01*
X168650990Y-77606221D01*
X168788185Y-77718815D01*
X168900779Y-77856010D01*
X168984444Y-78012535D01*
X169030070Y-78162947D01*
X169035963Y-78182373D01*
X169053359Y-78359000D01*
X169035963Y-78535627D01*
X169035962Y-78535630D01*
X168984444Y-78705465D01*
X168900779Y-78861990D01*
X168788185Y-78999185D01*
X168650990Y-79111779D01*
X168494465Y-79195444D01*
X168344053Y-79241070D01*
X168324627Y-79246963D01*
X168192258Y-79260000D01*
X168103742Y-79260000D01*
X167971373Y-79246963D01*
X167951947Y-79241070D01*
X167801535Y-79195444D01*
X167645010Y-79111779D01*
X167507815Y-78999185D01*
X167395221Y-78861990D01*
X167311556Y-78705465D01*
X167260038Y-78535630D01*
X167260037Y-78535627D01*
X167242641Y-78359000D01*
X167260037Y-78182373D01*
X167265930Y-78162947D01*
X167311556Y-78012535D01*
X167395221Y-77856010D01*
X167507815Y-77718815D01*
X167645010Y-77606221D01*
X167801535Y-77522556D01*
X167971370Y-77471038D01*
X167971373Y-77471037D01*
X168103742Y-77458000D01*
X168192258Y-77458000D01*
X168324627Y-77471037D01*
X168324627Y-77471037D01*
G37*
G36*
X143649000Y-79260000D02*
G01*
X141847000Y-79260000D01*
X141847000Y-77458000D01*
X143649000Y-77458000D01*
X143649000Y-79260000D01*
X143649000Y-79260000D01*
G37*
G36*
X170864627Y-77471037D02*
G01*
X170864630Y-77471038D01*
X171034465Y-77522556D01*
X171190990Y-77606221D01*
X171328185Y-77718815D01*
X171440779Y-77856010D01*
X171524444Y-78012535D01*
X171570070Y-78162947D01*
X171575963Y-78182373D01*
X171593359Y-78359000D01*
X171575963Y-78535627D01*
X171575962Y-78535630D01*
X171524444Y-78705465D01*
X171440779Y-78861990D01*
X171328185Y-78999185D01*
X171190990Y-79111779D01*
X171034465Y-79195444D01*
X170884053Y-79241070D01*
X170864627Y-79246963D01*
X170732258Y-79260000D01*
X170643742Y-79260000D01*
X170511373Y-79246963D01*
X170491947Y-79241070D01*
X170341535Y-79195444D01*
X170185010Y-79111779D01*
X170047815Y-78999185D01*
X169935221Y-78861990D01*
X169851556Y-78705465D01*
X169800038Y-78535630D01*
X169800037Y-78535627D01*
X169782641Y-78359000D01*
X169800037Y-78182373D01*
X169805930Y-78162947D01*
X169851556Y-78012535D01*
X169935221Y-77856010D01*
X170047815Y-77718815D01*
X170185010Y-77606221D01*
X170341535Y-77522556D01*
X170511370Y-77471038D01*
X170511373Y-77471037D01*
X170643742Y-77458000D01*
X170732258Y-77458000D01*
X170864627Y-77471037D01*
X170864627Y-77471037D01*
G37*
G36*
X173404627Y-77471037D02*
G01*
X173404630Y-77471038D01*
X173574465Y-77522556D01*
X173730990Y-77606221D01*
X173868185Y-77718815D01*
X173980779Y-77856010D01*
X174064444Y-78012535D01*
X174110070Y-78162947D01*
X174115963Y-78182373D01*
X174133359Y-78359000D01*
X174115963Y-78535627D01*
X174115962Y-78535630D01*
X174064444Y-78705465D01*
X173980779Y-78861990D01*
X173868185Y-78999185D01*
X173730990Y-79111779D01*
X173574465Y-79195444D01*
X173424053Y-79241070D01*
X173404627Y-79246963D01*
X173272258Y-79260000D01*
X173183742Y-79260000D01*
X173051373Y-79246963D01*
X173031947Y-79241070D01*
X172881535Y-79195444D01*
X172725010Y-79111779D01*
X172587815Y-78999185D01*
X172475221Y-78861990D01*
X172391556Y-78705465D01*
X172340038Y-78535630D01*
X172340037Y-78535627D01*
X172322641Y-78359000D01*
X172340037Y-78182373D01*
X172345930Y-78162947D01*
X172391556Y-78012535D01*
X172475221Y-77856010D01*
X172587815Y-77718815D01*
X172725010Y-77606221D01*
X172881535Y-77522556D01*
X173051370Y-77471038D01*
X173051373Y-77471037D01*
X173183742Y-77458000D01*
X173272258Y-77458000D01*
X173404627Y-77471037D01*
X173404627Y-77471037D01*
G37*
G36*
X148004627Y-77471037D02*
G01*
X148004630Y-77471038D01*
X148174465Y-77522556D01*
X148330990Y-77606221D01*
X148468185Y-77718815D01*
X148580779Y-77856010D01*
X148664444Y-78012535D01*
X148710070Y-78162947D01*
X148715963Y-78182373D01*
X148733359Y-78359000D01*
X148715963Y-78535627D01*
X148715962Y-78535630D01*
X148664444Y-78705465D01*
X148580779Y-78861990D01*
X148468185Y-78999185D01*
X148330990Y-79111779D01*
X148174465Y-79195444D01*
X148024053Y-79241070D01*
X148004627Y-79246963D01*
X147872258Y-79260000D01*
X147783742Y-79260000D01*
X147651373Y-79246963D01*
X147631947Y-79241070D01*
X147481535Y-79195444D01*
X147325010Y-79111779D01*
X147187815Y-78999185D01*
X147075221Y-78861990D01*
X146991556Y-78705465D01*
X146940038Y-78535630D01*
X146940037Y-78535627D01*
X146922641Y-78359000D01*
X146940037Y-78182373D01*
X146945930Y-78162947D01*
X146991556Y-78012535D01*
X147075221Y-77856010D01*
X147187815Y-77718815D01*
X147325010Y-77606221D01*
X147481535Y-77522556D01*
X147651370Y-77471038D01*
X147651373Y-77471037D01*
X147783742Y-77458000D01*
X147872258Y-77458000D01*
X148004627Y-77471037D01*
X148004627Y-77471037D01*
G37*
G36*
X160704627Y-77471037D02*
G01*
X160704630Y-77471038D01*
X160874465Y-77522556D01*
X161030990Y-77606221D01*
X161168185Y-77718815D01*
X161280779Y-77856010D01*
X161364444Y-78012535D01*
X161410070Y-78162947D01*
X161415963Y-78182373D01*
X161433359Y-78359000D01*
X161415963Y-78535627D01*
X161415962Y-78535630D01*
X161364444Y-78705465D01*
X161280779Y-78861990D01*
X161168185Y-78999185D01*
X161030990Y-79111779D01*
X160874465Y-79195444D01*
X160724053Y-79241070D01*
X160704627Y-79246963D01*
X160572258Y-79260000D01*
X160483742Y-79260000D01*
X160351373Y-79246963D01*
X160331947Y-79241070D01*
X160181535Y-79195444D01*
X160025010Y-79111779D01*
X159887815Y-78999185D01*
X159775221Y-78861990D01*
X159691556Y-78705465D01*
X159640038Y-78535630D01*
X159640037Y-78535627D01*
X159622641Y-78359000D01*
X159640037Y-78182373D01*
X159645930Y-78162947D01*
X159691556Y-78012535D01*
X159775221Y-77856010D01*
X159887815Y-77718815D01*
X160025010Y-77606221D01*
X160181535Y-77522556D01*
X160351370Y-77471038D01*
X160351373Y-77471037D01*
X160483742Y-77458000D01*
X160572258Y-77458000D01*
X160704627Y-77471037D01*
X160704627Y-77471037D01*
G37*
G36*
X158164627Y-77471037D02*
G01*
X158164630Y-77471038D01*
X158334465Y-77522556D01*
X158490990Y-77606221D01*
X158628185Y-77718815D01*
X158740779Y-77856010D01*
X158824444Y-78012535D01*
X158870070Y-78162947D01*
X158875963Y-78182373D01*
X158893359Y-78359000D01*
X158875963Y-78535627D01*
X158875962Y-78535630D01*
X158824444Y-78705465D01*
X158740779Y-78861990D01*
X158628185Y-78999185D01*
X158490990Y-79111779D01*
X158334465Y-79195444D01*
X158184053Y-79241070D01*
X158164627Y-79246963D01*
X158032258Y-79260000D01*
X157943742Y-79260000D01*
X157811373Y-79246963D01*
X157791947Y-79241070D01*
X157641535Y-79195444D01*
X157485010Y-79111779D01*
X157347815Y-78999185D01*
X157235221Y-78861990D01*
X157151556Y-78705465D01*
X157100038Y-78535630D01*
X157100037Y-78535627D01*
X157082641Y-78359000D01*
X157100037Y-78182373D01*
X157105930Y-78162947D01*
X157151556Y-78012535D01*
X157235221Y-77856010D01*
X157347815Y-77718815D01*
X157485010Y-77606221D01*
X157641535Y-77522556D01*
X157811370Y-77471038D01*
X157811373Y-77471037D01*
X157943742Y-77458000D01*
X158032258Y-77458000D01*
X158164627Y-77471037D01*
X158164627Y-77471037D01*
G37*
G36*
X145464627Y-77471037D02*
G01*
X145464630Y-77471038D01*
X145634465Y-77522556D01*
X145790990Y-77606221D01*
X145928185Y-77718815D01*
X146040779Y-77856010D01*
X146124444Y-78012535D01*
X146170070Y-78162947D01*
X146175963Y-78182373D01*
X146193359Y-78359000D01*
X146175963Y-78535627D01*
X146175962Y-78535630D01*
X146124444Y-78705465D01*
X146040779Y-78861990D01*
X145928185Y-78999185D01*
X145790990Y-79111779D01*
X145634465Y-79195444D01*
X145484053Y-79241070D01*
X145464627Y-79246963D01*
X145332258Y-79260000D01*
X145243742Y-79260000D01*
X145111373Y-79246963D01*
X145091947Y-79241070D01*
X144941535Y-79195444D01*
X144785010Y-79111779D01*
X144647815Y-78999185D01*
X144535221Y-78861990D01*
X144451556Y-78705465D01*
X144400038Y-78535630D01*
X144400037Y-78535627D01*
X144382641Y-78359000D01*
X144400037Y-78182373D01*
X144405930Y-78162947D01*
X144451556Y-78012535D01*
X144535221Y-77856010D01*
X144647815Y-77718815D01*
X144785010Y-77606221D01*
X144941535Y-77522556D01*
X145111370Y-77471038D01*
X145111373Y-77471037D01*
X145243742Y-77458000D01*
X145332258Y-77458000D01*
X145464627Y-77471037D01*
X145464627Y-77471037D01*
G37*
G36*
X180706000Y-76898000D02*
G01*
X178704000Y-76898000D01*
X178704000Y-75196000D01*
X180706000Y-75196000D01*
X180706000Y-76898000D01*
X180706000Y-76898000D01*
G37*
G36*
X137526000Y-76898000D02*
G01*
X135524000Y-76898000D01*
X135524000Y-75196000D01*
X137526000Y-75196000D01*
X137526000Y-76898000D01*
X137526000Y-76898000D01*
G37*
G36*
X173404627Y-74931037D02*
G01*
X173404630Y-74931038D01*
X173574465Y-74982556D01*
X173730990Y-75066221D01*
X173868185Y-75178815D01*
X173980779Y-75316010D01*
X174064444Y-75472535D01*
X174110070Y-75622947D01*
X174115963Y-75642373D01*
X174133359Y-75819000D01*
X174115963Y-75995627D01*
X174115962Y-75995630D01*
X174064444Y-76165465D01*
X173980779Y-76321990D01*
X173868185Y-76459185D01*
X173730990Y-76571779D01*
X173574465Y-76655444D01*
X173424053Y-76701070D01*
X173404627Y-76706963D01*
X173272258Y-76720000D01*
X173183742Y-76720000D01*
X173051373Y-76706963D01*
X173031947Y-76701070D01*
X172881535Y-76655444D01*
X172725010Y-76571779D01*
X172587815Y-76459185D01*
X172475221Y-76321990D01*
X172391556Y-76165465D01*
X172340038Y-75995630D01*
X172340037Y-75995627D01*
X172322641Y-75819000D01*
X172340037Y-75642373D01*
X172345930Y-75622947D01*
X172391556Y-75472535D01*
X172475221Y-75316010D01*
X172587815Y-75178815D01*
X172725010Y-75066221D01*
X172881535Y-74982556D01*
X173051370Y-74931038D01*
X173051373Y-74931037D01*
X173183742Y-74918000D01*
X173272258Y-74918000D01*
X173404627Y-74931037D01*
X173404627Y-74931037D01*
G37*
G36*
X160704627Y-74931037D02*
G01*
X160704630Y-74931038D01*
X160874465Y-74982556D01*
X161030990Y-75066221D01*
X161168185Y-75178815D01*
X161280779Y-75316010D01*
X161364444Y-75472535D01*
X161410070Y-75622947D01*
X161415963Y-75642373D01*
X161433359Y-75819000D01*
X161415963Y-75995627D01*
X161415962Y-75995630D01*
X161364444Y-76165465D01*
X161280779Y-76321990D01*
X161168185Y-76459185D01*
X161030990Y-76571779D01*
X160874465Y-76655444D01*
X160724053Y-76701070D01*
X160704627Y-76706963D01*
X160572258Y-76720000D01*
X160483742Y-76720000D01*
X160351373Y-76706963D01*
X160331947Y-76701070D01*
X160181535Y-76655444D01*
X160025010Y-76571779D01*
X159887815Y-76459185D01*
X159775221Y-76321990D01*
X159691556Y-76165465D01*
X159640038Y-75995630D01*
X159640037Y-75995627D01*
X159622641Y-75819000D01*
X159640037Y-75642373D01*
X159645930Y-75622947D01*
X159691556Y-75472535D01*
X159775221Y-75316010D01*
X159887815Y-75178815D01*
X160025010Y-75066221D01*
X160181535Y-74982556D01*
X160351370Y-74931038D01*
X160351373Y-74931037D01*
X160483742Y-74918000D01*
X160572258Y-74918000D01*
X160704627Y-74931037D01*
X160704627Y-74931037D01*
G37*
G36*
X145464627Y-74931037D02*
G01*
X145464630Y-74931038D01*
X145634465Y-74982556D01*
X145790990Y-75066221D01*
X145928185Y-75178815D01*
X146040779Y-75316010D01*
X146124444Y-75472535D01*
X146170070Y-75622947D01*
X146175963Y-75642373D01*
X146193359Y-75819000D01*
X146175963Y-75995627D01*
X146175962Y-75995630D01*
X146124444Y-76165465D01*
X146040779Y-76321990D01*
X145928185Y-76459185D01*
X145790990Y-76571779D01*
X145634465Y-76655444D01*
X145484053Y-76701070D01*
X145464627Y-76706963D01*
X145332258Y-76720000D01*
X145243742Y-76720000D01*
X145111373Y-76706963D01*
X145091947Y-76701070D01*
X144941535Y-76655444D01*
X144785010Y-76571779D01*
X144647815Y-76459185D01*
X144535221Y-76321990D01*
X144451556Y-76165465D01*
X144400038Y-75995630D01*
X144400037Y-75995627D01*
X144382641Y-75819000D01*
X144400037Y-75642373D01*
X144405930Y-75622947D01*
X144451556Y-75472535D01*
X144535221Y-75316010D01*
X144647815Y-75178815D01*
X144785010Y-75066221D01*
X144941535Y-74982556D01*
X145111370Y-74931038D01*
X145111373Y-74931037D01*
X145243742Y-74918000D01*
X145332258Y-74918000D01*
X145464627Y-74931037D01*
X145464627Y-74931037D01*
G37*
G36*
X150544627Y-74931037D02*
G01*
X150544630Y-74931038D01*
X150714465Y-74982556D01*
X150870990Y-75066221D01*
X151008185Y-75178815D01*
X151120779Y-75316010D01*
X151204444Y-75472535D01*
X151250070Y-75622947D01*
X151255963Y-75642373D01*
X151273359Y-75819000D01*
X151255963Y-75995627D01*
X151255962Y-75995630D01*
X151204444Y-76165465D01*
X151120779Y-76321990D01*
X151008185Y-76459185D01*
X150870990Y-76571779D01*
X150714465Y-76655444D01*
X150564053Y-76701070D01*
X150544627Y-76706963D01*
X150412258Y-76720000D01*
X150323742Y-76720000D01*
X150191373Y-76706963D01*
X150171947Y-76701070D01*
X150021535Y-76655444D01*
X149865010Y-76571779D01*
X149727815Y-76459185D01*
X149615221Y-76321990D01*
X149531556Y-76165465D01*
X149480038Y-75995630D01*
X149480037Y-75995627D01*
X149462641Y-75819000D01*
X149480037Y-75642373D01*
X149485930Y-75622947D01*
X149531556Y-75472535D01*
X149615221Y-75316010D01*
X149727815Y-75178815D01*
X149865010Y-75066221D01*
X150021535Y-74982556D01*
X150191370Y-74931038D01*
X150191373Y-74931037D01*
X150323742Y-74918000D01*
X150412258Y-74918000D01*
X150544627Y-74931037D01*
X150544627Y-74931037D01*
G37*
G36*
X148004627Y-74931037D02*
G01*
X148004630Y-74931038D01*
X148174465Y-74982556D01*
X148330990Y-75066221D01*
X148468185Y-75178815D01*
X148580779Y-75316010D01*
X148664444Y-75472535D01*
X148710070Y-75622947D01*
X148715963Y-75642373D01*
X148733359Y-75819000D01*
X148715963Y-75995627D01*
X148715962Y-75995630D01*
X148664444Y-76165465D01*
X148580779Y-76321990D01*
X148468185Y-76459185D01*
X148330990Y-76571779D01*
X148174465Y-76655444D01*
X148024053Y-76701070D01*
X148004627Y-76706963D01*
X147872258Y-76720000D01*
X147783742Y-76720000D01*
X147651373Y-76706963D01*
X147631947Y-76701070D01*
X147481535Y-76655444D01*
X147325010Y-76571779D01*
X147187815Y-76459185D01*
X147075221Y-76321990D01*
X146991556Y-76165465D01*
X146940038Y-75995630D01*
X146940037Y-75995627D01*
X146922641Y-75819000D01*
X146940037Y-75642373D01*
X146945930Y-75622947D01*
X146991556Y-75472535D01*
X147075221Y-75316010D01*
X147187815Y-75178815D01*
X147325010Y-75066221D01*
X147481535Y-74982556D01*
X147651370Y-74931038D01*
X147651373Y-74931037D01*
X147783742Y-74918000D01*
X147872258Y-74918000D01*
X148004627Y-74931037D01*
X148004627Y-74931037D01*
G37*
G36*
X170864627Y-74931037D02*
G01*
X170864630Y-74931038D01*
X171034465Y-74982556D01*
X171190990Y-75066221D01*
X171328185Y-75178815D01*
X171440779Y-75316010D01*
X171524444Y-75472535D01*
X171570070Y-75622947D01*
X171575963Y-75642373D01*
X171593359Y-75819000D01*
X171575963Y-75995627D01*
X171575962Y-75995630D01*
X171524444Y-76165465D01*
X171440779Y-76321990D01*
X171328185Y-76459185D01*
X171190990Y-76571779D01*
X171034465Y-76655444D01*
X170884053Y-76701070D01*
X170864627Y-76706963D01*
X170732258Y-76720000D01*
X170643742Y-76720000D01*
X170511373Y-76706963D01*
X170491947Y-76701070D01*
X170341535Y-76655444D01*
X170185010Y-76571779D01*
X170047815Y-76459185D01*
X169935221Y-76321990D01*
X169851556Y-76165465D01*
X169800038Y-75995630D01*
X169800037Y-75995627D01*
X169782641Y-75819000D01*
X169800037Y-75642373D01*
X169805930Y-75622947D01*
X169851556Y-75472535D01*
X169935221Y-75316010D01*
X170047815Y-75178815D01*
X170185010Y-75066221D01*
X170341535Y-74982556D01*
X170511370Y-74931038D01*
X170511373Y-74931037D01*
X170643742Y-74918000D01*
X170732258Y-74918000D01*
X170864627Y-74931037D01*
X170864627Y-74931037D01*
G37*
G36*
X163244627Y-74931037D02*
G01*
X163244630Y-74931038D01*
X163414465Y-74982556D01*
X163570990Y-75066221D01*
X163708185Y-75178815D01*
X163820779Y-75316010D01*
X163904444Y-75472535D01*
X163950070Y-75622947D01*
X163955963Y-75642373D01*
X163973359Y-75819000D01*
X163955963Y-75995627D01*
X163955962Y-75995630D01*
X163904444Y-76165465D01*
X163820779Y-76321990D01*
X163708185Y-76459185D01*
X163570990Y-76571779D01*
X163414465Y-76655444D01*
X163264053Y-76701070D01*
X163244627Y-76706963D01*
X163112258Y-76720000D01*
X163023742Y-76720000D01*
X162891373Y-76706963D01*
X162871947Y-76701070D01*
X162721535Y-76655444D01*
X162565010Y-76571779D01*
X162427815Y-76459185D01*
X162315221Y-76321990D01*
X162231556Y-76165465D01*
X162180038Y-75995630D01*
X162180037Y-75995627D01*
X162162641Y-75819000D01*
X162180037Y-75642373D01*
X162185930Y-75622947D01*
X162231556Y-75472535D01*
X162315221Y-75316010D01*
X162427815Y-75178815D01*
X162565010Y-75066221D01*
X162721535Y-74982556D01*
X162891370Y-74931038D01*
X162891373Y-74931037D01*
X163023742Y-74918000D01*
X163112258Y-74918000D01*
X163244627Y-74931037D01*
X163244627Y-74931037D01*
G37*
G36*
X153084627Y-74931037D02*
G01*
X153084630Y-74931038D01*
X153254465Y-74982556D01*
X153410990Y-75066221D01*
X153548185Y-75178815D01*
X153660779Y-75316010D01*
X153744444Y-75472535D01*
X153790070Y-75622947D01*
X153795963Y-75642373D01*
X153813359Y-75819000D01*
X153795963Y-75995627D01*
X153795962Y-75995630D01*
X153744444Y-76165465D01*
X153660779Y-76321990D01*
X153548185Y-76459185D01*
X153410990Y-76571779D01*
X153254465Y-76655444D01*
X153104053Y-76701070D01*
X153084627Y-76706963D01*
X152952258Y-76720000D01*
X152863742Y-76720000D01*
X152731373Y-76706963D01*
X152711947Y-76701070D01*
X152561535Y-76655444D01*
X152405010Y-76571779D01*
X152267815Y-76459185D01*
X152155221Y-76321990D01*
X152071556Y-76165465D01*
X152020038Y-75995630D01*
X152020037Y-75995627D01*
X152002641Y-75819000D01*
X152020037Y-75642373D01*
X152025930Y-75622947D01*
X152071556Y-75472535D01*
X152155221Y-75316010D01*
X152267815Y-75178815D01*
X152405010Y-75066221D01*
X152561535Y-74982556D01*
X152731370Y-74931038D01*
X152731373Y-74931037D01*
X152863742Y-74918000D01*
X152952258Y-74918000D01*
X153084627Y-74931037D01*
X153084627Y-74931037D01*
G37*
G36*
X165784627Y-74931037D02*
G01*
X165784630Y-74931038D01*
X165954465Y-74982556D01*
X166110990Y-75066221D01*
X166248185Y-75178815D01*
X166360779Y-75316010D01*
X166444444Y-75472535D01*
X166490070Y-75622947D01*
X166495963Y-75642373D01*
X166513359Y-75819000D01*
X166495963Y-75995627D01*
X166495962Y-75995630D01*
X166444444Y-76165465D01*
X166360779Y-76321990D01*
X166248185Y-76459185D01*
X166110990Y-76571779D01*
X165954465Y-76655444D01*
X165804053Y-76701070D01*
X165784627Y-76706963D01*
X165652258Y-76720000D01*
X165563742Y-76720000D01*
X165431373Y-76706963D01*
X165411947Y-76701070D01*
X165261535Y-76655444D01*
X165105010Y-76571779D01*
X164967815Y-76459185D01*
X164855221Y-76321990D01*
X164771556Y-76165465D01*
X164720038Y-75995630D01*
X164720037Y-75995627D01*
X164702641Y-75819000D01*
X164720037Y-75642373D01*
X164725930Y-75622947D01*
X164771556Y-75472535D01*
X164855221Y-75316010D01*
X164967815Y-75178815D01*
X165105010Y-75066221D01*
X165261535Y-74982556D01*
X165431370Y-74931038D01*
X165431373Y-74931037D01*
X165563742Y-74918000D01*
X165652258Y-74918000D01*
X165784627Y-74931037D01*
X165784627Y-74931037D01*
G37*
G36*
X155624627Y-74931037D02*
G01*
X155624630Y-74931038D01*
X155794465Y-74982556D01*
X155950990Y-75066221D01*
X156088185Y-75178815D01*
X156200779Y-75316010D01*
X156284444Y-75472535D01*
X156330070Y-75622947D01*
X156335963Y-75642373D01*
X156353359Y-75819000D01*
X156335963Y-75995627D01*
X156335962Y-75995630D01*
X156284444Y-76165465D01*
X156200779Y-76321990D01*
X156088185Y-76459185D01*
X155950990Y-76571779D01*
X155794465Y-76655444D01*
X155644053Y-76701070D01*
X155624627Y-76706963D01*
X155492258Y-76720000D01*
X155403742Y-76720000D01*
X155271373Y-76706963D01*
X155251947Y-76701070D01*
X155101535Y-76655444D01*
X154945010Y-76571779D01*
X154807815Y-76459185D01*
X154695221Y-76321990D01*
X154611556Y-76165465D01*
X154560038Y-75995630D01*
X154560037Y-75995627D01*
X154542641Y-75819000D01*
X154560037Y-75642373D01*
X154565930Y-75622947D01*
X154611556Y-75472535D01*
X154695221Y-75316010D01*
X154807815Y-75178815D01*
X154945010Y-75066221D01*
X155101535Y-74982556D01*
X155271370Y-74931038D01*
X155271373Y-74931037D01*
X155403742Y-74918000D01*
X155492258Y-74918000D01*
X155624627Y-74931037D01*
X155624627Y-74931037D01*
G37*
G36*
X142924627Y-74931037D02*
G01*
X142924630Y-74931038D01*
X143094465Y-74982556D01*
X143250990Y-75066221D01*
X143388185Y-75178815D01*
X143500779Y-75316010D01*
X143584444Y-75472535D01*
X143630070Y-75622947D01*
X143635963Y-75642373D01*
X143653359Y-75819000D01*
X143635963Y-75995627D01*
X143635962Y-75995630D01*
X143584444Y-76165465D01*
X143500779Y-76321990D01*
X143388185Y-76459185D01*
X143250990Y-76571779D01*
X143094465Y-76655444D01*
X142944053Y-76701070D01*
X142924627Y-76706963D01*
X142792258Y-76720000D01*
X142703742Y-76720000D01*
X142571373Y-76706963D01*
X142551947Y-76701070D01*
X142401535Y-76655444D01*
X142245010Y-76571779D01*
X142107815Y-76459185D01*
X141995221Y-76321990D01*
X141911556Y-76165465D01*
X141860038Y-75995630D01*
X141860037Y-75995627D01*
X141842641Y-75819000D01*
X141860037Y-75642373D01*
X141865930Y-75622947D01*
X141911556Y-75472535D01*
X141995221Y-75316010D01*
X142107815Y-75178815D01*
X142245010Y-75066221D01*
X142401535Y-74982556D01*
X142571370Y-74931038D01*
X142571373Y-74931037D01*
X142703742Y-74918000D01*
X142792258Y-74918000D01*
X142924627Y-74931037D01*
X142924627Y-74931037D01*
G37*
G36*
X168324627Y-74931037D02*
G01*
X168324630Y-74931038D01*
X168494465Y-74982556D01*
X168650990Y-75066221D01*
X168788185Y-75178815D01*
X168900779Y-75316010D01*
X168984444Y-75472535D01*
X169030070Y-75622947D01*
X169035963Y-75642373D01*
X169053359Y-75819000D01*
X169035963Y-75995627D01*
X169035962Y-75995630D01*
X168984444Y-76165465D01*
X168900779Y-76321990D01*
X168788185Y-76459185D01*
X168650990Y-76571779D01*
X168494465Y-76655444D01*
X168344053Y-76701070D01*
X168324627Y-76706963D01*
X168192258Y-76720000D01*
X168103742Y-76720000D01*
X167971373Y-76706963D01*
X167951947Y-76701070D01*
X167801535Y-76655444D01*
X167645010Y-76571779D01*
X167507815Y-76459185D01*
X167395221Y-76321990D01*
X167311556Y-76165465D01*
X167260038Y-75995630D01*
X167260037Y-75995627D01*
X167242641Y-75819000D01*
X167260037Y-75642373D01*
X167265930Y-75622947D01*
X167311556Y-75472535D01*
X167395221Y-75316010D01*
X167507815Y-75178815D01*
X167645010Y-75066221D01*
X167801535Y-74982556D01*
X167971370Y-74931038D01*
X167971373Y-74931037D01*
X168103742Y-74918000D01*
X168192258Y-74918000D01*
X168324627Y-74931037D01*
X168324627Y-74931037D01*
G37*
G36*
X158164627Y-74931037D02*
G01*
X158164630Y-74931038D01*
X158334465Y-74982556D01*
X158490990Y-75066221D01*
X158628185Y-75178815D01*
X158740779Y-75316010D01*
X158824444Y-75472535D01*
X158870070Y-75622947D01*
X158875963Y-75642373D01*
X158893359Y-75819000D01*
X158875963Y-75995627D01*
X158875962Y-75995630D01*
X158824444Y-76165465D01*
X158740779Y-76321990D01*
X158628185Y-76459185D01*
X158490990Y-76571779D01*
X158334465Y-76655444D01*
X158184053Y-76701070D01*
X158164627Y-76706963D01*
X158032258Y-76720000D01*
X157943742Y-76720000D01*
X157811373Y-76706963D01*
X157791947Y-76701070D01*
X157641535Y-76655444D01*
X157485010Y-76571779D01*
X157347815Y-76459185D01*
X157235221Y-76321990D01*
X157151556Y-76165465D01*
X157100038Y-75995630D01*
X157100037Y-75995627D01*
X157082641Y-75819000D01*
X157100037Y-75642373D01*
X157105930Y-75622947D01*
X157151556Y-75472535D01*
X157235221Y-75316010D01*
X157347815Y-75178815D01*
X157485010Y-75066221D01*
X157641535Y-74982556D01*
X157811370Y-74931038D01*
X157811373Y-74931037D01*
X157943742Y-74918000D01*
X158032258Y-74918000D01*
X158164627Y-74931037D01*
X158164627Y-74931037D01*
G37*
M02*
