G04 #@! TF.GenerationSoftware,KiCad,Pcbnew,(5.1.2)-2*
G04 #@! TF.CreationDate,2019-10-09T20:23:10+02:00*
G04 #@! TF.ProjectId,PIC18F47K42 MCU Card,50494331-3846-4343-974b-3432204d4355,rev?*
G04 #@! TF.SameCoordinates,Original*
G04 #@! TF.FileFunction,Paste,Top*
G04 #@! TF.FilePolarity,Positive*
%FSLAX46Y46*%
G04 Gerber Fmt 4.6, Leading zero omitted, Abs format (unit mm)*
G04 Created by KiCad (PCBNEW (5.1.2)-2) date 2019-10-09 20:23:10*
%MOMM*%
%LPD*%
G04 APERTURE LIST*
%ADD10C,0.100000*%
%ADD11C,0.975000*%
%ADD12R,1.900000X1.600000*%
%ADD13C,2.000000*%
%ADD14C,0.550000*%
G04 APERTURE END LIST*
D10*
G36*
X148792065Y-108637362D02*
G01*
X148815726Y-108640872D01*
X148838930Y-108646684D01*
X148861452Y-108654742D01*
X148883076Y-108664970D01*
X148903593Y-108677267D01*
X148922806Y-108691517D01*
X148940530Y-108707581D01*
X149285245Y-109052296D01*
X149301309Y-109070020D01*
X149315559Y-109089233D01*
X149327856Y-109109750D01*
X149338084Y-109131374D01*
X149346142Y-109153896D01*
X149351954Y-109177100D01*
X149355464Y-109200761D01*
X149356638Y-109224653D01*
X149355464Y-109248545D01*
X149351954Y-109272206D01*
X149346142Y-109295410D01*
X149338084Y-109317932D01*
X149327856Y-109339556D01*
X149315559Y-109360073D01*
X149301309Y-109379286D01*
X149285245Y-109397010D01*
X148640010Y-110042245D01*
X148622286Y-110058309D01*
X148603073Y-110072559D01*
X148582556Y-110084856D01*
X148560932Y-110095084D01*
X148538410Y-110103142D01*
X148515206Y-110108954D01*
X148491545Y-110112464D01*
X148467653Y-110113638D01*
X148443761Y-110112464D01*
X148420100Y-110108954D01*
X148396896Y-110103142D01*
X148374374Y-110095084D01*
X148352750Y-110084856D01*
X148332233Y-110072559D01*
X148313020Y-110058309D01*
X148295296Y-110042245D01*
X147950581Y-109697530D01*
X147934517Y-109679806D01*
X147920267Y-109660593D01*
X147907970Y-109640076D01*
X147897742Y-109618452D01*
X147889684Y-109595930D01*
X147883872Y-109572726D01*
X147880362Y-109549065D01*
X147879188Y-109525173D01*
X147880362Y-109501281D01*
X147883872Y-109477620D01*
X147889684Y-109454416D01*
X147897742Y-109431894D01*
X147907970Y-109410270D01*
X147920267Y-109389753D01*
X147934517Y-109370540D01*
X147950581Y-109352816D01*
X148595816Y-108707581D01*
X148613540Y-108691517D01*
X148632753Y-108677267D01*
X148653270Y-108664970D01*
X148674894Y-108654742D01*
X148697416Y-108646684D01*
X148720620Y-108640872D01*
X148744281Y-108637362D01*
X148768173Y-108636188D01*
X148792065Y-108637362D01*
X148792065Y-108637362D01*
G37*
D11*
X148617913Y-109374913D03*
D10*
G36*
X147466239Y-107311536D02*
G01*
X147489900Y-107315046D01*
X147513104Y-107320858D01*
X147535626Y-107328916D01*
X147557250Y-107339144D01*
X147577767Y-107351441D01*
X147596980Y-107365691D01*
X147614704Y-107381755D01*
X147959419Y-107726470D01*
X147975483Y-107744194D01*
X147989733Y-107763407D01*
X148002030Y-107783924D01*
X148012258Y-107805548D01*
X148020316Y-107828070D01*
X148026128Y-107851274D01*
X148029638Y-107874935D01*
X148030812Y-107898827D01*
X148029638Y-107922719D01*
X148026128Y-107946380D01*
X148020316Y-107969584D01*
X148012258Y-107992106D01*
X148002030Y-108013730D01*
X147989733Y-108034247D01*
X147975483Y-108053460D01*
X147959419Y-108071184D01*
X147314184Y-108716419D01*
X147296460Y-108732483D01*
X147277247Y-108746733D01*
X147256730Y-108759030D01*
X147235106Y-108769258D01*
X147212584Y-108777316D01*
X147189380Y-108783128D01*
X147165719Y-108786638D01*
X147141827Y-108787812D01*
X147117935Y-108786638D01*
X147094274Y-108783128D01*
X147071070Y-108777316D01*
X147048548Y-108769258D01*
X147026924Y-108759030D01*
X147006407Y-108746733D01*
X146987194Y-108732483D01*
X146969470Y-108716419D01*
X146624755Y-108371704D01*
X146608691Y-108353980D01*
X146594441Y-108334767D01*
X146582144Y-108314250D01*
X146571916Y-108292626D01*
X146563858Y-108270104D01*
X146558046Y-108246900D01*
X146554536Y-108223239D01*
X146553362Y-108199347D01*
X146554536Y-108175455D01*
X146558046Y-108151794D01*
X146563858Y-108128590D01*
X146571916Y-108106068D01*
X146582144Y-108084444D01*
X146594441Y-108063927D01*
X146608691Y-108044714D01*
X146624755Y-108026990D01*
X147269990Y-107381755D01*
X147287714Y-107365691D01*
X147306927Y-107351441D01*
X147327444Y-107339144D01*
X147349068Y-107328916D01*
X147371590Y-107320858D01*
X147394794Y-107315046D01*
X147418455Y-107311536D01*
X147442347Y-107310362D01*
X147466239Y-107311536D01*
X147466239Y-107311536D01*
G37*
D11*
X147292087Y-108049087D03*
D10*
G36*
X158896239Y-94611536D02*
G01*
X158919900Y-94615046D01*
X158943104Y-94620858D01*
X158965626Y-94628916D01*
X158987250Y-94639144D01*
X159007767Y-94651441D01*
X159026980Y-94665691D01*
X159044704Y-94681755D01*
X159389419Y-95026470D01*
X159405483Y-95044194D01*
X159419733Y-95063407D01*
X159432030Y-95083924D01*
X159442258Y-95105548D01*
X159450316Y-95128070D01*
X159456128Y-95151274D01*
X159459638Y-95174935D01*
X159460812Y-95198827D01*
X159459638Y-95222719D01*
X159456128Y-95246380D01*
X159450316Y-95269584D01*
X159442258Y-95292106D01*
X159432030Y-95313730D01*
X159419733Y-95334247D01*
X159405483Y-95353460D01*
X159389419Y-95371184D01*
X158744184Y-96016419D01*
X158726460Y-96032483D01*
X158707247Y-96046733D01*
X158686730Y-96059030D01*
X158665106Y-96069258D01*
X158642584Y-96077316D01*
X158619380Y-96083128D01*
X158595719Y-96086638D01*
X158571827Y-96087812D01*
X158547935Y-96086638D01*
X158524274Y-96083128D01*
X158501070Y-96077316D01*
X158478548Y-96069258D01*
X158456924Y-96059030D01*
X158436407Y-96046733D01*
X158417194Y-96032483D01*
X158399470Y-96016419D01*
X158054755Y-95671704D01*
X158038691Y-95653980D01*
X158024441Y-95634767D01*
X158012144Y-95614250D01*
X158001916Y-95592626D01*
X157993858Y-95570104D01*
X157988046Y-95546900D01*
X157984536Y-95523239D01*
X157983362Y-95499347D01*
X157984536Y-95475455D01*
X157988046Y-95451794D01*
X157993858Y-95428590D01*
X158001916Y-95406068D01*
X158012144Y-95384444D01*
X158024441Y-95363927D01*
X158038691Y-95344714D01*
X158054755Y-95326990D01*
X158699990Y-94681755D01*
X158717714Y-94665691D01*
X158736927Y-94651441D01*
X158757444Y-94639144D01*
X158779068Y-94628916D01*
X158801590Y-94620858D01*
X158824794Y-94615046D01*
X158848455Y-94611536D01*
X158872347Y-94610362D01*
X158896239Y-94611536D01*
X158896239Y-94611536D01*
G37*
D11*
X158722087Y-95349087D03*
D10*
G36*
X160222065Y-95937362D02*
G01*
X160245726Y-95940872D01*
X160268930Y-95946684D01*
X160291452Y-95954742D01*
X160313076Y-95964970D01*
X160333593Y-95977267D01*
X160352806Y-95991517D01*
X160370530Y-96007581D01*
X160715245Y-96352296D01*
X160731309Y-96370020D01*
X160745559Y-96389233D01*
X160757856Y-96409750D01*
X160768084Y-96431374D01*
X160776142Y-96453896D01*
X160781954Y-96477100D01*
X160785464Y-96500761D01*
X160786638Y-96524653D01*
X160785464Y-96548545D01*
X160781954Y-96572206D01*
X160776142Y-96595410D01*
X160768084Y-96617932D01*
X160757856Y-96639556D01*
X160745559Y-96660073D01*
X160731309Y-96679286D01*
X160715245Y-96697010D01*
X160070010Y-97342245D01*
X160052286Y-97358309D01*
X160033073Y-97372559D01*
X160012556Y-97384856D01*
X159990932Y-97395084D01*
X159968410Y-97403142D01*
X159945206Y-97408954D01*
X159921545Y-97412464D01*
X159897653Y-97413638D01*
X159873761Y-97412464D01*
X159850100Y-97408954D01*
X159826896Y-97403142D01*
X159804374Y-97395084D01*
X159782750Y-97384856D01*
X159762233Y-97372559D01*
X159743020Y-97358309D01*
X159725296Y-97342245D01*
X159380581Y-96997530D01*
X159364517Y-96979806D01*
X159350267Y-96960593D01*
X159337970Y-96940076D01*
X159327742Y-96918452D01*
X159319684Y-96895930D01*
X159313872Y-96872726D01*
X159310362Y-96849065D01*
X159309188Y-96825173D01*
X159310362Y-96801281D01*
X159313872Y-96777620D01*
X159319684Y-96754416D01*
X159327742Y-96731894D01*
X159337970Y-96710270D01*
X159350267Y-96689753D01*
X159364517Y-96670540D01*
X159380581Y-96652816D01*
X160025816Y-96007581D01*
X160043540Y-95991517D01*
X160062753Y-95977267D01*
X160083270Y-95964970D01*
X160104894Y-95954742D01*
X160127416Y-95946684D01*
X160150620Y-95940872D01*
X160174281Y-95937362D01*
X160198173Y-95936188D01*
X160222065Y-95937362D01*
X160222065Y-95937362D01*
G37*
D11*
X160047913Y-96674913D03*
D10*
G36*
X165580719Y-86412362D02*
G01*
X165604380Y-86415872D01*
X165627584Y-86421684D01*
X165650106Y-86429742D01*
X165671730Y-86439970D01*
X165692247Y-86452267D01*
X165711460Y-86466517D01*
X165729184Y-86482581D01*
X166374419Y-87127816D01*
X166390483Y-87145540D01*
X166404733Y-87164753D01*
X166417030Y-87185270D01*
X166427258Y-87206894D01*
X166435316Y-87229416D01*
X166441128Y-87252620D01*
X166444638Y-87276281D01*
X166445812Y-87300173D01*
X166444638Y-87324065D01*
X166441128Y-87347726D01*
X166435316Y-87370930D01*
X166427258Y-87393452D01*
X166417030Y-87415076D01*
X166404733Y-87435593D01*
X166390483Y-87454806D01*
X166374419Y-87472530D01*
X166029704Y-87817245D01*
X166011980Y-87833309D01*
X165992767Y-87847559D01*
X165972250Y-87859856D01*
X165950626Y-87870084D01*
X165928104Y-87878142D01*
X165904900Y-87883954D01*
X165881239Y-87887464D01*
X165857347Y-87888638D01*
X165833455Y-87887464D01*
X165809794Y-87883954D01*
X165786590Y-87878142D01*
X165764068Y-87870084D01*
X165742444Y-87859856D01*
X165721927Y-87847559D01*
X165702714Y-87833309D01*
X165684990Y-87817245D01*
X165039755Y-87172010D01*
X165023691Y-87154286D01*
X165009441Y-87135073D01*
X164997144Y-87114556D01*
X164986916Y-87092932D01*
X164978858Y-87070410D01*
X164973046Y-87047206D01*
X164969536Y-87023545D01*
X164968362Y-86999653D01*
X164969536Y-86975761D01*
X164973046Y-86952100D01*
X164978858Y-86928896D01*
X164986916Y-86906374D01*
X164997144Y-86884750D01*
X165009441Y-86864233D01*
X165023691Y-86845020D01*
X165039755Y-86827296D01*
X165384470Y-86482581D01*
X165402194Y-86466517D01*
X165421407Y-86452267D01*
X165441924Y-86439970D01*
X165463548Y-86429742D01*
X165486070Y-86421684D01*
X165509274Y-86415872D01*
X165532935Y-86412362D01*
X165556827Y-86411188D01*
X165580719Y-86412362D01*
X165580719Y-86412362D01*
G37*
D11*
X165707087Y-87149913D03*
D10*
G36*
X166906545Y-85086536D02*
G01*
X166930206Y-85090046D01*
X166953410Y-85095858D01*
X166975932Y-85103916D01*
X166997556Y-85114144D01*
X167018073Y-85126441D01*
X167037286Y-85140691D01*
X167055010Y-85156755D01*
X167700245Y-85801990D01*
X167716309Y-85819714D01*
X167730559Y-85838927D01*
X167742856Y-85859444D01*
X167753084Y-85881068D01*
X167761142Y-85903590D01*
X167766954Y-85926794D01*
X167770464Y-85950455D01*
X167771638Y-85974347D01*
X167770464Y-85998239D01*
X167766954Y-86021900D01*
X167761142Y-86045104D01*
X167753084Y-86067626D01*
X167742856Y-86089250D01*
X167730559Y-86109767D01*
X167716309Y-86128980D01*
X167700245Y-86146704D01*
X167355530Y-86491419D01*
X167337806Y-86507483D01*
X167318593Y-86521733D01*
X167298076Y-86534030D01*
X167276452Y-86544258D01*
X167253930Y-86552316D01*
X167230726Y-86558128D01*
X167207065Y-86561638D01*
X167183173Y-86562812D01*
X167159281Y-86561638D01*
X167135620Y-86558128D01*
X167112416Y-86552316D01*
X167089894Y-86544258D01*
X167068270Y-86534030D01*
X167047753Y-86521733D01*
X167028540Y-86507483D01*
X167010816Y-86491419D01*
X166365581Y-85846184D01*
X166349517Y-85828460D01*
X166335267Y-85809247D01*
X166322970Y-85788730D01*
X166312742Y-85767106D01*
X166304684Y-85744584D01*
X166298872Y-85721380D01*
X166295362Y-85697719D01*
X166294188Y-85673827D01*
X166295362Y-85649935D01*
X166298872Y-85626274D01*
X166304684Y-85603070D01*
X166312742Y-85580548D01*
X166322970Y-85558924D01*
X166335267Y-85538407D01*
X166349517Y-85519194D01*
X166365581Y-85501470D01*
X166710296Y-85156755D01*
X166728020Y-85140691D01*
X166747233Y-85126441D01*
X166767750Y-85114144D01*
X166789374Y-85103916D01*
X166811896Y-85095858D01*
X166835100Y-85090046D01*
X166858761Y-85086536D01*
X166882653Y-85085362D01*
X166906545Y-85086536D01*
X166906545Y-85086536D01*
G37*
D11*
X167032913Y-85824087D03*
D10*
G36*
X170081545Y-88261536D02*
G01*
X170105206Y-88265046D01*
X170128410Y-88270858D01*
X170150932Y-88278916D01*
X170172556Y-88289144D01*
X170193073Y-88301441D01*
X170212286Y-88315691D01*
X170230010Y-88331755D01*
X170875245Y-88976990D01*
X170891309Y-88994714D01*
X170905559Y-89013927D01*
X170917856Y-89034444D01*
X170928084Y-89056068D01*
X170936142Y-89078590D01*
X170941954Y-89101794D01*
X170945464Y-89125455D01*
X170946638Y-89149347D01*
X170945464Y-89173239D01*
X170941954Y-89196900D01*
X170936142Y-89220104D01*
X170928084Y-89242626D01*
X170917856Y-89264250D01*
X170905559Y-89284767D01*
X170891309Y-89303980D01*
X170875245Y-89321704D01*
X170530530Y-89666419D01*
X170512806Y-89682483D01*
X170493593Y-89696733D01*
X170473076Y-89709030D01*
X170451452Y-89719258D01*
X170428930Y-89727316D01*
X170405726Y-89733128D01*
X170382065Y-89736638D01*
X170358173Y-89737812D01*
X170334281Y-89736638D01*
X170310620Y-89733128D01*
X170287416Y-89727316D01*
X170264894Y-89719258D01*
X170243270Y-89709030D01*
X170222753Y-89696733D01*
X170203540Y-89682483D01*
X170185816Y-89666419D01*
X169540581Y-89021184D01*
X169524517Y-89003460D01*
X169510267Y-88984247D01*
X169497970Y-88963730D01*
X169487742Y-88942106D01*
X169479684Y-88919584D01*
X169473872Y-88896380D01*
X169470362Y-88872719D01*
X169469188Y-88848827D01*
X169470362Y-88824935D01*
X169473872Y-88801274D01*
X169479684Y-88778070D01*
X169487742Y-88755548D01*
X169497970Y-88733924D01*
X169510267Y-88713407D01*
X169524517Y-88694194D01*
X169540581Y-88676470D01*
X169885296Y-88331755D01*
X169903020Y-88315691D01*
X169922233Y-88301441D01*
X169942750Y-88289144D01*
X169964374Y-88278916D01*
X169986896Y-88270858D01*
X170010100Y-88265046D01*
X170033761Y-88261536D01*
X170057653Y-88260362D01*
X170081545Y-88261536D01*
X170081545Y-88261536D01*
G37*
D11*
X170207913Y-88999087D03*
D10*
G36*
X168755719Y-89587362D02*
G01*
X168779380Y-89590872D01*
X168802584Y-89596684D01*
X168825106Y-89604742D01*
X168846730Y-89614970D01*
X168867247Y-89627267D01*
X168886460Y-89641517D01*
X168904184Y-89657581D01*
X169549419Y-90302816D01*
X169565483Y-90320540D01*
X169579733Y-90339753D01*
X169592030Y-90360270D01*
X169602258Y-90381894D01*
X169610316Y-90404416D01*
X169616128Y-90427620D01*
X169619638Y-90451281D01*
X169620812Y-90475173D01*
X169619638Y-90499065D01*
X169616128Y-90522726D01*
X169610316Y-90545930D01*
X169602258Y-90568452D01*
X169592030Y-90590076D01*
X169579733Y-90610593D01*
X169565483Y-90629806D01*
X169549419Y-90647530D01*
X169204704Y-90992245D01*
X169186980Y-91008309D01*
X169167767Y-91022559D01*
X169147250Y-91034856D01*
X169125626Y-91045084D01*
X169103104Y-91053142D01*
X169079900Y-91058954D01*
X169056239Y-91062464D01*
X169032347Y-91063638D01*
X169008455Y-91062464D01*
X168984794Y-91058954D01*
X168961590Y-91053142D01*
X168939068Y-91045084D01*
X168917444Y-91034856D01*
X168896927Y-91022559D01*
X168877714Y-91008309D01*
X168859990Y-90992245D01*
X168214755Y-90347010D01*
X168198691Y-90329286D01*
X168184441Y-90310073D01*
X168172144Y-90289556D01*
X168161916Y-90267932D01*
X168153858Y-90245410D01*
X168148046Y-90222206D01*
X168144536Y-90198545D01*
X168143362Y-90174653D01*
X168144536Y-90150761D01*
X168148046Y-90127100D01*
X168153858Y-90103896D01*
X168161916Y-90081374D01*
X168172144Y-90059750D01*
X168184441Y-90039233D01*
X168198691Y-90020020D01*
X168214755Y-90002296D01*
X168559470Y-89657581D01*
X168577194Y-89641517D01*
X168596407Y-89627267D01*
X168616924Y-89614970D01*
X168638548Y-89604742D01*
X168661070Y-89596684D01*
X168684274Y-89590872D01*
X168707935Y-89587362D01*
X168731827Y-89586188D01*
X168755719Y-89587362D01*
X168755719Y-89587362D01*
G37*
D11*
X168882087Y-90324913D03*
D12*
X136525000Y-76047000D03*
X136525000Y-79147000D03*
X136525000Y-117957000D03*
X136525000Y-121057000D03*
X179705000Y-121692000D03*
X179705000Y-118592000D03*
X179705000Y-79147000D03*
X179705000Y-76047000D03*
D13*
X161459796Y-89831796D03*
D10*
G36*
X158808146Y-88594359D02*
G01*
X160222359Y-87180146D01*
X164111446Y-91069233D01*
X162697233Y-92483446D01*
X158808146Y-88594359D01*
X158808146Y-88594359D01*
G37*
D13*
X167470204Y-95842204D03*
D10*
G36*
X164818554Y-94604767D02*
G01*
X166232767Y-93190554D01*
X170121854Y-97079641D01*
X168707641Y-98493854D01*
X164818554Y-94604767D01*
X164818554Y-94604767D01*
G37*
D14*
X146811064Y-103564082D03*
D10*
G36*
X146475188Y-104288866D02*
G01*
X146086280Y-103899958D01*
X147146940Y-102839298D01*
X147535848Y-103228206D01*
X146475188Y-104288866D01*
X146475188Y-104288866D01*
G37*
D14*
X147376750Y-104129767D03*
D10*
G36*
X147040874Y-104854551D02*
G01*
X146651966Y-104465643D01*
X147712626Y-103404983D01*
X148101534Y-103793891D01*
X147040874Y-104854551D01*
X147040874Y-104854551D01*
G37*
D14*
X147942435Y-104695452D03*
D10*
G36*
X147606559Y-105420236D02*
G01*
X147217651Y-105031328D01*
X148278311Y-103970668D01*
X148667219Y-104359576D01*
X147606559Y-105420236D01*
X147606559Y-105420236D01*
G37*
D14*
X148508120Y-105261138D03*
D10*
G36*
X148172244Y-105985922D02*
G01*
X147783336Y-105597014D01*
X148843996Y-104536354D01*
X149232904Y-104925262D01*
X148172244Y-105985922D01*
X148172244Y-105985922D01*
G37*
D14*
X149073806Y-105826823D03*
D10*
G36*
X148737930Y-106551607D02*
G01*
X148349022Y-106162699D01*
X149409682Y-105102039D01*
X149798590Y-105490947D01*
X148737930Y-106551607D01*
X148737930Y-106551607D01*
G37*
D14*
X149639491Y-106392509D03*
D10*
G36*
X149303615Y-107117293D02*
G01*
X148914707Y-106728385D01*
X149975367Y-105667725D01*
X150364275Y-106056633D01*
X149303615Y-107117293D01*
X149303615Y-107117293D01*
G37*
D14*
X150205177Y-106958194D03*
D10*
G36*
X149869301Y-107682978D02*
G01*
X149480393Y-107294070D01*
X150541053Y-106233410D01*
X150929961Y-106622318D01*
X149869301Y-107682978D01*
X149869301Y-107682978D01*
G37*
D14*
X150770862Y-107523880D03*
D10*
G36*
X150434986Y-108248664D02*
G01*
X150046078Y-107859756D01*
X151106738Y-106799096D01*
X151495646Y-107188004D01*
X150434986Y-108248664D01*
X150434986Y-108248664D01*
G37*
D14*
X151336548Y-108089565D03*
D10*
G36*
X151000672Y-108814349D02*
G01*
X150611764Y-108425441D01*
X151672424Y-107364781D01*
X152061332Y-107753689D01*
X151000672Y-108814349D01*
X151000672Y-108814349D01*
G37*
D14*
X151902233Y-108655250D03*
D10*
G36*
X151566357Y-109380034D02*
G01*
X151177449Y-108991126D01*
X152238109Y-107930466D01*
X152627017Y-108319374D01*
X151566357Y-109380034D01*
X151566357Y-109380034D01*
G37*
D14*
X152467918Y-109220936D03*
D10*
G36*
X152132042Y-109945720D02*
G01*
X151743134Y-109556812D01*
X152803794Y-108496152D01*
X153192702Y-108885060D01*
X152132042Y-109945720D01*
X152132042Y-109945720D01*
G37*
D14*
X154872082Y-109220936D03*
D10*
G36*
X155596866Y-109556812D02*
G01*
X155207958Y-109945720D01*
X154147298Y-108885060D01*
X154536206Y-108496152D01*
X155596866Y-109556812D01*
X155596866Y-109556812D01*
G37*
D14*
X155437767Y-108655250D03*
D10*
G36*
X156162551Y-108991126D02*
G01*
X155773643Y-109380034D01*
X154712983Y-108319374D01*
X155101891Y-107930466D01*
X156162551Y-108991126D01*
X156162551Y-108991126D01*
G37*
D14*
X156003452Y-108089565D03*
D10*
G36*
X156728236Y-108425441D02*
G01*
X156339328Y-108814349D01*
X155278668Y-107753689D01*
X155667576Y-107364781D01*
X156728236Y-108425441D01*
X156728236Y-108425441D01*
G37*
D14*
X156569138Y-107523880D03*
D10*
G36*
X157293922Y-107859756D02*
G01*
X156905014Y-108248664D01*
X155844354Y-107188004D01*
X156233262Y-106799096D01*
X157293922Y-107859756D01*
X157293922Y-107859756D01*
G37*
D14*
X157134823Y-106958194D03*
D10*
G36*
X157859607Y-107294070D02*
G01*
X157470699Y-107682978D01*
X156410039Y-106622318D01*
X156798947Y-106233410D01*
X157859607Y-107294070D01*
X157859607Y-107294070D01*
G37*
D14*
X157700509Y-106392509D03*
D10*
G36*
X158425293Y-106728385D02*
G01*
X158036385Y-107117293D01*
X156975725Y-106056633D01*
X157364633Y-105667725D01*
X158425293Y-106728385D01*
X158425293Y-106728385D01*
G37*
D14*
X158266194Y-105826823D03*
D10*
G36*
X158990978Y-106162699D02*
G01*
X158602070Y-106551607D01*
X157541410Y-105490947D01*
X157930318Y-105102039D01*
X158990978Y-106162699D01*
X158990978Y-106162699D01*
G37*
D14*
X158831880Y-105261138D03*
D10*
G36*
X159556664Y-105597014D02*
G01*
X159167756Y-105985922D01*
X158107096Y-104925262D01*
X158496004Y-104536354D01*
X159556664Y-105597014D01*
X159556664Y-105597014D01*
G37*
D14*
X159397565Y-104695452D03*
D10*
G36*
X160122349Y-105031328D02*
G01*
X159733441Y-105420236D01*
X158672781Y-104359576D01*
X159061689Y-103970668D01*
X160122349Y-105031328D01*
X160122349Y-105031328D01*
G37*
D14*
X159963250Y-104129767D03*
D10*
G36*
X160688034Y-104465643D02*
G01*
X160299126Y-104854551D01*
X159238466Y-103793891D01*
X159627374Y-103404983D01*
X160688034Y-104465643D01*
X160688034Y-104465643D01*
G37*
D14*
X160528936Y-103564082D03*
D10*
G36*
X161253720Y-103899958D02*
G01*
X160864812Y-104288866D01*
X159804152Y-103228206D01*
X160193060Y-102839298D01*
X161253720Y-103899958D01*
X161253720Y-103899958D01*
G37*
D14*
X160528936Y-101159918D03*
D10*
G36*
X160193060Y-101884702D02*
G01*
X159804152Y-101495794D01*
X160864812Y-100435134D01*
X161253720Y-100824042D01*
X160193060Y-101884702D01*
X160193060Y-101884702D01*
G37*
D14*
X159963250Y-100594233D03*
D10*
G36*
X159627374Y-101319017D02*
G01*
X159238466Y-100930109D01*
X160299126Y-99869449D01*
X160688034Y-100258357D01*
X159627374Y-101319017D01*
X159627374Y-101319017D01*
G37*
D14*
X159397565Y-100028548D03*
D10*
G36*
X159061689Y-100753332D02*
G01*
X158672781Y-100364424D01*
X159733441Y-99303764D01*
X160122349Y-99692672D01*
X159061689Y-100753332D01*
X159061689Y-100753332D01*
G37*
D14*
X158831880Y-99462862D03*
D10*
G36*
X158496004Y-100187646D02*
G01*
X158107096Y-99798738D01*
X159167756Y-98738078D01*
X159556664Y-99126986D01*
X158496004Y-100187646D01*
X158496004Y-100187646D01*
G37*
D14*
X158266194Y-98897177D03*
D10*
G36*
X157930318Y-99621961D02*
G01*
X157541410Y-99233053D01*
X158602070Y-98172393D01*
X158990978Y-98561301D01*
X157930318Y-99621961D01*
X157930318Y-99621961D01*
G37*
D14*
X157700509Y-98331491D03*
D10*
G36*
X157364633Y-99056275D02*
G01*
X156975725Y-98667367D01*
X158036385Y-97606707D01*
X158425293Y-97995615D01*
X157364633Y-99056275D01*
X157364633Y-99056275D01*
G37*
D14*
X157134823Y-97765806D03*
D10*
G36*
X156798947Y-98490590D02*
G01*
X156410039Y-98101682D01*
X157470699Y-97041022D01*
X157859607Y-97429930D01*
X156798947Y-98490590D01*
X156798947Y-98490590D01*
G37*
D14*
X156569138Y-97200120D03*
D10*
G36*
X156233262Y-97924904D02*
G01*
X155844354Y-97535996D01*
X156905014Y-96475336D01*
X157293922Y-96864244D01*
X156233262Y-97924904D01*
X156233262Y-97924904D01*
G37*
D14*
X156003452Y-96634435D03*
D10*
G36*
X155667576Y-97359219D02*
G01*
X155278668Y-96970311D01*
X156339328Y-95909651D01*
X156728236Y-96298559D01*
X155667576Y-97359219D01*
X155667576Y-97359219D01*
G37*
D14*
X155437767Y-96068750D03*
D10*
G36*
X155101891Y-96793534D02*
G01*
X154712983Y-96404626D01*
X155773643Y-95343966D01*
X156162551Y-95732874D01*
X155101891Y-96793534D01*
X155101891Y-96793534D01*
G37*
D14*
X154872082Y-95503064D03*
D10*
G36*
X154536206Y-96227848D02*
G01*
X154147298Y-95838940D01*
X155207958Y-94778280D01*
X155596866Y-95167188D01*
X154536206Y-96227848D01*
X154536206Y-96227848D01*
G37*
D14*
X152467918Y-95503064D03*
D10*
G36*
X153192702Y-95838940D02*
G01*
X152803794Y-96227848D01*
X151743134Y-95167188D01*
X152132042Y-94778280D01*
X153192702Y-95838940D01*
X153192702Y-95838940D01*
G37*
D14*
X151902233Y-96068750D03*
D10*
G36*
X152627017Y-96404626D02*
G01*
X152238109Y-96793534D01*
X151177449Y-95732874D01*
X151566357Y-95343966D01*
X152627017Y-96404626D01*
X152627017Y-96404626D01*
G37*
D14*
X151336548Y-96634435D03*
D10*
G36*
X152061332Y-96970311D02*
G01*
X151672424Y-97359219D01*
X150611764Y-96298559D01*
X151000672Y-95909651D01*
X152061332Y-96970311D01*
X152061332Y-96970311D01*
G37*
D14*
X150770862Y-97200120D03*
D10*
G36*
X151495646Y-97535996D02*
G01*
X151106738Y-97924904D01*
X150046078Y-96864244D01*
X150434986Y-96475336D01*
X151495646Y-97535996D01*
X151495646Y-97535996D01*
G37*
D14*
X150205177Y-97765806D03*
D10*
G36*
X150929961Y-98101682D02*
G01*
X150541053Y-98490590D01*
X149480393Y-97429930D01*
X149869301Y-97041022D01*
X150929961Y-98101682D01*
X150929961Y-98101682D01*
G37*
D14*
X149639491Y-98331491D03*
D10*
G36*
X150364275Y-98667367D02*
G01*
X149975367Y-99056275D01*
X148914707Y-97995615D01*
X149303615Y-97606707D01*
X150364275Y-98667367D01*
X150364275Y-98667367D01*
G37*
D14*
X149073806Y-98897177D03*
D10*
G36*
X149798590Y-99233053D02*
G01*
X149409682Y-99621961D01*
X148349022Y-98561301D01*
X148737930Y-98172393D01*
X149798590Y-99233053D01*
X149798590Y-99233053D01*
G37*
D14*
X148508120Y-99462862D03*
D10*
G36*
X149232904Y-99798738D02*
G01*
X148843996Y-100187646D01*
X147783336Y-99126986D01*
X148172244Y-98738078D01*
X149232904Y-99798738D01*
X149232904Y-99798738D01*
G37*
D14*
X147942435Y-100028548D03*
D10*
G36*
X148667219Y-100364424D02*
G01*
X148278311Y-100753332D01*
X147217651Y-99692672D01*
X147606559Y-99303764D01*
X148667219Y-100364424D01*
X148667219Y-100364424D01*
G37*
D14*
X147376750Y-100594233D03*
D10*
G36*
X148101534Y-100930109D02*
G01*
X147712626Y-101319017D01*
X146651966Y-100258357D01*
X147040874Y-99869449D01*
X148101534Y-100930109D01*
X148101534Y-100930109D01*
G37*
D14*
X146811064Y-101159918D03*
D10*
G36*
X147535848Y-101495794D02*
G01*
X147146940Y-101884702D01*
X146086280Y-100824042D01*
X146475188Y-100435134D01*
X147535848Y-101495794D01*
X147535848Y-101495794D01*
G37*
M02*
