M48
; DRILL file {KiCad (5.1.2)-2} date 9.10.2019. 20:23:15
; FORMAT={-:-/ absolute / inch / decimal}
; #@! TF.CreationDate,2019-10-09T20:23:15+02:00
; #@! TF.GenerationSoftware,Kicad,Pcbnew,(5.1.2)-2
; #@! TF.FileFunction,Plated,1,2,PTH
FMAT,2
INCH
T1C0.0157
T2C0.0394
%
G90
G05
T1
X5.6Y-4.08
X5.635Y-4.185
X5.65Y-4.3
X5.695Y-3.74
X5.7Y-3.81
X5.715Y-4.305
X5.78Y-3.885
X5.805Y-3.845
X5.8511Y-4.3061
X5.89Y-3.335
X5.945Y-3.33
X5.99Y-3.875
X6.0041Y-4.1941
X6.035Y-4.15
X6.05Y-3.88
X6.055Y-4.485
X6.065Y-3.835
X6.065Y-3.915
X6.085Y-4.0841
X6.09Y-3.34
X6.115Y-3.915
X6.14Y-4.0736
X6.19Y-3.625
X6.19Y-4.075
X6.2425Y-4.0675
X6.265Y-4.335
X6.31Y-4.31
X6.3999Y-3.8699
X6.77Y-4.215
X6.8Y-3.785
X6.83Y-4.165
T2
X7.02Y-3.285
X7.02Y-3.385
X7.02Y-3.485
X7.02Y-3.585
X7.02Y-3.685
X7.02Y-3.785
X7.02Y-3.885
X7.02Y-3.985
X7.02Y-4.085
X7.02Y-4.185
X7.02Y-4.285
X7.02Y-4.385
X7.02Y-4.485
X7.12Y-3.285
X7.12Y-3.385
X7.12Y-3.485
X7.12Y-3.585
X7.12Y-3.685
X7.12Y-3.785
X7.12Y-3.885
X7.12Y-3.985
X7.12Y-4.085
X7.12Y-4.185
X7.12Y-4.285
X7.12Y-4.385
X7.12Y-4.485
X5.62Y-2.985
X5.62Y-3.085
X5.72Y-2.985
X5.72Y-3.085
X5.82Y-2.985
X5.82Y-3.085
X5.92Y-2.985
X5.92Y-3.085
X6.02Y-2.985
X6.02Y-3.085
X6.12Y-2.985
X6.12Y-3.085
X6.22Y-2.985
X6.22Y-3.085
X6.32Y-2.985
X6.32Y-3.085
X6.42Y-2.985
X6.42Y-3.085
X6.52Y-2.985
X6.52Y-3.085
X6.62Y-2.985
X6.62Y-3.085
X6.72Y-2.985
X6.72Y-3.085
X6.82Y-2.985
X6.82Y-3.085
X5.32Y-3.285
X5.32Y-3.385
X5.32Y-3.485
X5.32Y-3.585
X5.32Y-3.685
X5.32Y-3.785
X5.32Y-3.885
X5.32Y-3.985
X5.32Y-4.085
X5.32Y-4.185
X5.32Y-4.285
X5.32Y-4.385
X5.32Y-4.485
X5.42Y-3.285
X5.42Y-3.385
X5.42Y-3.485
X5.42Y-3.585
X5.42Y-3.685
X5.42Y-3.785
X5.42Y-3.885
X5.42Y-3.985
X5.42Y-4.085
X5.42Y-4.185
X5.42Y-4.285
X5.42Y-4.385
X5.42Y-4.485
X5.62Y-4.685
X5.62Y-4.785
X5.72Y-4.685
X5.72Y-4.785
X5.82Y-4.685
X5.82Y-4.785
X5.92Y-4.685
X5.92Y-4.785
X6.02Y-4.685
X6.02Y-4.785
X6.12Y-4.685
X6.12Y-4.785
X6.22Y-4.685
X6.22Y-4.785
X6.32Y-4.685
X6.32Y-4.785
X6.42Y-4.685
X6.42Y-4.785
X6.52Y-4.685
X6.52Y-4.785
X6.62Y-4.685
X6.62Y-4.785
X6.72Y-4.685
X6.72Y-4.785
X6.82Y-4.685
X6.82Y-4.785
T0
M30
